<svg id="Layer_1" data-name="Layer 1" xmlns="http://www.w3.org/2000/svg" xmlns:xlink="http://www.w3.org/1999/xlink" viewBox="0 0 32 32"><defs><style>.cls-1{fill:#606060;}.cls-2{clip-path:url(#clip-path);}.cls-3{clip-path:url(#clip-path-2);}.cls-4{clip-path:url(#clip-path-3);}.cls-5{clip-path:url(#clip-path-4);}</style><clipPath id="clip-path"><path class="cls-1" d="M-512.38992,836.404a2.67829,2.67829,0,0,0,2.6374,2.6453h149.35269a2.675,2.675,0,0,0,2.63741-2.64315V667.622a2.67638,2.67638,0,0,0-2.63741-2.64309H-509.75252a2.67637,2.67637,0,0,0-2.6374,2.64309v15.9041h5.4012a14.10984,14.10984,0,0,1,14.08042,14.11116V700.158a14.1099,14.1099,0,0,1-14.08042,14.11117h-5.4012v22.37344h5.4012A14.10984,14.10984,0,0,1-492.9083,750.7537v2.52078a14.10987,14.10987,0,0,1-14.08042,14.11114h-5.4012v22.37344h5.4012A14.10987,14.10987,0,0,1-492.9083,803.8702V806.391a14.10987,14.10987,0,0,1-14.08042,14.11115h-5.4012Zm-14.75959-25.28068h20.15865a4.73427,4.73427,0,0,0,4.72419-4.73449v-2.52077a4.73426,4.73426,0,0,0-4.72419-4.73449h-20.15865a4.73426,4.73426,0,0,0-4.72418,4.73449v2.52077A4.73427,4.73427,0,0,0-527.14951,811.12332Zm0-53.11435h20.15865a4.73427,4.73427,0,0,0,4.72419-4.73449V750.7537a4.73426,4.73426,0,0,0-4.72419-4.73448h-20.15865a4.73426,4.73426,0,0,0-4.72418,4.73448v2.52078A4.73427,4.73427,0,0,0-527.14951,758.009Zm0-53.1165h20.15865a4.73425,4.73425,0,0,0,4.72419-4.73447v-2.52074a4.73435,4.73435,0,0,0-4.72419-4.73458h-20.15865a4.73435,4.73435,0,0,0-4.72418,4.73458V700.158A4.73425,4.73425,0,0,0-527.14951,704.89247ZM-348.40619,836.404A12.02009,12.02009,0,0,1-360.402,848.42381H-509.75466A12.01826,12.01826,0,0,1-521.7483,836.404V820.50212h-5.40121A14.10987,14.10987,0,0,1-541.22992,806.391V803.8702a14.11172,14.11172,0,0,1,14.08041-14.1133h5.40121V767.38562h-5.40121a14.10987,14.10987,0,0,1-14.08041-14.11114V750.7537a14.11167,14.11167,0,0,1,14.08041-14.11324h5.40121V714.26917h-5.40121A14.1099,14.1099,0,0,1-541.22992,700.158v-2.52074A14.11213,14.11213,0,0,1-527.14736,683.524h5.4012v-15.9041a12.01829,12.01829,0,0,1,11.99364-12.01977h149.35269a12.01828,12.01828,0,0,1,11.99364,12.01977Zm-81.87874-89.46636a15.869,15.869,0,0,0,11.45352-15.22072,15.85678,15.85678,0,0,0-15.83912-15.83843,15.85627,15.85627,0,0,0-15.83689,15.83843,15.86781,15.86781,0,0,0,11.45152,15.22072Zm14.03135,2.21238c10.0249,4.45453,17.10432,15.14965,17.10432,27.60363V792.722a4.77708,4.77708,0,0,1-4.57378,4.95874h-61.89277a4.7771,4.7771,0,0,1-4.57379-4.95874V776.75365c0-12.45395,7.07933-23.149,17.10333-27.60359a25.28218,25.28218,0,0,1-6.95472-17.43538,25.39912,25.39912,0,0,1,25.37046-25.37153,25.39817,25.39817,0,0,1,25.37264,25.37153A25.28089,25.28089,0,0,1-416.25358,749.15Zm-14.98508,7.7051a25.50005,25.50005,0,0,1-3.43187.23114,25.498,25.498,0,0,1-3.43179-.23114h-4.588c-10.1193,0-18.35169,8.92755-18.35169,19.89853v11.0096h52.7452v-11.0096c0-10.971-8.23453-19.89853-18.35381-19.89853Z"/></clipPath><clipPath id="clip-path-2"><path class="cls-1" d="M-437.81806,2033.54189a58.16884,58.16884,0,0,1-58.18181-58.18182,58.16887,58.16887,0,0,1,58.18181-58.18182,58.16884,58.16884,0,0,1,58.18182,58.18182A58.16882,58.16882,0,0,1-437.81806,2033.54189Zm117.279-44.47292-7.67556-7.91363a99.11838,99.11838,0,0,0,0-23.03256l7.67556-7.86479c4.57961-4.66513,12.79246-10.84463,10.23395-16.731l-10.51542-24.42473c-2.55849-5.88638-12.99712-4.66514-19.67477-4.88507l-11.33416-.39075a108.24668,108.24668,0,0,0-16.98839-16.26694l-.35818-10.82018c-.20467-6.35043,1.1001-16.34013-5.117-18.7826l-25.585-10.13632c-6.14039-2.44247-12.66456,5.49563-17.52564,9.76988l-8.264,7.32753a113.84118,113.84118,0,0,0-24.15212,0l-8.21278-7.32753c-4.86113-4.34756-11.35971-12.21235-17.52568-9.76988l-25.58493,10.03857c-6.166,2.44247-4.86113,12.43229-5.117,18.78272l-.40937,10.79576a108.28541,108.28541,0,0,0-17.06515,16.2425l-11.30854.34186c-6.65209.19538-17.11633-1.05018-19.67482,4.885l-10.61775,24.42484c-2.55849,5.86194,5.75661,12.06586,10.234,16.70656l7.67547,7.88922a99.10572,99.10572,0,0,0,0,23.057l-7.67547,7.86477c-4.55412,4.64071-12.79247,10.82018-10.234,16.70656l10.51541,24.42479c2.55849,5.88637,13.02274,4.66513,19.70041,4.885l11.283.36638a108.243,108.243,0,0,0,17.03957,16.31575l.3326,10.77133c.20469,6.35045-1.10015,16.36461,5.117,18.80708l25.58493,10.13629c6.14039,2.44248,12.639-5.49558,17.5001-9.76991l8.28953-7.32743a113.87072,113.87072,0,0,0,24.10106,0l8.23831,7.32743c4.88669,4.372,11.334,12.21239,17.5,9.76991l25.585-10.03859c6.166-2.44247,4.8867-12.40778,5.117-18.80708l.38377-10.79576a108.30115,108.30115,0,0,0,17.0908-16.24247l11.30844-.34195c6.65216-.1954,17.142,1.05026,19.70048-4.885l10.61772-24.42478C-307.67,1999.96242-316.01057,1993.75852-320.53911,1989.069Z"/></clipPath><clipPath id="clip-path-3"><path class="cls-1" d="M-207.17153,1937.54188a29.08442,29.08442,0,0,1-29.0909-29.0909,29.08443,29.08443,0,0,1,29.0909-29.09091,29.08442,29.08442,0,0,1,29.09091,29.09091A29.08441,29.08441,0,0,1-207.17153,1937.54188Zm58.63948-22.23646-3.83778-3.95681a49.55919,49.55919,0,0,0,0-11.51628l3.83778-3.9324c2.2898-2.33256,6.39622-5.42231,5.117-8.36549l-5.25771-12.21237c-1.27924-2.94318-6.49856-2.33257-9.83738-2.44253l-5.66708-.19538a54.12331,54.12331,0,0,0-8.4942-8.13346l-.17909-5.41009c-.10234-3.17522.55-8.17007-2.55848-9.39131l-12.7925-5.06816c-3.07019-1.22123-6.33228,2.74782-8.76282,4.885l-4.132,3.66376a56.92059,56.92059,0,0,0-12.07606,0l-4.10639-3.66376c-2.43057-2.17379-5.67986-6.10618-8.76284-4.885l-12.79247,5.01929c-3.083,1.22124-2.43056,6.21614-2.55849,9.39136l-.20468,5.39788a54.143,54.143,0,0,0-8.53258,8.12125l-5.65427.17093c-3.326.09769-8.55816-.52509-9.83741,2.44248l-5.30887,12.21242c-1.27925,2.931,2.8783,6.03293,5.117,8.35328l3.83773,3.94461a49.5529,49.5529,0,0,0,0,11.52849l-3.83773,3.93238c-2.27706,2.32036-6.39624,5.41009-5.117,8.35328l5.2577,12.21239c1.27925,2.94319,6.51137,2.33257,9.85021,2.44248l5.64147.18319a54.12173,54.12173,0,0,0,8.51979,8.15787l.1663,5.38567c.10234,3.17522-.55008,8.1823,2.55849,9.40354l12.79247,5.06814c3.07019,1.22124,6.31948-2.74778,8.75-4.885l4.14476-3.66372a56.9347,56.9347,0,0,0,12.05053,0l4.11916,3.66372c2.44334,2.186,5.667,6.10619,8.75,4.885l12.79249-5.01929c3.083-1.22124,2.44335-6.20389,2.55849-9.40354l.19189-5.39788a54.15081,54.15081,0,0,0,8.5454-8.12124l5.65421-.171c3.32609-.0977,8.571.52513,9.85025-2.44248l5.30886-12.21239C-142.09748,1920.75215-146.26778,1917.6502-148.532,1915.30542Z"/></clipPath><clipPath id="clip-path-4"><path class="cls-1" d="M-69.76116,1889.54188a14.54221,14.54221,0,0,1-14.54546-14.54545A14.54222,14.54222,0,0,1-69.76116,1860.451a14.54221,14.54221,0,0,1,14.54545,14.54546A14.5422,14.5422,0,0,1-69.76116,1889.54188Zm29.31973-11.11823-1.91889-1.97841a24.779,24.779,0,0,0,0-5.75814l1.91889-1.96619c1.14491-1.16629,3.19812-2.71116,2.55849-4.18275l-2.62885-6.10618c-.63963-1.4716-3.24928-1.16629-4.91869-1.22127l-2.83355-.09769a27.06181,27.06181,0,0,0-4.24709-4.06673l-.08955-2.70505c-.05117-1.58761.275-4.085-1.27924-4.69565l-6.39625-2.53408c-1.5351-.61062-3.16614,1.37391-4.38141,2.44247l-2.066,1.83188a28.461,28.461,0,0,0-6.038,0l-2.05319-1.83188c-1.21528-1.08689-2.83993-3.05309-4.38142-2.44247l-6.39623,2.50965c-1.54149.61061-1.21529,3.10807-1.27925,4.69567l-.10234,2.69895a27.07143,27.07143,0,0,0-4.26629,4.06062l-2.82713.08547c-1.663.04884-4.27908-.26255-4.91871,1.22123l-2.65443,6.10621c-.63963,1.46549,1.43915,3.01647,2.55849,4.17664l1.91887,1.97231a24.77641,24.77641,0,0,0,0,5.76424l-1.91887,1.96619c-1.13853,1.16018-3.19812,2.70505-2.55849,4.17664l2.62885,6.1062c.63962,1.47159,3.25568,1.16628,4.9251,1.22124l2.82074.09159a27.06064,27.06064,0,0,0,4.25989,4.07894l.08315,2.69283c.05117,1.58762-.275,4.09116,1.27925,4.70177l6.39623,2.53408c1.5351.61062,3.15974-1.3739,4.375-2.44248l2.07239-1.83186a28.468,28.468,0,0,0,6.02526,0l2.05958,1.83186c1.22167,1.093,2.83351,3.0531,4.375,2.44248l6.39625-2.50965c1.54149-.61062,1.22167-3.10195,1.27924-4.70177l.09594-2.69894a27.075,27.075,0,0,0,4.2727-4.06062l2.82711-.08549c1.663-.04885,4.2855.26257,4.92512-1.22124l2.65443-6.10619C-37.22414,1881.147-39.30929,1879.596-40.44143,1878.42365Z"/></clipPath></defs><title>p-share app icons</title><path class="cls-1" d="M25.64648,15.07452H16.55077V6.17136a.73389.73389,0,1,0-1.46777,0v8.90316H6.35352a.73389.73389,0,1,0,0,1.46777H15.083v9.28635a.73389.73389,0,1,0,1.46777,0V16.54229h9.09571a.73389.73389,0,1,0,0-1.46777Z"/><path class="cls-1" d="M-512.38992,836.404a2.67829,2.67829,0,0,0,2.6374,2.6453h149.35269a2.675,2.675,0,0,0,2.63741-2.64315V667.622a2.67638,2.67638,0,0,0-2.63741-2.64309H-509.75252a2.67637,2.67637,0,0,0-2.6374,2.64309v15.9041h5.4012a14.10984,14.10984,0,0,1,14.08042,14.11116V700.158a14.1099,14.1099,0,0,1-14.08042,14.11117h-5.4012v22.37344h5.4012A14.10984,14.10984,0,0,1-492.9083,750.7537v2.52078a14.10987,14.10987,0,0,1-14.08042,14.11114h-5.4012v22.37344h5.4012A14.10987,14.10987,0,0,1-492.9083,803.8702V806.391a14.10987,14.10987,0,0,1-14.08042,14.11115h-5.4012Zm-14.75959-25.28068h20.15865a4.73427,4.73427,0,0,0,4.72419-4.73449v-2.52077a4.73426,4.73426,0,0,0-4.72419-4.73449h-20.15865a4.73426,4.73426,0,0,0-4.72418,4.73449v2.52077A4.73427,4.73427,0,0,0-527.14951,811.12332Zm0-53.11435h20.15865a4.73427,4.73427,0,0,0,4.72419-4.73449V750.7537a4.73426,4.73426,0,0,0-4.72419-4.73448h-20.15865a4.73426,4.73426,0,0,0-4.72418,4.73448v2.52078A4.73427,4.73427,0,0,0-527.14951,758.009Zm0-53.1165h20.15865a4.73425,4.73425,0,0,0,4.72419-4.73447v-2.52074a4.73435,4.73435,0,0,0-4.72419-4.73458h-20.15865a4.73435,4.73435,0,0,0-4.72418,4.73458V700.158A4.73425,4.73425,0,0,0-527.14951,704.89247ZM-348.40619,836.404A12.02009,12.02009,0,0,1-360.402,848.42381H-509.75466A12.01826,12.01826,0,0,1-521.7483,836.404V820.50212h-5.40121A14.10987,14.10987,0,0,1-541.22992,806.391V803.8702a14.11172,14.11172,0,0,1,14.08041-14.1133h5.40121V767.38562h-5.40121a14.10987,14.10987,0,0,1-14.08041-14.11114V750.7537a14.11167,14.11167,0,0,1,14.08041-14.11324h5.40121V714.26917h-5.40121A14.1099,14.1099,0,0,1-541.22992,700.158v-2.52074A14.11213,14.11213,0,0,1-527.14736,683.524h5.4012v-15.9041a12.01829,12.01829,0,0,1,11.99364-12.01977h149.35269a12.01828,12.01828,0,0,1,11.99364,12.01977Zm-81.87874-89.46636a15.869,15.869,0,0,0,11.45352-15.22072,15.85678,15.85678,0,0,0-15.83912-15.83843,15.85627,15.85627,0,0,0-15.83689,15.83843,15.86781,15.86781,0,0,0,11.45152,15.22072Zm14.03135,2.21238c10.0249,4.45453,17.10432,15.14965,17.10432,27.60363V792.722a4.77708,4.77708,0,0,1-4.57378,4.95874h-61.89277a4.7771,4.7771,0,0,1-4.57379-4.95874V776.75365c0-12.45395,7.07933-23.149,17.10333-27.60359a25.28218,25.28218,0,0,1-6.95472-17.43538,25.39912,25.39912,0,0,1,25.37046-25.37153,25.39817,25.39817,0,0,1,25.37264,25.37153A25.28089,25.28089,0,0,1-416.25358,749.15Zm-14.98508,7.7051a25.50005,25.50005,0,0,1-3.43187.23114,25.498,25.498,0,0,1-3.43179-.23114h-4.588c-10.1193,0-18.35169,8.92755-18.35169,19.89853v11.0096h52.7452v-11.0096c0-10.971-8.23453-19.89853-18.35381-19.89853Z"/><g class="cls-2"><rect class="cls-1" x="-734.05366" y="-329.94345" width="15329.48691" height="8227.14602"/></g><path class="cls-1" d="M-437.81806,2033.54189a58.16884,58.16884,0,0,1-58.18181-58.18182,58.16887,58.16887,0,0,1,58.18181-58.18182,58.16884,58.16884,0,0,1,58.18182,58.18182A58.16882,58.16882,0,0,1-437.81806,2033.54189Zm117.279-44.47292-7.67556-7.91363a99.11838,99.11838,0,0,0,0-23.03256l7.67556-7.86479c4.57961-4.66513,12.79246-10.84463,10.23395-16.731l-10.51542-24.42473c-2.55849-5.88638-12.99712-4.66514-19.67477-4.88507l-11.33416-.39075a108.24668,108.24668,0,0,0-16.98839-16.26694l-.35818-10.82018c-.20467-6.35043,1.1001-16.34013-5.117-18.7826l-25.585-10.13632c-6.14039-2.44247-12.66456,5.49563-17.52564,9.76988l-8.264,7.32753a113.84118,113.84118,0,0,0-24.15212,0l-8.21278-7.32753c-4.86113-4.34756-11.35971-12.21235-17.52568-9.76988l-25.58493,10.03857c-6.166,2.44247-4.86113,12.43229-5.117,18.78272l-.40937,10.79576a108.28541,108.28541,0,0,0-17.06515,16.2425l-11.30854.34186c-6.65209.19538-17.11633-1.05018-19.67482,4.885l-10.61775,24.42484c-2.55849,5.86194,5.75661,12.06586,10.234,16.70656l7.67547,7.88922a99.10572,99.10572,0,0,0,0,23.057l-7.67547,7.86477c-4.55412,4.64071-12.79247,10.82018-10.234,16.70656l10.51541,24.42479c2.55849,5.88637,13.02274,4.66513,19.70041,4.885l11.283.36638a108.243,108.243,0,0,0,17.03957,16.31575l.3326,10.77133c.20469,6.35045-1.10015,16.36461,5.117,18.80708l25.58493,10.13629c6.14039,2.44248,12.639-5.49558,17.5001-9.76991l8.28953-7.32743a113.87072,113.87072,0,0,0,24.10106,0l8.23831,7.32743c4.88669,4.372,11.334,12.21239,17.5,9.76991l25.585-10.03859c6.166-2.44247,4.8867-12.40778,5.117-18.80708l.38377-10.79576a108.30115,108.30115,0,0,0,17.0908-16.24247l11.30844-.34195c6.65216-.1954,17.142,1.05026,19.70048-4.885l10.61772-24.42478C-307.67,1999.96242-316.01057,1993.75852-320.53911,1989.069Z"/><g class="cls-3"><rect class="cls-1" x="-763.63624" y="-5914.09458" width="16651.63659" height="8936.72739"/></g><path class="cls-1" d="M-207.17153,1937.54188a29.08442,29.08442,0,0,1-29.0909-29.0909,29.08443,29.08443,0,0,1,29.0909-29.09091,29.08442,29.08442,0,0,1,29.09091,29.09091A29.08441,29.08441,0,0,1-207.17153,1937.54188Zm58.63948-22.23646-3.83778-3.95681a49.55919,49.55919,0,0,0,0-11.51628l3.83778-3.9324c2.2898-2.33256,6.39622-5.42231,5.117-8.36549l-5.25771-12.21237c-1.27924-2.94318-6.49856-2.33257-9.83738-2.44253l-5.66708-.19538a54.12331,54.12331,0,0,0-8.4942-8.13346l-.17909-5.41009c-.10234-3.17522.55-8.17007-2.55848-9.39131l-12.7925-5.06816c-3.07019-1.22123-6.33228,2.74782-8.76282,4.885l-4.132,3.66376a56.92059,56.92059,0,0,0-12.07606,0l-4.10639-3.66376c-2.43057-2.17379-5.67986-6.10618-8.76284-4.885l-12.79247,5.01929c-3.083,1.22124-2.43056,6.21614-2.55849,9.39136l-.20468,5.39788a54.143,54.143,0,0,0-8.53258,8.12125l-5.65427.17093c-3.326.09769-8.55816-.52509-9.83741,2.44248l-5.30887,12.21242c-1.27925,2.931,2.8783,6.03293,5.117,8.35328l3.83773,3.94461a49.5529,49.5529,0,0,0,0,11.52849l-3.83773,3.93238c-2.27706,2.32036-6.39624,5.41009-5.117,8.35328l5.2577,12.21239c1.27925,2.94319,6.51137,2.33257,9.85021,2.44248l5.64147.18319a54.12173,54.12173,0,0,0,8.51979,8.15787l.1663,5.38567c.10234,3.17522-.55008,8.1823,2.55849,9.40354l12.79247,5.06814c3.07019,1.22124,6.31948-2.74778,8.75-4.885l4.14476-3.66372a56.9347,56.9347,0,0,0,12.05053,0l4.11916,3.66372c2.44334,2.186,5.667,6.10619,8.75,4.885l12.79249-5.01929c3.083-1.22124,2.44335-6.20389,2.55849-9.40354l.19189-5.39788a54.15081,54.15081,0,0,0,8.5454-8.12124l5.65421-.171c3.32609-.0977,8.571.52513,9.85025-2.44248l5.30886-12.21239C-142.09748,1920.75215-146.26778,1917.6502-148.532,1915.30542Z"/><g class="cls-4"><rect class="cls-1" x="-370.08062" y="-2036.2763" width="8325.81819" height="4468.36364"/></g><path class="cls-1" d="M-69.76116,1889.54188a14.54221,14.54221,0,0,1-14.54546-14.54545A14.54222,14.54222,0,0,1-69.76116,1860.451a14.54221,14.54221,0,0,1,14.54545,14.54546A14.5422,14.5422,0,0,1-69.76116,1889.54188Zm29.31973-11.11823-1.91889-1.97841a24.779,24.779,0,0,0,0-5.75814l1.91889-1.96619c1.14491-1.16629,3.19812-2.71116,2.55849-4.18275l-2.62885-6.10618c-.63963-1.4716-3.24928-1.16629-4.91869-1.22127l-2.83355-.09769a27.06181,27.06181,0,0,0-4.24709-4.06673l-.08955-2.70505c-.05117-1.58761.275-4.085-1.27924-4.69565l-6.39625-2.53408c-1.5351-.61062-3.16614,1.37391-4.38141,2.44247l-2.066,1.83188a28.461,28.461,0,0,0-6.038,0l-2.05319-1.83188c-1.21528-1.08689-2.83993-3.05309-4.38142-2.44247l-6.39623,2.50965c-1.54149.61061-1.21529,3.10807-1.27925,4.69567l-.10234,2.69895a27.07143,27.07143,0,0,0-4.26629,4.06062l-2.82713.08547c-1.663.04884-4.27908-.26255-4.91871,1.22123l-2.65443,6.10621c-.63963,1.46549,1.43915,3.01647,2.55849,4.17664l1.91887,1.97231a24.77641,24.77641,0,0,0,0,5.76424l-1.91887,1.96619c-1.13853,1.16018-3.19812,2.70505-2.55849,4.17664l2.62885,6.1062c.63962,1.47159,3.25568,1.16628,4.9251,1.22124l2.82074.09159a27.06064,27.06064,0,0,0,4.25989,4.07894l.08315,2.69283c.05117,1.58762-.275,4.09116,1.27925,4.70177l6.39623,2.53408c1.5351.61062,3.15974-1.3739,4.375-2.44248l2.07239-1.83186a28.468,28.468,0,0,0,6.02526,0l2.05958,1.83186c1.22167,1.093,2.83351,3.0531,4.375,2.44248l6.39625-2.50965c1.54149-.61062,1.22167-3.10195,1.27924-4.70177l.09594-2.69894a27.075,27.075,0,0,0,4.2727-4.06062l2.82711-.08549c1.663-.04885,4.2855.26257,4.92512-1.22124l2.65443-6.10619C-37.22414,1881.147-39.30929,1879.596-40.44143,1878.42365Z"/><g class="cls-5"><rect class="cls-1" x="-151.21571" y="-97.36719" width="4162.90904" height="2234.18179"/></g></svg>