<svg id="Layer_1" data-name="Layer 1" xmlns="http://www.w3.org/2000/svg" xmlns:xlink="http://www.w3.org/1999/xlink" viewBox="0 0 256 256"><defs><style>.cls-1{fill:#606060;}.cls-2{clip-path:url(#clip-path);}.cls-3{fill:#4f4f4f;}</style><clipPath id="clip-path"><path class="cls-1" d="M53.4281-3888.7306a2.6784,2.6784,0,0,0,2.6374,2.6453H205.4182a2.675,2.675,0,0,0,2.6374-2.6432v-168.7841a2.6763,2.6763,0,0,0-2.6374-2.6431H56.0655a2.6764,2.6764,0,0,0-2.6374,2.6431v15.9041h5.4012A14.11,14.11,0,0,1,72.91-4027.4974v2.5208a14.11,14.11,0,0,1-14.08,14.1111H53.4281v22.3735h5.4012A14.11,14.11,0,0,1,72.91-3974.3809v2.5208a14.11,14.11,0,0,1-14.08,14.1111H53.4281v22.3734h5.4012A14.11,14.11,0,0,1,72.91-3921.2644v2.5208a14.11,14.11,0,0,1-14.08,14.1111H53.4281Zm-14.76-25.2807H58.8272a4.7342,4.7342,0,0,0,4.7242-4.7345v-2.5208a4.7343,4.7343,0,0,0-4.7242-4.7345H38.6685a4.7343,4.7343,0,0,0-4.7241,4.7345v2.5208A4.7342,4.7342,0,0,0,38.6685-3914.0113Zm0-53.1143H58.8272a4.7343,4.7343,0,0,0,4.7242-4.7345v-2.5208a4.7342,4.7342,0,0,0-4.7242-4.7345H38.6685a4.7342,4.7342,0,0,0-4.7241,4.7345v2.5208A4.7343,4.7343,0,0,0,38.6685-3967.1256Zm0-53.1165H58.8272a4.7343,4.7343,0,0,0,4.7242-4.7345v-2.5208a4.7343,4.7343,0,0,0-4.7242-4.7345H38.6685a4.7343,4.7343,0,0,0-4.7241,4.7345v2.5208A4.7343,4.7343,0,0,0,38.6685-4020.2421Zm178.7434,131.5115a12.02,12.02,0,0,1-11.9958,12.02H56.0634a12.0182,12.0182,0,0,1-11.9936-12.02v-15.9019H38.6685a14.11,14.11,0,0,1-14.08-14.1111v-2.5208a14.1117,14.1117,0,0,1,14.08-14.1133H44.07v-22.3713H38.6685a14.11,14.11,0,0,1-14.08-14.1111v-2.5208a14.1117,14.1117,0,0,1,14.08-14.1133H44.07v-22.3713H38.6685a14.11,14.11,0,0,1-14.08-14.1111v-2.5208a14.1122,14.1122,0,0,1,14.0826-14.1133h5.4012v-15.9041a12.0182,12.0182,0,0,1,11.9936-12.02H205.4182a12.0183,12.0183,0,0,1,11.9937,12.02Zm-81.8788-89.4664a15.8689,15.8689,0,0,0,11.4535-15.2207,15.8567,15.8567,0,0,0-15.8391-15.8384,15.8563,15.8563,0,0,0-15.8369,15.8384,15.8677,15.8677,0,0,0,11.4516,15.2207Zm14.0314,2.2124c10.0249,4.4545,17.1043,15.15,17.1043,27.6036v15.9684a4.7771,4.7771,0,0,1-4.5738,4.9587H100.2022a4.777,4.777,0,0,1-4.5737-4.9587v-15.9684c0-12.4539,7.0793-23.149,17.1033-27.6036a25.282,25.282,0,0,1-6.9547-17.4353,25.3991,25.3991,0,0,1,25.37-25.3716A25.3983,25.3983,0,0,1,156.52-3993.42,25.2807,25.2807,0,0,1,149.5645-3975.9846Zm-14.9851,7.7051a25.5028,25.5028,0,0,1-3.4319.2311,25.5013,25.5013,0,0,1-3.4318-.2311h-4.588c-10.1193,0-18.3517,8.9275-18.3517,19.8985v11.01h52.7452v-11.01c0-10.971-8.2345-19.8985-18.3538-19.8985Z"/></clipPath></defs><title>p-share app icons</title><path class="cls-1" d="M53.4281-3888.7306a2.6784,2.6784,0,0,0,2.6374,2.6453H205.4182a2.675,2.675,0,0,0,2.6374-2.6432v-168.7841a2.6763,2.6763,0,0,0-2.6374-2.6431H56.0655a2.6764,2.6764,0,0,0-2.6374,2.6431v15.9041h5.4012A14.11,14.11,0,0,1,72.91-4027.4974v2.5208a14.11,14.11,0,0,1-14.08,14.1111H53.4281v22.3735h5.4012A14.11,14.11,0,0,1,72.91-3974.3809v2.5208a14.11,14.11,0,0,1-14.08,14.1111H53.4281v22.3734h5.4012A14.11,14.11,0,0,1,72.91-3921.2644v2.5208a14.11,14.11,0,0,1-14.08,14.1111H53.4281Zm-14.76-25.2807H58.8272a4.7342,4.7342,0,0,0,4.7242-4.7345v-2.5208a4.7343,4.7343,0,0,0-4.7242-4.7345H38.6685a4.7343,4.7343,0,0,0-4.7241,4.7345v2.5208A4.7342,4.7342,0,0,0,38.6685-3914.0113Zm0-53.1143H58.8272a4.7343,4.7343,0,0,0,4.7242-4.7345v-2.5208a4.7342,4.7342,0,0,0-4.7242-4.7345H38.6685a4.7342,4.7342,0,0,0-4.7241,4.7345v2.5208A4.7343,4.7343,0,0,0,38.6685-3967.1256Zm0-53.1165H58.8272a4.7343,4.7343,0,0,0,4.7242-4.7345v-2.5208a4.7343,4.7343,0,0,0-4.7242-4.7345H38.6685a4.7343,4.7343,0,0,0-4.7241,4.7345v2.5208A4.7343,4.7343,0,0,0,38.6685-4020.2421Zm178.7434,131.5115a12.02,12.02,0,0,1-11.9958,12.02H56.0634a12.0182,12.0182,0,0,1-11.9936-12.02v-15.9019H38.6685a14.11,14.11,0,0,1-14.08-14.1111v-2.5208a14.1117,14.1117,0,0,1,14.08-14.1133H44.07v-22.3713H38.6685a14.11,14.11,0,0,1-14.08-14.1111v-2.5208a14.1117,14.1117,0,0,1,14.08-14.1133H44.07v-22.3713H38.6685a14.11,14.11,0,0,1-14.08-14.1111v-2.5208a14.1122,14.1122,0,0,1,14.0826-14.1133h5.4012v-15.9041a12.0182,12.0182,0,0,1,11.9936-12.02H205.4182a12.0183,12.0183,0,0,1,11.9937,12.02Zm-81.8788-89.4664a15.8689,15.8689,0,0,0,11.4535-15.2207,15.8567,15.8567,0,0,0-15.8391-15.8384,15.8563,15.8563,0,0,0-15.8369,15.8384,15.8677,15.8677,0,0,0,11.4516,15.2207Zm14.0314,2.2124c10.0249,4.4545,17.1043,15.15,17.1043,27.6036v15.9684a4.7771,4.7771,0,0,1-4.5738,4.9587H100.2022a4.777,4.777,0,0,1-4.5737-4.9587v-15.9684c0-12.4539,7.0793-23.149,17.1033-27.6036a25.282,25.282,0,0,1-6.9547-17.4353,25.3991,25.3991,0,0,1,25.37-25.3716A25.3983,25.3983,0,0,1,156.52-3993.42,25.2807,25.2807,0,0,1,149.5645-3975.9846Zm-14.9851,7.7051a25.5028,25.5028,0,0,1-3.4319.2311,25.5013,25.5013,0,0,1-3.4318-.2311h-4.588c-10.1193,0-18.3517,8.9275-18.3517,19.8985v11.01h52.7452v-11.01c0-10.971-8.2345-19.8985-18.3538-19.8985Z"/><g class="cls-2"><rect class="cls-1" x="-168.2356" y="-5055.0781" width="15329.4869" height="8227.146"/></g><path class="cls-3" d="M125.47,231.62A103.62,103.62,0,1,1,229.0905,128,103.7371,103.7371,0,0,1,125.47,231.62Zm0-190.6615A87.0412,87.0412,0,1,0,212.5113,128,87.1363,87.1363,0,0,0,125.47,40.9589Z"/><path class="cls-3" d="M150.7693,161.3972l-26.4116-26.4116L98.8046,160.5388a4.6274,4.6274,0,1,1-6.5442-6.5442l25.5531-25.5531-26.193-26.193a4.6274,4.6274,0,0,1,6.5442-6.5442l26.193,26.193,27.2616-27.2616a4.6274,4.6274,0,0,1,6.5441,6.5441l-27.2615,27.2617,26.4116,26.4116a4.6274,4.6274,0,1,1-6.5442,6.5441Z"/></svg>