<svg id="Layer_1" data-name="Layer 1" xmlns="http://www.w3.org/2000/svg" xmlns:xlink="http://www.w3.org/1999/xlink" viewBox="0 0 32 32"><defs><style>.cls-1{fill:#606060;}.cls-2{clip-path:url(#clip-path);}.cls-3{clip-path:url(#clip-path-2);}.cls-4{fill:#4f4f4f;}.cls-5{fill:#fff;}</style><clipPath id="clip-path"><path class="cls-1" d="M-512.38992-2237.81269a2.67831,2.67831,0,0,0,2.6374,2.64531h149.35269a2.675,2.675,0,0,0,2.63741-2.64315v-168.78416a2.67638,2.67638,0,0,0-2.63741-2.64308H-509.75252a2.67637,2.67637,0,0,0-2.6374,2.64308v15.90411h5.4012a14.10983,14.10983,0,0,1,14.08042,14.11116v2.52074a14.1099,14.1099,0,0,1-14.08042,14.11116h-5.4012v22.37344h5.4012a14.10984,14.10984,0,0,1,14.08042,14.1111v2.52078a14.10987,14.10987,0,0,1-14.08042,14.11114h-5.4012v22.37343h5.4012a14.10987,14.10987,0,0,1,14.08042,14.11114v2.52078a14.10988,14.10988,0,0,1-14.08042,14.11115h-5.4012Zm-14.75959-25.28068h20.15865a4.73426,4.73426,0,0,0,4.72419-4.73448v-2.52078a4.73426,4.73426,0,0,0-4.72419-4.73449h-20.15865a4.73426,4.73426,0,0,0-4.72418,4.73449v2.52078A4.73426,4.73426,0,0,0-527.14951-2263.09337Zm0-53.11434h20.15865a4.73428,4.73428,0,0,0,4.72419-4.73449v-2.52078a4.73426,4.73426,0,0,0-4.72419-4.73448h-20.15865a4.73425,4.73425,0,0,0-4.72418,4.73448v2.52078A4.73427,4.73427,0,0,0-527.14951-2316.20771Zm0-53.1165h20.15865a4.73426,4.73426,0,0,0,4.72419-4.73447v-2.52074a4.73434,4.73434,0,0,0-4.72419-4.73458h-20.15865a4.73434,4.73434,0,0,0-4.72418,4.73458v2.52074A4.73426,4.73426,0,0,0-527.14951-2369.32421Zm178.74332,131.51152a12.02009,12.02009,0,0,1-11.99579,12.01982H-509.75466a12.01827,12.01827,0,0,1-11.99364-12.01982v-15.90187h-5.40121a14.10988,14.10988,0,0,1-14.08041-14.11115v-2.52078a14.11171,14.11171,0,0,1,14.08041-14.11329h5.40121v-22.37128h-5.40121a14.10987,14.10987,0,0,1-14.08041-14.11114v-2.52078a14.11166,14.11166,0,0,1,14.08041-14.11324h5.40121v-22.3713h-5.40121a14.1099,14.1099,0,0,1-14.08041-14.11116v-2.52074a14.11212,14.11212,0,0,1,14.08256-14.11331h5.4012v-15.9041a12.0183,12.0183,0,0,1,11.99364-12.01978h149.35269a12.01828,12.01828,0,0,1,11.99364,12.01978Zm-81.87874-89.46636a15.869,15.869,0,0,0,11.45352-15.22071,15.85678,15.85678,0,0,0-15.83912-15.83843,15.85627,15.85627,0,0,0-15.83689,15.83843A15.86779,15.86779,0,0,0-439.0559-2327.279Zm14.03135,2.21239c10.0249,4.45453,17.10432,15.14964,17.10432,27.60363v15.96833a4.77708,4.77708,0,0,1-4.57378,4.95874h-61.89277a4.7771,4.7771,0,0,1-4.57379-4.95874V-2297.463c0-12.454,7.07933-23.149,17.10333-27.60359A25.28221,25.28221,0,0,1-460.041-2342.502a25.39912,25.39912,0,0,1,25.37046-25.37153,25.39817,25.39817,0,0,1,25.37264,25.37153A25.28091,25.28091,0,0,1-416.25358-2325.06666Zm-14.98508,7.7051a25.50005,25.50005,0,0,1-3.43187.23113,25.498,25.498,0,0,1-3.43179-.23113h-4.588c-10.1193,0-18.35169,8.92754-18.35169,19.89853v11.00959h52.7452V-2297.463c0-10.971-8.23453-19.89853-18.35381-19.89853Z"/></clipPath><clipPath id="clip-path-2"><path class="cls-1" d="M-245.21441-2342.43888a1.389,1.389,0,0,0,1.36776,1.37186h77.45456a1.38725,1.38725,0,0,0,1.36776-1.37074v-87.53175a1.388,1.388,0,0,0-1.36776-1.37071h-77.45456a1.388,1.388,0,0,0-1.36776,1.37071v8.2479h2.80108a7.31738,7.31738,0,0,1,7.30212,7.31807v1.30726a7.31742,7.31742,0,0,1-7.30212,7.31807h-2.80108v11.60291h2.80108a7.31738,7.31738,0,0,1,7.30212,7.318v1.30728a7.3174,7.3174,0,0,1-7.30212,7.31807h-2.80108v11.6029h2.80108a7.3174,7.3174,0,0,1,7.30212,7.31806v1.30728a7.3174,7.3174,0,0,1-7.30212,7.31806h-2.80108Zm-7.65435-13.1106h10.45431a2.4552,2.4552,0,0,0,2.45-2.45532v-1.30727a2.45519,2.45519,0,0,0-2.45-2.45532h-10.45431a2.45519,2.45519,0,0,0-2.45,2.45532v1.30727A2.4552,2.4552,0,0,0-252.86876-2355.54948Zm0-27.54519h10.45431a2.4552,2.4552,0,0,0,2.45-2.45532v-1.30728a2.45518,2.45518,0,0,0-2.45-2.4553h-10.45431a2.45518,2.45518,0,0,0-2.45,2.4553v1.30728A2.4552,2.4552,0,0,0-252.86876-2383.09467Zm0-27.54631h10.45431a2.45518,2.45518,0,0,0,2.45-2.4553v-1.30726a2.45523,2.45523,0,0,0-2.45-2.45536h-10.45431a2.45523,2.45523,0,0,0-2.45,2.45536v1.30726A2.45518,2.45518,0,0,0-252.86876-2410.641Zm92.69659,68.2021a6.23365,6.23365,0,0,1-6.221,6.2335h-77.45455a6.23269,6.23269,0,0,1-6.21992-6.2335v-8.24674h-2.80108a7.3174,7.3174,0,0,1-7.30212-7.31806v-1.30728a7.31836,7.31836,0,0,1,7.30212-7.31918h2.80108v-11.60178h-2.80108a7.3174,7.3174,0,0,1-7.30212-7.31807v-1.30728a7.31833,7.31833,0,0,1,7.30212-7.31914h2.80108v-11.6018h-2.80108a7.31742,7.31742,0,0,1-7.30212-7.31807v-1.30726a7.31857,7.31857,0,0,1,7.30324-7.31918h2.80107v-8.2479a6.2327,6.2327,0,0,1,6.21992-6.23347h77.45456a6.2327,6.2327,0,0,1,6.21992,6.23347Zm-42.46245-46.3974a8.22972,8.22972,0,0,0,5.93981-7.89349,8.22335,8.22335,0,0,0-8.21419-8.21384,8.22309,8.22309,0,0,0-8.213,8.21384,8.22908,8.22908,0,0,0,5.93878,7.89349Zm7.27668,1.14734a15.53771,15.53771,0,0,1,8.87033,14.31529v8.28121a2.47741,2.47741,0,0,1-2.372,2.57161h-32.0977a2.47741,2.47741,0,0,1-2.372-2.57161v-8.28121a15.53806,15.53806,0,0,1,8.86981-14.31527,13.11139,13.11139,0,0,1-3.60672-9.042,13.172,13.172,0,0,1,13.15716-13.15771,13.17153,13.17153,0,0,1,13.15829,13.15771A13.1107,13.1107,0,0,1-195.35794-2387.68894Zm-7.77129,3.99588a13.22437,13.22437,0,0,1-1.77977.11987,13.22311,13.22311,0,0,1-1.77973-.11987h-2.37935c-5.24789,0-9.51722,4.62984-9.51722,10.31941v5.7096h27.35375v-5.7096c0-5.68957-4.27045-10.31941-9.51832-10.31941Z"/></clipPath></defs><title>p-share app icons</title><path class="cls-1" d="M-512.38992-2237.81269a2.67831,2.67831,0,0,0,2.6374,2.64531h149.35269a2.675,2.675,0,0,0,2.63741-2.64315v-168.78416a2.67638,2.67638,0,0,0-2.63741-2.64308H-509.75252a2.67637,2.67637,0,0,0-2.6374,2.64308v15.90411h5.4012a14.10983,14.10983,0,0,1,14.08042,14.11116v2.52074a14.1099,14.1099,0,0,1-14.08042,14.11116h-5.4012v22.37344h5.4012a14.10984,14.10984,0,0,1,14.08042,14.1111v2.52078a14.10987,14.10987,0,0,1-14.08042,14.11114h-5.4012v22.37343h5.4012a14.10987,14.10987,0,0,1,14.08042,14.11114v2.52078a14.10988,14.10988,0,0,1-14.08042,14.11115h-5.4012Zm-14.75959-25.28068h20.15865a4.73426,4.73426,0,0,0,4.72419-4.73448v-2.52078a4.73426,4.73426,0,0,0-4.72419-4.73449h-20.15865a4.73426,4.73426,0,0,0-4.72418,4.73449v2.52078A4.73426,4.73426,0,0,0-527.14951-2263.09337Zm0-53.11434h20.15865a4.73428,4.73428,0,0,0,4.72419-4.73449v-2.52078a4.73426,4.73426,0,0,0-4.72419-4.73448h-20.15865a4.73425,4.73425,0,0,0-4.72418,4.73448v2.52078A4.73427,4.73427,0,0,0-527.14951-2316.20771Zm0-53.1165h20.15865a4.73426,4.73426,0,0,0,4.72419-4.73447v-2.52074a4.73434,4.73434,0,0,0-4.72419-4.73458h-20.15865a4.73434,4.73434,0,0,0-4.72418,4.73458v2.52074A4.73426,4.73426,0,0,0-527.14951-2369.32421Zm178.74332,131.51152a12.02009,12.02009,0,0,1-11.99579,12.01982H-509.75466a12.01827,12.01827,0,0,1-11.99364-12.01982v-15.90187h-5.40121a14.10988,14.10988,0,0,1-14.08041-14.11115v-2.52078a14.11171,14.11171,0,0,1,14.08041-14.11329h5.40121v-22.37128h-5.40121a14.10987,14.10987,0,0,1-14.08041-14.11114v-2.52078a14.11166,14.11166,0,0,1,14.08041-14.11324h5.40121v-22.3713h-5.40121a14.1099,14.1099,0,0,1-14.08041-14.11116v-2.52074a14.11212,14.11212,0,0,1,14.08256-14.11331h5.4012v-15.9041a12.0183,12.0183,0,0,1,11.99364-12.01978h149.35269a12.01828,12.01828,0,0,1,11.99364,12.01978Zm-81.87874-89.46636a15.869,15.869,0,0,0,11.45352-15.22071,15.85678,15.85678,0,0,0-15.83912-15.83843,15.85627,15.85627,0,0,0-15.83689,15.83843A15.86779,15.86779,0,0,0-439.0559-2327.279Zm14.03135,2.21239c10.0249,4.45453,17.10432,15.14964,17.10432,27.60363v15.96833a4.77708,4.77708,0,0,1-4.57378,4.95874h-61.89277a4.7771,4.7771,0,0,1-4.57379-4.95874V-2297.463c0-12.454,7.07933-23.149,17.10333-27.60359A25.28221,25.28221,0,0,1-460.041-2342.502a25.39912,25.39912,0,0,1,25.37046-25.37153,25.39817,25.39817,0,0,1,25.37264,25.37153A25.28091,25.28091,0,0,1-416.25358-2325.06666Zm-14.98508,7.7051a25.50005,25.50005,0,0,1-3.43187.23113,25.498,25.498,0,0,1-3.43179-.23113h-4.588c-10.1193,0-18.35169,8.92754-18.35169,19.89853v11.00959h52.7452V-2297.463c0-10.971-8.23453-19.89853-18.35381-19.89853Z"/><g class="cls-2"><rect class="cls-1" x="-734.05366" y="-3404.16014" width="15329.48691" height="8227.14602"/></g><path class="cls-1" d="M-245.21441-2342.43888a1.389,1.389,0,0,0,1.36776,1.37186h77.45456a1.38725,1.38725,0,0,0,1.36776-1.37074v-87.53175a1.388,1.388,0,0,0-1.36776-1.37071h-77.45456a1.388,1.388,0,0,0-1.36776,1.37071v8.2479h2.80108a7.31738,7.31738,0,0,1,7.30212,7.31807v1.30726a7.31742,7.31742,0,0,1-7.30212,7.31807h-2.80108v11.60291h2.80108a7.31738,7.31738,0,0,1,7.30212,7.318v1.30728a7.3174,7.3174,0,0,1-7.30212,7.31807h-2.80108v11.6029h2.80108a7.3174,7.3174,0,0,1,7.30212,7.31806v1.30728a7.3174,7.3174,0,0,1-7.30212,7.31806h-2.80108Zm-7.65435-13.1106h10.45431a2.4552,2.4552,0,0,0,2.45-2.45532v-1.30727a2.45519,2.45519,0,0,0-2.45-2.45532h-10.45431a2.45519,2.45519,0,0,0-2.45,2.45532v1.30727A2.4552,2.4552,0,0,0-252.86876-2355.54948Zm0-27.54519h10.45431a2.4552,2.4552,0,0,0,2.45-2.45532v-1.30728a2.45518,2.45518,0,0,0-2.45-2.4553h-10.45431a2.45518,2.45518,0,0,0-2.45,2.4553v1.30728A2.4552,2.4552,0,0,0-252.86876-2383.09467Zm0-27.54631h10.45431a2.45518,2.45518,0,0,0,2.45-2.4553v-1.30726a2.45523,2.45523,0,0,0-2.45-2.45536h-10.45431a2.45523,2.45523,0,0,0-2.45,2.45536v1.30726A2.45518,2.45518,0,0,0-252.86876-2410.641Zm92.69659,68.2021a6.23365,6.23365,0,0,1-6.221,6.2335h-77.45455a6.23269,6.23269,0,0,1-6.21992-6.2335v-8.24674h-2.80108a7.3174,7.3174,0,0,1-7.30212-7.31806v-1.30728a7.31836,7.31836,0,0,1,7.30212-7.31918h2.80108v-11.60178h-2.80108a7.3174,7.3174,0,0,1-7.30212-7.31807v-1.30728a7.31833,7.31833,0,0,1,7.30212-7.31914h2.80108v-11.6018h-2.80108a7.31742,7.31742,0,0,1-7.30212-7.31807v-1.30726a7.31857,7.31857,0,0,1,7.30324-7.31918h2.80107v-8.2479a6.2327,6.2327,0,0,1,6.21992-6.23347h77.45456a6.2327,6.2327,0,0,1,6.21992,6.23347Zm-42.46245-46.3974a8.22972,8.22972,0,0,0,5.93981-7.89349,8.22335,8.22335,0,0,0-8.21419-8.21384,8.22309,8.22309,0,0,0-8.213,8.21384,8.22908,8.22908,0,0,0,5.93878,7.89349Zm7.27668,1.14734a15.53771,15.53771,0,0,1,8.87033,14.31529v8.28121a2.47741,2.47741,0,0,1-2.372,2.57161h-32.0977a2.47741,2.47741,0,0,1-2.372-2.57161v-8.28121a15.53806,15.53806,0,0,1,8.86981-14.31527,13.11139,13.11139,0,0,1-3.60672-9.042,13.172,13.172,0,0,1,13.15716-13.15771,13.17153,13.17153,0,0,1,13.15829,13.15771A13.1107,13.1107,0,0,1-195.35794-2387.68894Zm-7.77129,3.99588a13.22437,13.22437,0,0,1-1.77977.11987,13.22311,13.22311,0,0,1-1.77973-.11987h-2.37935c-5.24789,0-9.51722,4.62984-9.51722,10.31941v5.7096h27.35375v-5.7096c0-5.68957-4.27045-10.31941-9.51832-10.31941Z"/><g class="cls-3"><rect class="cls-1" x="-360.16959" y="-2947.30862" width="7949.89755" height="4266.61168"/></g><circle class="cls-4" cx="16" cy="16" r="16"/><path class="cls-5" d="M21.892,11.13961l-5.06922,5.06922,4.96191,4.96191a.57843.57843,0,0,1-.818.818l-4.96191-4.96191L11.13961,21.892a.57843.57843,0,0,1-.818-.818l4.86512-4.86512-5.17547-5.17546a.57843.57843,0,1,1,.818-.818l5.17547,5.17546L21.074,10.32159a.57843.57843,0,0,1,.818.818Z"/></svg>