<svg id="Layer_1" data-name="Layer 1" xmlns="http://www.w3.org/2000/svg" xmlns:xlink="http://www.w3.org/1999/xlink" viewBox="0 0 256 256"><defs><style>.cls-1{fill:#606060;}.cls-2{clip-path:url(#clip-path);}.cls-3{fill:#2775d3;}.cls-4{fill:#fff;}</style><clipPath id="clip-path"><path class="cls-1" d="M53.4281-4804.4991a2.6783,2.6783,0,0,0,2.6374,2.6453H205.4182a2.675,2.675,0,0,0,2.6374-2.6431v-168.7842a2.6764,2.6764,0,0,0-2.6374-2.6431H56.0655a2.6764,2.6764,0,0,0-2.6374,2.6431v15.9041h5.4012A14.11,14.11,0,0,1,72.91-4943.2658v2.5207a14.11,14.11,0,0,1-14.08,14.1112H53.4281v22.3734h5.4012A14.11,14.11,0,0,1,72.91-4890.1494v2.5208a14.11,14.11,0,0,1-14.08,14.1111H53.4281v22.3735h5.4012A14.11,14.11,0,0,1,72.91-4837.0329v2.5208a14.11,14.11,0,0,1-14.08,14.1111H53.4281Zm-14.76-25.2807H58.8272a4.7342,4.7342,0,0,0,4.7242-4.7344v-2.5208a4.7342,4.7342,0,0,0-4.7242-4.7345H38.6685a4.7342,4.7342,0,0,0-4.7241,4.7345v2.5208A4.7342,4.7342,0,0,0,38.6685-4829.78Zm0-53.1143H58.8272a4.7343,4.7343,0,0,0,4.7242-4.7345v-2.5208a4.7343,4.7343,0,0,0-4.7242-4.7345H38.6685a4.7343,4.7343,0,0,0-4.7241,4.7345v2.5208A4.7343,4.7343,0,0,0,38.6685-4882.8941Zm0-53.1165H58.8272a4.7342,4.7342,0,0,0,4.7242-4.7345v-2.5207A4.7343,4.7343,0,0,0,58.8272-4948H38.6685a4.7343,4.7343,0,0,0-4.7241,4.7346v2.5207A4.7342,4.7342,0,0,0,38.6685-4936.0106Zm178.7434,131.5115a12.02,12.02,0,0,1-11.9958,12.02H56.0634a12.0182,12.0182,0,0,1-11.9936-12.02v-15.9019H38.6685a14.11,14.11,0,0,1-14.08-14.1111v-2.5208a14.1118,14.1118,0,0,1,14.08-14.1133H44.07v-22.3713H38.6685a14.11,14.11,0,0,1-14.08-14.1111v-2.5208a14.1117,14.1117,0,0,1,14.08-14.1132H44.07v-22.3713H38.6685a14.11,14.11,0,0,1-14.08-14.1112v-2.5207a14.1121,14.1121,0,0,1,14.0826-14.1133h5.4012v-15.9041a12.0183,12.0183,0,0,1,11.9936-12.02H205.4182a12.0183,12.0183,0,0,1,11.9937,12.02Zm-81.8788-89.4663a15.8692,15.8692,0,0,0,11.4535-15.2208,15.8567,15.8567,0,0,0-15.8391-15.8384,15.8563,15.8563,0,0,0-15.8369,15.8384,15.8679,15.8679,0,0,0,11.4516,15.2208Zm14.0314,2.2123c10.0249,4.4546,17.1043,15.15,17.1043,27.6037v15.9683a4.777,4.777,0,0,1-4.5738,4.9587H100.2022a4.777,4.777,0,0,1-4.5737-4.9587v-15.9683c0-12.454,7.0793-23.1491,17.1033-27.6036a25.2824,25.2824,0,0,1-6.9547-17.4354,25.3991,25.3991,0,0,1,25.37-25.3715,25.3982,25.3982,0,0,1,25.3727,25.3715A25.2806,25.2806,0,0,1,149.5645-4891.7531Zm-14.9851,7.7051a25.4864,25.4864,0,0,1-3.4319.2312,25.4849,25.4849,0,0,1-3.4318-.2312h-4.588c-10.1193,0-18.3517,8.9276-18.3517,19.8986v11.01h52.7452v-11.01c0-10.971-8.2345-19.8986-18.3538-19.8986Z"/></clipPath></defs><title>p-share app icons</title><path class="cls-1" d="M53.4281-4804.4991a2.6783,2.6783,0,0,0,2.6374,2.6453H205.4182a2.675,2.675,0,0,0,2.6374-2.6431v-168.7842a2.6764,2.6764,0,0,0-2.6374-2.6431H56.0655a2.6764,2.6764,0,0,0-2.6374,2.6431v15.9041h5.4012A14.11,14.11,0,0,1,72.91-4943.2658v2.5207a14.11,14.11,0,0,1-14.08,14.1112H53.4281v22.3734h5.4012A14.11,14.11,0,0,1,72.91-4890.1494v2.5208a14.11,14.11,0,0,1-14.08,14.1111H53.4281v22.3735h5.4012A14.11,14.11,0,0,1,72.91-4837.0329v2.5208a14.11,14.11,0,0,1-14.08,14.1111H53.4281Zm-14.76-25.2807H58.8272a4.7342,4.7342,0,0,0,4.7242-4.7344v-2.5208a4.7342,4.7342,0,0,0-4.7242-4.7345H38.6685a4.7342,4.7342,0,0,0-4.7241,4.7345v2.5208A4.7342,4.7342,0,0,0,38.6685-4829.78Zm0-53.1143H58.8272a4.7343,4.7343,0,0,0,4.7242-4.7345v-2.5208a4.7343,4.7343,0,0,0-4.7242-4.7345H38.6685a4.7343,4.7343,0,0,0-4.7241,4.7345v2.5208A4.7343,4.7343,0,0,0,38.6685-4882.8941Zm0-53.1165H58.8272a4.7342,4.7342,0,0,0,4.7242-4.7345v-2.5207A4.7343,4.7343,0,0,0,58.8272-4948H38.6685a4.7343,4.7343,0,0,0-4.7241,4.7346v2.5207A4.7342,4.7342,0,0,0,38.6685-4936.0106Zm178.7434,131.5115a12.02,12.02,0,0,1-11.9958,12.02H56.0634a12.0182,12.0182,0,0,1-11.9936-12.02v-15.9019H38.6685a14.11,14.11,0,0,1-14.08-14.1111v-2.5208a14.1118,14.1118,0,0,1,14.08-14.1133H44.07v-22.3713H38.6685a14.11,14.11,0,0,1-14.08-14.1111v-2.5208a14.1117,14.1117,0,0,1,14.08-14.1132H44.07v-22.3713H38.6685a14.11,14.11,0,0,1-14.08-14.1112v-2.5207a14.1121,14.1121,0,0,1,14.0826-14.1133h5.4012v-15.9041a12.0183,12.0183,0,0,1,11.9936-12.02H205.4182a12.0183,12.0183,0,0,1,11.9937,12.02Zm-81.8788-89.4663a15.8692,15.8692,0,0,0,11.4535-15.2208,15.8567,15.8567,0,0,0-15.8391-15.8384,15.8563,15.8563,0,0,0-15.8369,15.8384,15.8679,15.8679,0,0,0,11.4516,15.2208Zm14.0314,2.2123c10.0249,4.4546,17.1043,15.15,17.1043,27.6037v15.9683a4.777,4.777,0,0,1-4.5738,4.9587H100.2022a4.777,4.777,0,0,1-4.5737-4.9587v-15.9683c0-12.454,7.0793-23.1491,17.1033-27.6036a25.2824,25.2824,0,0,1-6.9547-17.4354,25.3991,25.3991,0,0,1,25.37-25.3715,25.3982,25.3982,0,0,1,25.3727,25.3715A25.2806,25.2806,0,0,1,149.5645-4891.7531Zm-14.9851,7.7051a25.4864,25.4864,0,0,1-3.4319.2312,25.4849,25.4849,0,0,1-3.4318-.2312h-4.588c-10.1193,0-18.3517,8.9276-18.3517,19.8986v11.01h52.7452v-11.01c0-10.971-8.2345-19.8986-18.3538-19.8986Z"/><g class="cls-2"><rect class="cls-1" x="-168.2356" y="-5970.8465" width="15329.4869" height="8227.146"/></g><path class="cls-3" d="M21.85,128A103.62,103.62,0,1,1,125.47,231.62,103.7371,103.7371,0,0,1,21.85,128Z"/><path class="cls-4" d="M161.9516,155.1467h-22.02l26.57-26.57a8.2886,8.2886,0,1,0-11.7221-11.7217l-21.5585,21.5586V76.03a7.7738,7.7738,0,0,0-7.7506-7.751h0A7.7739,7.7739,0,0,0,117.72,76.03v62.39L96.161,116.8552a8.2886,8.2886,0,1,0-11.7221,11.7217l26.5646,26.57H88.9888a7.7508,7.7508,0,1,0,0,15.5015h72.9628a7.7508,7.7508,0,0,0,0-15.5015Z"/></svg>