<svg id="Layer_1" data-name="Layer 1" xmlns="http://www.w3.org/2000/svg" xmlns:xlink="http://www.w3.org/1999/xlink" viewBox="0 0 32 32"><defs><style>.cls-1{fill:#606060;}.cls-2{fill:#fff;}.cls-3{clip-path:url(#clip-path);}.cls-4{clip-path:url(#clip-path-2);}.cls-5{clip-path:url(#clip-path-3);}.cls-6{clip-path:url(#clip-path-4);}.cls-7{clip-path:url(#clip-path-5);}.cls-8{clip-path:url(#clip-path-6);}.cls-9{clip-path:url(#clip-path-7);}.cls-10{clip-path:url(#clip-path-8);}.cls-11{clip-path:url(#clip-path-9);}.cls-12{clip-path:url(#clip-path-10);}.cls-13{clip-path:url(#clip-path-11);}.cls-14{clip-path:url(#clip-path-12);}.cls-15{clip-path:url(#clip-path-13);}</style><clipPath id="clip-path"><path class="cls-1" d="M-818.39656,930.27942a7.27111,7.27111,0,0,1-7.27273-7.27272,7.27111,7.27111,0,0,1,7.27273-7.27273,7.2711,7.2711,0,0,1,7.27273,7.27273A7.2711,7.2711,0,0,1-818.39656,930.27942Zm14.65987-5.55911-.95945-.9892a12.389,12.389,0,0,0,0-2.87907l.95945-.9831c.57245-.58314,1.59906-1.35558,1.27924-2.09138l-1.31442-3.05309c-.31982-.73579-1.62464-.58314-2.45935-.61063l-1.41677-.04885a13.53112,13.53112,0,0,0-2.12355-2.03336l-.04477-1.35253c-.02559-.7938.13751-2.04251-.63962-2.34782l-3.19813-1.267c-.76754-.30531-1.58307.68695-2.1907,1.22124l-1.033.91594a14.2292,14.2292,0,0,0-3.019,0l-1.0266-.91594c-.60764-.54345-1.42-1.52655-2.19071-1.22124l-3.19811,1.25482c-.77075.30531-.60764,1.554-.63963,2.34784l-.05117,1.34947a13.53635,13.53635,0,0,0-2.13314,2.03031l-1.41357.04274c-.83151.02442-2.13954-.13128-2.45935.61062l-1.32722,3.0531c-.31981.73274.71958,1.50823,1.27925,2.08832l.95943.98615a12.38875,12.38875,0,0,0,0,2.88212l-.95943.9831c-.56927.58009-1.59906,1.35252-1.27925,2.08832l1.31443,3.0531c.31981.73579,1.62784.58314,2.46255.61062l1.41037.04579a13.53005,13.53005,0,0,0,2.12994,2.03947l.04158,1.34642c.02558.79381-.13752,2.04558.63962,2.35089l3.19812,1.267c.76755.30531,1.57987-.687,2.18751-1.22124l1.03619-.91593a14.234,14.234,0,0,0,3.01263,0l1.02979.91593c.61084.54651,1.41676,1.52655,2.18751,1.22124l3.19812-1.25482c.77075-.30531.61084-1.551.63962-2.35089l.048-1.34947A13.537,13.537,0,0,0-807.664,930.509l1.41356-.04274c.83152-.02443,2.14275.13128,2.46256-.61062l1.32721-3.0531C-802.128,926.082-803.17062,925.3065-803.73669,924.72031Z"/></clipPath><clipPath id="clip-path-2"><path class="cls-2" d="M-512.38992-98.85846a2.67831,2.67831,0,0,0,2.6374,2.64531h149.35269a2.675,2.675,0,0,0,2.63741-2.64316V-267.64046a2.67639,2.67639,0,0,0-2.63741-2.64309H-509.75252a2.67638,2.67638,0,0,0-2.6374,2.64309v15.9041h5.4012a14.10984,14.10984,0,0,1,14.08042,14.11117v2.52074a14.1099,14.1099,0,0,1-14.08042,14.11116h-5.4012v22.37344h5.4012a14.10984,14.10984,0,0,1,14.08042,14.1111v2.52077a14.10987,14.10987,0,0,1-14.08042,14.11114h-5.4012v22.37344h5.4012a14.10987,14.10987,0,0,1,14.08042,14.11114v2.52078a14.10988,14.10988,0,0,1-14.08042,14.11115h-5.4012Zm-14.75959-25.28068h20.15865a4.73427,4.73427,0,0,0,4.72419-4.73449v-2.52077a4.73426,4.73426,0,0,0-4.72419-4.73449h-20.15865a4.73426,4.73426,0,0,0-4.72418,4.73449v2.52077A4.73427,4.73427,0,0,0-527.14951-124.13914Zm0-53.11435h20.15865a4.73427,4.73427,0,0,0,4.72419-4.73449v-2.52077a4.73426,4.73426,0,0,0-4.72419-4.73448h-20.15865a4.73425,4.73425,0,0,0-4.72418,4.73448v2.52077A4.73427,4.73427,0,0,0-527.14951-177.25349Zm0-53.1165h20.15865a4.73425,4.73425,0,0,0,4.72419-4.73446v-2.52074a4.73434,4.73434,0,0,0-4.72419-4.73458h-20.15865a4.73434,4.73434,0,0,0-4.72418,4.73458v2.52074A4.73425,4.73425,0,0,0-527.14951-230.37ZM-348.40619-98.85846A12.0201,12.0201,0,0,1-360.402-86.83864H-509.75466A12.01827,12.01827,0,0,1-521.7483-98.85846v-15.90187h-5.40121a14.10988,14.10988,0,0,1-14.08041-14.11115v-2.52078a14.11172,14.11172,0,0,1,14.08041-14.1133h5.40121v-22.37128h-5.40121A14.10987,14.10987,0,0,1-541.22992-181.988v-2.52077A14.11166,14.11166,0,0,1-527.14951-198.622h5.40121v-22.3713h-5.40121a14.1099,14.1099,0,0,1-14.08041-14.11116v-2.52074a14.11212,14.11212,0,0,1,14.08256-14.11331h5.4012v-15.90411a12.01829,12.01829,0,0,1,11.99364-12.01977h149.35269a12.01828,12.01828,0,0,1,11.99364,12.01977Zm-81.87874-89.46636a15.869,15.869,0,0,0,11.45352-15.22071A15.85679,15.85679,0,0,0-434.67053-219.384a15.85627,15.85627,0,0,0-15.83689,15.83844,15.86779,15.86779,0,0,0,11.45152,15.22071Zm14.03135,2.21238c10.0249,4.45454,17.10432,15.14965,17.10432,27.60364v15.96833a4.77708,4.77708,0,0,1-4.57378,4.95874h-61.89277a4.77711,4.77711,0,0,1-4.57379-4.95874V-158.5088c0-12.45395,7.07933-23.149,17.10333-27.6036a25.28216,25.28216,0,0,1-6.95472-17.43538,25.39912,25.39912,0,0,1,25.37046-25.37153,25.39817,25.39817,0,0,1,25.37264,25.37153A25.28087,25.28087,0,0,1-416.25358-186.11244Zm-14.98508,7.70511a25.50169,25.50169,0,0,1-3.43187.23113,25.49962,25.49962,0,0,1-3.43179-.23113h-4.588c-10.1193,0-18.35169,8.92754-18.35169,19.89853v11.00959h52.7452V-158.5088c0-10.971-8.23453-19.89853-18.35381-19.89853Z"/></clipPath><clipPath id="clip-path-3"><path class="cls-2" d="M-245.21441-203.48465a1.389,1.389,0,0,0,1.36776,1.37186h77.45456a1.38726,1.38726,0,0,0,1.36776-1.37075v-87.53174a1.388,1.388,0,0,0-1.36776-1.37071h-77.45456a1.388,1.388,0,0,0-1.36776,1.37071v8.24789h2.80108a7.31739,7.31739,0,0,1,7.30212,7.31808v1.30726a7.31742,7.31742,0,0,1-7.30212,7.31807h-2.80108v11.60291h2.80108a7.31738,7.31738,0,0,1,7.30212,7.318v1.30728a7.3174,7.3174,0,0,1-7.30212,7.31806h-2.80108v11.6029h2.80108a7.3174,7.3174,0,0,1,7.30212,7.31806v1.30728a7.3174,7.3174,0,0,1-7.30212,7.31807h-2.80108Zm-7.65435-13.11061h10.45431a2.45519,2.45519,0,0,0,2.45-2.45531v-1.30728a2.45519,2.45519,0,0,0-2.45-2.45531h-10.45431a2.45519,2.45519,0,0,0-2.45,2.45531v1.30728A2.45519,2.45519,0,0,0-252.86876-216.59526Zm0-27.54518h10.45431a2.4552,2.4552,0,0,0,2.45-2.45532V-247.903a2.45519,2.45519,0,0,0-2.45-2.45531h-10.45431a2.45519,2.45519,0,0,0-2.45,2.45531v1.30728A2.4552,2.4552,0,0,0-252.86876-244.14044Zm0-27.54631h10.45431a2.45519,2.45519,0,0,0,2.45-2.4553v-1.30726a2.45523,2.45523,0,0,0-2.45-2.45536h-10.45431a2.45523,2.45523,0,0,0-2.45,2.45536v1.30726A2.45519,2.45519,0,0,0-252.86876-271.68675Zm92.69659,68.2021a6.23365,6.23365,0,0,1-6.221,6.2335h-77.45455a6.23269,6.23269,0,0,1-6.21992-6.2335v-8.24674h-2.80108a7.3174,7.3174,0,0,1-7.30212-7.31807v-1.30728a7.31835,7.31835,0,0,1,7.30212-7.31917h2.80108V-239.2777h-2.80108a7.3174,7.3174,0,0,1-7.30212-7.31806V-247.903a7.31834,7.31834,0,0,1,7.30212-7.31915h2.80108V-266.824h-2.80108a7.31742,7.31742,0,0,1-7.30212-7.31807v-1.30726a7.31857,7.31857,0,0,1,7.30324-7.31919h2.80107v-8.24789a6.23271,6.23271,0,0,1,6.21992-6.23348h77.45456a6.2327,6.2327,0,0,1,6.21992,6.23348Zm-42.46245-46.39741a8.2297,8.2297,0,0,0,5.93981-7.89348,8.22335,8.22335,0,0,0-8.21419-8.21384,8.22309,8.22309,0,0,0-8.213,8.21384,8.22905,8.22905,0,0,0,5.93878,7.89348Zm7.27668,1.14735a15.5377,15.5377,0,0,1,8.87033,14.31529v8.2812a2.4774,2.4774,0,0,1-2.372,2.57161h-32.0977a2.47741,2.47741,0,0,1-2.372-2.57161v-8.2812a15.53806,15.53806,0,0,1,8.86981-14.31527,13.11139,13.11139,0,0,1-3.60672-9.042A13.172,13.172,0,0,1-204.909-270.93443a13.17154,13.17154,0,0,1,13.15829,13.15772A13.1107,13.1107,0,0,1-195.35794-248.73471Zm-7.77129,3.99588a13.22437,13.22437,0,0,1-1.77977.11987,13.22311,13.22311,0,0,1-1.77973-.11987h-2.37935c-5.24789,0-9.51722,4.62984-9.51722,10.31941v5.70959h27.35375v-5.70959c0-5.68957-4.27045-10.31941-9.51832-10.31941Z"/></clipPath><clipPath id="clip-path-4"><path class="cls-2" d="M-87.90262-259.09108a.63979.63979,0,0,0,.63.63191h35.67712a.639.639,0,0,0,.63-.63139v-40.31888a.63933.63933,0,0,0-.63-.63138H-87.2726a.63933.63933,0,0,0-.63.63138v3.79914h1.29023a3.37054,3.37054,0,0,1,3.36351,3.37086v.60215a3.37055,3.37055,0,0,1-3.36351,3.37085h-1.29023v5.34453h1.29023a3.37053,3.37053,0,0,1,3.36351,3.37083v.60216a3.37054,3.37054,0,0,1-3.36351,3.37085h-1.29023v5.34453h1.29023a3.37054,3.37054,0,0,1,3.36351,3.37084v.60216a3.37054,3.37054,0,0,1-3.36351,3.37085h-1.29023Zm-3.52574-6.039h4.81546a1.13092,1.13092,0,0,0,1.12851-1.131v-.60216a1.13092,1.13092,0,0,0-1.12851-1.131h-4.81546a1.13092,1.13092,0,0,0-1.12851,1.131v.60216A1.13092,1.13092,0,0,0-91.42836-265.13008Zm0-12.68787h4.81546a1.13092,1.13092,0,0,0,1.12851-1.131v-.60216a1.13091,1.13091,0,0,0-1.12851-1.131h-4.81546a1.13091,1.13091,0,0,0-1.12851,1.131v.60216A1.13092,1.13092,0,0,0-91.42836-277.81795Zm0-12.68838h4.81546a1.13092,1.13092,0,0,0,1.12851-1.131v-.60215a1.13094,1.13094,0,0,0-1.12851-1.131h-4.81546a1.13094,1.13094,0,0,0-1.12851,1.131v.60215A1.13092,1.13092,0,0,0-91.42836-290.50633Zm42.6979,31.41525A2.87134,2.87134,0,0,1-51.596-256.2198H-87.27311a2.87091,2.87091,0,0,1-2.865-2.87128v-3.79861h-1.29023a3.37055,3.37055,0,0,1-3.36351-3.37085v-.60216a3.371,3.371,0,0,1,3.36351-3.37136h1.29023v-5.344h-1.29023a3.37055,3.37055,0,0,1-3.36351-3.37085v-.60216a3.371,3.371,0,0,1,3.36351-3.37134h1.29023v-5.344h-1.29023a3.37056,3.37056,0,0,1-3.36351-3.37085v-.60215a3.37109,3.37109,0,0,1,3.364-3.37137h1.29023v-3.79914a2.87091,2.87091,0,0,1,2.865-2.87127h35.67712a2.87091,2.87091,0,0,1,2.865,2.87127Zm-19.55905-21.37157a3.79076,3.79076,0,0,0,2.736-3.6359,3.78784,3.78784,0,0,0-3.78362-3.78346,3.78772,3.78772,0,0,0-3.78309,3.78346,3.79048,3.79048,0,0,0,2.73552,3.6359Zm3.35178.52849a7.157,7.157,0,0,1,4.08585,6.59391v3.81449a1.14113,1.14113,0,0,1-1.09257,1.18453H-76.7293a1.14114,1.14114,0,0,1-1.09257-1.18453v-3.81449a7.15712,7.15712,0,0,1,4.08561-6.5939,6.03939,6.03939,0,0,1-1.66133-4.16494,6.0673,6.0673,0,0,1,6.06045-6.06071,6.06707,6.06707,0,0,1,6.061,6.06071A6.03908,6.03908,0,0,1-64.93773-279.93416Zm-3.57961,1.84058a6.09087,6.09087,0,0,1-.8198.05521,6.09058,6.09058,0,0,1-.81978-.05521h-1.096a4.58516,4.58516,0,0,0-4.38383,4.75333v2.63H-63.037v-2.63a4.58556,4.58556,0,0,0-4.38433-4.75333Z"/></clipPath><clipPath id="clip-path-5"><path class="cls-2" d="M7.49145-285.87291a.29761.29761,0,0,0,.29307.29394h16.596a.29725.29725,0,0,0,.29307-.29371v-18.75519a.2974.2974,0,0,0-.29307-.2937H7.78452a.2974.2974,0,0,0-.29307.2937v1.76725h.60018a1.56788,1.56788,0,0,1,1.56461,1.568v.2801a1.56788,1.56788,0,0,1-1.56461,1.568H7.49145v2.48613h.60018a1.56788,1.56788,0,0,1,1.56461,1.568v.28011a1.56788,1.56788,0,0,1-1.56461,1.568H7.49145v2.48613h.60018a1.56788,1.56788,0,0,1,1.56461,1.568v.28011a1.56788,1.56788,0,0,1-1.56461,1.568H7.49145Zm-1.64007-2.80918h2.24a.52607.52607,0,0,0,.52495-.52609v-.28011a.52606.52606,0,0,0-.52495-.52609h-2.24a.52606.52606,0,0,0-.52495.52609v.28011A.52607.52607,0,0,0,5.85138-288.68209Zm0-5.902h2.24a.52607.52607,0,0,0,.52495-.5261v-.28011a.52607.52607,0,0,0-.52495-.52609h-2.24a.52607.52607,0,0,0-.52495.52609v.28011A.52607.52607,0,0,0,5.85138-294.58412Zm0-5.90228h2.24a.52606.52606,0,0,0,.52495-.52609v-.2801a.52608.52608,0,0,0-.52495-.52611h-2.24a.52608.52608,0,0,0-.52495.52611v.2801A.52606.52606,0,0,0,5.85138-300.4864Zm19.86185,14.61349a1.33566,1.33566,0,0,1-1.333,1.33563H7.78428a1.33545,1.33545,0,0,1-1.33272-1.33563v-1.767H5.85138a1.56788,1.56788,0,0,1-1.56461-1.568v-.28011a1.56808,1.56808,0,0,1,1.56461-1.56826h.60018v-2.48589H5.85138a1.56788,1.56788,0,0,1-1.56461-1.568v-.28011a1.56808,1.56808,0,0,1,1.56461-1.56825h.60018v-2.48589H5.85138a1.56788,1.56788,0,0,1-1.56461-1.568v-.2801a1.56814,1.56814,0,0,1,1.56485-1.56827h.60017v-1.76725a1.33547,1.33547,0,0,1,1.33273-1.33563h16.596a1.33547,1.33547,0,0,1,1.33273,1.33563Zm-9.09832-9.94145a1.76337,1.76337,0,0,0,1.27271-1.69132,1.762,1.762,0,0,0-1.76-1.76,1.76194,1.76194,0,0,0-1.75979,1.76,1.76324,1.76324,0,0,0,1.27249,1.69132Zm1.55916.24583a3.32923,3.32923,0,0,1,1.90062,3.0673v1.7744a.53083.53083,0,0,1-.50824.551H12.689a.53083.53083,0,0,1-.50824-.551v-1.7744a3.3293,3.3293,0,0,1,1.90051-3.06729,2.80936,2.80936,0,0,1-.7728-1.93741,2.82233,2.82233,0,0,1,2.81915-2.81927,2.82223,2.82223,0,0,1,2.81939,2.81927A2.8092,2.8092,0,0,1,18.17407-295.56853Zm-1.66514.85619a2.83266,2.83266,0,0,1-.38134.02568,2.83255,2.83255,0,0,1-.38134-.02568h-.50982a2.13288,2.13288,0,0,0-2.03923,2.21111v1.22338h5.861v-1.22338a2.13307,2.13307,0,0,0-2.03947-2.21111Z"/></clipPath><clipPath id="clip-path-6"><path class="cls-1" d="M-1346.78648-98.85846a2.67831,2.67831,0,0,0,2.6374,2.64531h149.35269a2.675,2.675,0,0,0,2.63741-2.64316V-267.64046a2.67639,2.67639,0,0,0-2.63741-2.64309h-149.35269a2.67638,2.67638,0,0,0-2.6374,2.64309v15.9041h5.40121a14.10983,14.10983,0,0,1,14.08041,14.11117v2.52074a14.1099,14.1099,0,0,1-14.08041,14.11116h-5.40121v22.37344h5.40121a14.10983,14.10983,0,0,1,14.08041,14.1111v2.52077a14.10986,14.10986,0,0,1-14.08041,14.11114h-5.40121v22.37344h5.40121a14.10987,14.10987,0,0,1,14.08041,14.11114v2.52078a14.10988,14.10988,0,0,1-14.08041,14.11115h-5.40121Zm-14.75959-25.28068h20.15865a4.73427,4.73427,0,0,0,4.72419-4.73449v-2.52077a4.73426,4.73426,0,0,0-4.72419-4.73449h-20.15865a4.73426,4.73426,0,0,0-4.72418,4.73449v2.52077A4.73427,4.73427,0,0,0-1361.54607-124.13914Zm0-53.11435h20.15865a4.73427,4.73427,0,0,0,4.72419-4.73449v-2.52077a4.73426,4.73426,0,0,0-4.72419-4.73448h-20.15865a4.73425,4.73425,0,0,0-4.72418,4.73448v2.52077A4.73427,4.73427,0,0,0-1361.54607-177.25349Zm0-53.1165h20.15865a4.73425,4.73425,0,0,0,4.72419-4.73446v-2.52074a4.73434,4.73434,0,0,0-4.72419-4.73458h-20.15865a4.73434,4.73434,0,0,0-4.72418,4.73458v2.52074A4.73425,4.73425,0,0,0-1361.54607-230.37Zm178.74332,131.51153a12.0201,12.0201,0,0,1-11.99578,12.01982h-149.35269a12.01827,12.01827,0,0,1-11.99364-12.01982v-15.90187h-5.40121a14.10989,14.10989,0,0,1-14.08041-14.11115v-2.52078a14.11172,14.11172,0,0,1,14.08041-14.1133h5.40121v-22.37128h-5.40121a14.10987,14.10987,0,0,1-14.08041-14.11114v-2.52077a14.11167,14.11167,0,0,1,14.08041-14.11324h5.40121v-22.3713h-5.40121a14.10991,14.10991,0,0,1-14.08041-14.11116v-2.52074a14.11213,14.11213,0,0,1,14.08256-14.11331h5.4012v-15.90411a12.01829,12.01829,0,0,1,11.99364-12.01977h149.35269a12.01828,12.01828,0,0,1,11.99364,12.01977Zm-81.87874-89.46636a15.869,15.869,0,0,0,11.45352-15.22071,15.85679,15.85679,0,0,0-15.83912-15.83844,15.85627,15.85627,0,0,0-15.83689,15.83844,15.86779,15.86779,0,0,0,11.45152,15.22071Zm14.03135,2.21238c10.02491,4.45454,17.10432,15.14965,17.10432,27.60364v15.96833a4.77708,4.77708,0,0,1-4.57378,4.95874h-61.89277a4.77711,4.77711,0,0,1-4.57379-4.95874V-158.5088c0-12.45395,7.07933-23.149,17.10333-27.6036a25.28216,25.28216,0,0,1-6.95472-17.43538,25.39913,25.39913,0,0,1,25.37046-25.37153,25.39817,25.39817,0,0,1,25.37264,25.37153A25.28087,25.28087,0,0,1-1250.65014-186.11244Zm-14.98508,7.70511a25.50169,25.50169,0,0,1-3.43187.23113,25.49936,25.49936,0,0,1-3.43178-.23113h-4.588c-10.1193,0-18.3517,8.92754-18.3517,19.89853v11.00959h52.74521V-158.5088c0-10.971-8.23454-19.89853-18.35382-19.89853Z"/></clipPath><clipPath id="clip-path-7"><path class="cls-1" d="M-1079.611-203.48465a1.389,1.389,0,0,0,1.36776,1.37186h77.45456a1.38726,1.38726,0,0,0,1.36776-1.37075v-87.53174a1.388,1.388,0,0,0-1.36776-1.37071h-77.45456a1.388,1.388,0,0,0-1.36776,1.37071v8.24789h2.80108a7.3174,7.3174,0,0,1,7.30213,7.31808v1.30726a7.31743,7.31743,0,0,1-7.30213,7.31807h-2.80108v11.60291h2.80108a7.31739,7.31739,0,0,1,7.30213,7.318v1.30728a7.3174,7.3174,0,0,1-7.30213,7.31806h-2.80108v11.6029h2.80108a7.31741,7.31741,0,0,1,7.30213,7.31806v1.30728a7.31741,7.31741,0,0,1-7.30213,7.31807h-2.80108Zm-7.65434-13.11061h10.45431a2.4552,2.4552,0,0,0,2.45-2.45531v-1.30728a2.4552,2.4552,0,0,0-2.45-2.45531h-10.45431a2.45519,2.45519,0,0,0-2.45,2.45531v1.30728A2.45519,2.45519,0,0,0-1087.26531-216.59526Zm0-27.54518h10.45431a2.45521,2.45521,0,0,0,2.45-2.45532V-247.903a2.4552,2.4552,0,0,0-2.45-2.45531h-10.45431a2.45519,2.45519,0,0,0-2.45,2.45531v1.30728A2.4552,2.4552,0,0,0-1087.26531-244.14044Zm0-27.54631h10.45431a2.4552,2.4552,0,0,0,2.45-2.4553v-1.30726a2.45524,2.45524,0,0,0-2.45-2.45536h-10.45431a2.45523,2.45523,0,0,0-2.45,2.45536v1.30726A2.45519,2.45519,0,0,0-1087.26531-271.68675Zm92.69658,68.2021a6.23365,6.23365,0,0,1-6.221,6.2335h-77.45456a6.2327,6.2327,0,0,1-6.21992-6.2335v-8.24674h-2.80107a7.31741,7.31741,0,0,1-7.30213-7.31807v-1.30728a7.31836,7.31836,0,0,1,7.30213-7.31917h2.80107V-239.2777h-2.80107a7.3174,7.3174,0,0,1-7.30213-7.31806V-247.903a7.31834,7.31834,0,0,1,7.30213-7.31915h2.80107V-266.824h-2.80107a7.31742,7.31742,0,0,1-7.30213-7.31807v-1.30726a7.31857,7.31857,0,0,1,7.30324-7.31919h2.80107v-8.24789a6.23271,6.23271,0,0,1,6.21992-6.23348h77.45456a6.2327,6.2327,0,0,1,6.21992,6.23348Zm-42.46245-46.39741a8.2297,8.2297,0,0,0,5.93981-7.89348,8.22335,8.22335,0,0,0-8.21419-8.21384,8.22309,8.22309,0,0,0-8.213,8.21384,8.22905,8.22905,0,0,0,5.93878,7.89348Zm7.27668,1.14735a15.5377,15.5377,0,0,1,8.87033,14.31529v8.2812a2.47739,2.47739,0,0,1-2.372,2.57161h-32.0977a2.47741,2.47741,0,0,1-2.372-2.57161v-8.2812a15.538,15.538,0,0,1,8.86982-14.31527,13.11135,13.11135,0,0,1-3.60673-9.042,13.172,13.172,0,0,1,13.15716-13.15772,13.17154,13.17154,0,0,1,13.15829,13.15772A13.1107,13.1107,0,0,1-1029.7545-248.73471Zm-7.77129,3.99588a13.22426,13.22426,0,0,1-1.77977.11987,13.22322,13.22322,0,0,1-1.77973-.11987h-2.37935c-5.24789,0-9.51722,4.62984-9.51722,10.31941v5.70959h27.35375v-5.70959c0-5.68957-4.27044-10.31941-9.51832-10.31941Z"/></clipPath><clipPath id="clip-path-8"><path class="cls-1" d="M-922.29918-259.09108a.63979.63979,0,0,0,.63.63191H-885.992a.639.639,0,0,0,.63-.63139v-40.31888a.63933.63933,0,0,0-.63-.63138h-35.67713a.63934.63934,0,0,0-.63.63138v3.79914h1.29024a3.37054,3.37054,0,0,1,3.3635,3.37086v.60215a3.37055,3.37055,0,0,1-3.3635,3.37085h-1.29024v5.34453h1.29024a3.37052,3.37052,0,0,1,3.3635,3.37083v.60216a3.37054,3.37054,0,0,1-3.3635,3.37085h-1.29024v5.34453h1.29024a3.37053,3.37053,0,0,1,3.3635,3.37084v.60216a3.37054,3.37054,0,0,1-3.3635,3.37085h-1.29024Zm-3.52574-6.039h4.81546a1.13091,1.13091,0,0,0,1.12851-1.131v-.60216a1.13091,1.13091,0,0,0-1.12851-1.131h-4.81546a1.13091,1.13091,0,0,0-1.1285,1.131v.60216A1.13091,1.13091,0,0,0-925.82492-265.13008Zm0-12.68787h4.81546a1.13091,1.13091,0,0,0,1.12851-1.131v-.60216a1.1309,1.1309,0,0,0-1.12851-1.131h-4.81546a1.1309,1.1309,0,0,0-1.1285,1.131v.60216A1.13091,1.13091,0,0,0-925.82492-277.81795Zm0-12.68838h4.81546a1.13091,1.13091,0,0,0,1.12851-1.131v-.60215a1.13093,1.13093,0,0,0-1.12851-1.131h-4.81546a1.13093,1.13093,0,0,0-1.1285,1.131v.60215A1.13091,1.13091,0,0,0-925.82492-290.50633Zm42.69791,31.41525a2.87135,2.87135,0,0,1-2.86554,2.87128h-35.67712a2.87091,2.87091,0,0,1-2.865-2.87128v-3.79861h-1.29023a3.37055,3.37055,0,0,1-3.36351-3.37085v-.60216a3.371,3.371,0,0,1,3.36351-3.37136h1.29023v-5.344h-1.29023a3.37055,3.37055,0,0,1-3.36351-3.37085v-.60216a3.371,3.371,0,0,1,3.36351-3.37134h1.29023v-5.344h-1.29023a3.37056,3.37056,0,0,1-3.36351-3.37085v-.60215a3.37109,3.37109,0,0,1,3.364-3.37137h1.29023v-3.79914a2.87091,2.87091,0,0,1,2.865-2.87127H-885.992a2.87092,2.87092,0,0,1,2.865,2.87127Zm-19.55906-21.37157a3.79077,3.79077,0,0,0,2.736-3.6359,3.78785,3.78785,0,0,0-3.78363-3.78346,3.78773,3.78773,0,0,0-3.78309,3.78346,3.79048,3.79048,0,0,0,2.73552,3.6359Zm3.35179.52849a7.157,7.157,0,0,1,4.08585,6.59391v3.81449a1.14114,1.14114,0,0,1-1.09258,1.18453h-14.78484a1.14115,1.14115,0,0,1-1.09258-1.18453v-3.81449a7.15714,7.15714,0,0,1,4.08561-6.5939,6.03939,6.03939,0,0,1-1.66133-4.16494,6.0673,6.0673,0,0,1,6.06045-6.06071,6.06707,6.06707,0,0,1,6.061,6.06071A6.03911,6.03911,0,0,1-899.33428-279.93416Zm-3.57962,1.84058a6.09087,6.09087,0,0,1-.8198.05521,6.09058,6.09058,0,0,1-.81978-.05521h-1.096a4.58516,4.58516,0,0,0-4.38382,4.75333v2.63h12.59968v-2.63a4.58556,4.58556,0,0,0-4.38433-4.75333Z"/></clipPath><clipPath id="clip-path-9"><path class="cls-1" d="M-826.9051-285.87291a.2976.2976,0,0,0,.29306.29394h16.596a.29724.29724,0,0,0,.29306-.29371v-18.75519a.2974.2974,0,0,0-.29306-.2937h-16.596a.2974.2974,0,0,0-.29306.2937v1.76725h.60017a1.56787,1.56787,0,0,1,1.56461,1.568v.2801a1.56788,1.56788,0,0,1-1.56461,1.568h-.60017v2.48613h.60017a1.56787,1.56787,0,0,1,1.56461,1.568v.28011a1.56788,1.56788,0,0,1-1.56461,1.568h-.60017v2.48613h.60017a1.56787,1.56787,0,0,1,1.56461,1.568v.28011a1.56788,1.56788,0,0,1-1.56461,1.568h-.60017Zm-1.64008-2.80918h2.24a.52607.52607,0,0,0,.52494-.52609v-.28011a.52606.52606,0,0,0-.52494-.52609h-2.24a.52606.52606,0,0,0-.52495.52609v.28011A.52607.52607,0,0,0-828.54518-288.68209Zm0-5.902h2.24a.52607.52607,0,0,0,.52494-.5261v-.28011a.52607.52607,0,0,0-.52494-.52609h-2.24a.52607.52607,0,0,0-.52495.52609v.28011A.52607.52607,0,0,0-828.54518-294.58412Zm0-5.90228h2.24a.52606.52606,0,0,0,.52494-.52609v-.2801a.52608.52608,0,0,0-.52494-.52611h-2.24a.52608.52608,0,0,0-.52495.52611v.2801A.52606.52606,0,0,0-828.54518-300.4864Zm19.86185,14.61349a1.33566,1.33566,0,0,1-1.333,1.33563h-16.596a1.33546,1.33546,0,0,1-1.33272-1.33563v-1.767h-.60018a1.56788,1.56788,0,0,1-1.56461-1.568v-.28011a1.56808,1.56808,0,0,1,1.56461-1.56826h.60018v-2.48589h-.60018a1.56788,1.56788,0,0,1-1.56461-1.568v-.28011a1.56808,1.56808,0,0,1,1.56461-1.56825h.60018v-2.48589h-.60018a1.56788,1.56788,0,0,1-1.56461-1.568v-.2801a1.56814,1.56814,0,0,1,1.56485-1.56827h.60018v-1.76725a1.33547,1.33547,0,0,1,1.33272-1.33563h16.596a1.33546,1.33546,0,0,1,1.33272,1.33563Zm-9.09832-9.94145a1.76337,1.76337,0,0,0,1.27271-1.69132,1.762,1.762,0,0,0-1.76-1.76,1.76194,1.76194,0,0,0-1.75979,1.76,1.76324,1.76324,0,0,0,1.27249,1.69132Zm1.55916.24583a3.32923,3.32923,0,0,1,1.90062,3.0673v1.7744a.53082.53082,0,0,1-.50823.551h-6.87749a.53083.53083,0,0,1-.50824-.551v-1.7744a3.3293,3.3293,0,0,1,1.90051-3.06729,2.80936,2.80936,0,0,1-.7728-1.93741,2.82233,2.82233,0,0,1,2.81915-2.81927,2.82223,2.82223,0,0,1,2.81939,2.81927A2.8092,2.8092,0,0,1-816.22249-295.56853Zm-1.66513.85619a2.83292,2.83292,0,0,1-.38135.02568,2.83255,2.83255,0,0,1-.38134-.02568h-.50982a2.13288,2.13288,0,0,0-2.03923,2.21111v1.22338h5.861v-1.22338a2.13307,2.13307,0,0,0-2.03946-2.21111Z"/></clipPath><clipPath id="clip-path-10"><path class="cls-1" d="M-771.51878-297.77351a.17384.17384,0,0,0,.17119.1717h9.69436a.17363.17363,0,0,0,.17119-.17156V-308.729a.17372.17372,0,0,0-.17119-.17156h-9.69436a.17372.17372,0,0,0-.17119.17156v1.03232h.35058a.91586.91586,0,0,1,.91395.916v.16361a.91587.91587,0,0,1-.91395.91595h-.35058v1.45224h.35058a.91586.91586,0,0,1,.91395.91594v.16362a.91586.91586,0,0,1-.91395.91594h-.35058v1.45224h.35058a.91587.91587,0,0,1,.91395.916v.16362a.91586.91586,0,0,1-.91395.91594h-.35058Zm-.958-1.641h1.30849a.3073.3073,0,0,0,.30664-.30731v-.16362a.30729.30729,0,0,0-.30664-.30731h-1.30849a.30729.30729,0,0,0-.30664.30731v.16362A.3073.3073,0,0,0-772.47682-299.41446Zm0-3.44761h1.30849a.3073.3073,0,0,0,.30664-.30731v-.16362a.30729.30729,0,0,0-.30664-.30731h-1.30849a.30729.30729,0,0,0-.30664.30731v.16362A.3073.3073,0,0,0-772.47682-302.86207Zm0-3.44775h1.30849a.30729.30729,0,0,0,.30664-.30731v-.16361a.3073.3073,0,0,0-.30664-.30732h-1.30849a.3073.3073,0,0,0-.30664.30732v.16361A.30729.30729,0,0,0-772.47682-306.30982Zm11.60208,8.53631a.7802.7802,0,0,1-.77863.78019h-9.69436a.7801.7801,0,0,1-.7785-.78019v-1.03218h-.35059a.91586.91586,0,0,1-.91394-.91594v-.16362a.916.916,0,0,1,.91394-.91609h.35059v-1.4521h-.35059a.91586.91586,0,0,1-.91394-.91594v-.16362a.916.916,0,0,1,.91394-.91608h.35059v-1.4521h-.35059a.91586.91586,0,0,1-.91394-.91595v-.16361a.916.916,0,0,1,.91408-.91609h.35059v-1.03232a.7801.7801,0,0,1,.7785-.78019h9.69436a.78009.78009,0,0,1,.77849.78019Zm-5.31468-5.80719a1.03,1.03,0,0,0,.74344-.988,1.02925,1.02925,0,0,0-1.0281-1.02806,1.02921,1.02921,0,0,0-1.028,1.02806,1.03,1.03,0,0,0,.74331.988Zm.91077.14361a1.94473,1.94473,0,0,1,1.11022,1.79172v1.0365a.31007.31007,0,0,1-.29688.32186h-4.01741a.31008.31008,0,0,1-.29688-.32186v-1.0365a1.94477,1.94477,0,0,1,1.11017-1.79172,1.641,1.641,0,0,1-.45143-1.13172,1.64864,1.64864,0,0,1,1.64678-1.64684,1.64857,1.64857,0,0,1,1.64691,1.64684A1.641,1.641,0,0,1-765.27865-303.43709Zm-.97267.50013a1.65571,1.65571,0,0,1-.22276.015,1.6556,1.6556,0,0,1-.22276-.015h-.2978a1.24589,1.24589,0,0,0-1.19119,1.29159v.71463h3.42364v-.71463a1.246,1.246,0,0,0-1.19133-1.29159Z"/></clipPath><clipPath id="clip-path-11"><path class="cls-1" d="M-1272.21461,1098.27943a58.16884,58.16884,0,0,1-58.18182-58.18181,58.16887,58.16887,0,0,1,58.18182-58.18182,58.16884,58.16884,0,0,1,58.18181,58.18182A58.16881,58.16881,0,0,1-1272.21461,1098.27943Zm117.27894-44.47292-7.67556-7.91363a99.11838,99.11838,0,0,0,0-23.03256l7.67556-7.86479c4.57961-4.66513,12.79246-10.84463,10.234-16.731l-10.51542-24.42473c-2.55849-5.88637-12.99712-4.66514-19.67476-4.88506l-11.33417-.39076a108.24668,108.24668,0,0,0-16.98839-16.26694l-.35817-10.82017c-.20468-6.35044,1.10009-16.34014-5.117-18.78261l-25.585-10.13632c-6.1404-2.44247-12.66457,5.49563-17.52565,9.76989l-8.264,7.32752a113.84118,113.84118,0,0,0-24.15212,0l-8.21278-7.32752c-4.86113-4.34757-11.35971-12.21236-17.52567-9.76989l-25.58494,10.03858c-6.166,2.44247-4.86113,12.43228-5.117,18.78271l-.40937,10.79577a108.28443,108.28443,0,0,0-17.06514,16.2425l-11.30855.34186c-6.65209.19538-17.11632-1.05018-19.67482,4.885l-10.61775,24.42484c-2.55849,5.86194,5.75661,12.06586,10.234,16.70657l7.67548,7.88921a99.10471,99.10471,0,0,0,0,23.057l-7.67548,7.86476c-4.55412,4.64072-12.79247,10.82018-10.234,16.70656l10.51541,24.42479c2.5585,5.88637,13.02274,4.66514,19.70041,4.885l11.283.36637a108.243,108.243,0,0,0,17.03957,16.31575l.33261,10.77133c.20468,6.35045-1.10016,16.36462,5.117,18.80709l25.58493,10.13628c6.14039,2.44248,12.639-5.49557,17.5001-9.76991l8.28953-7.32743a113.87072,113.87072,0,0,0,24.10106,0l8.23831,7.32743c4.88669,4.372,11.334,12.21239,17.5,9.76991l25.585-10.03858c6.166-2.44248,4.88669-12.40779,5.117-18.80709l.38377-10.79575a108.30124,108.30124,0,0,0,17.0908-16.24248l11.30844-.34195c6.65216-.1954,17.142,1.05026,19.70048-4.885l10.61772-24.42478C-1142.06653,1064.7-1150.40713,1058.49606-1154.93567,1053.80651Z"/></clipPath><clipPath id="clip-path-12"><path class="cls-1" d="M-1041.56808,1002.27943a29.08442,29.08442,0,0,1-29.09091-29.09091,29.08444,29.08444,0,0,1,29.09091-29.09091,29.08443,29.08443,0,0,1,29.09091,29.09091A29.08442,29.08442,0,0,1-1041.56808,1002.27943Zm58.63947-22.23646-3.83778-3.95682a49.55919,49.55919,0,0,0,0-11.51628l3.83778-3.93239c2.2898-2.33257,6.39623-5.42232,5.117-8.3655l-5.25771-12.21236c-1.27924-2.94319-6.49856-2.33257-9.83738-2.44253l-5.66708-.19538a54.12337,54.12337,0,0,0-8.4942-8.13347l-.17908-5.41009c-.10234-3.17522.55-8.17007-2.55849-9.3913l-12.79249-5.06816c-3.0702-1.22124-6.33229,2.74781-8.76283,4.88494l-4.132,3.66376a56.92059,56.92059,0,0,0-12.07606,0l-4.10639-3.66376c-2.43057-2.17378-5.67986-6.10618-8.76284-4.88494l-12.79246,5.01929c-3.083,1.22123-2.43057,6.21614-2.5585,9.39135l-.20468,5.39789a54.142,54.142,0,0,0-8.53257,8.12124l-5.65428.17094c-3.326.09769-8.55816-.52509-9.83741,2.44247l-5.30887,12.21242c-1.27925,2.931,2.87831,6.03293,5.117,8.35328l3.83774,3.94461a49.5529,49.5529,0,0,0,0,11.52849l-3.83774,3.93238c-2.27706,2.32036-6.39624,5.41009-5.117,8.35328l5.25771,12.2124c1.27924,2.94318,6.51136,2.33256,9.8502,2.44247l5.64148.18319a54.12083,54.12083,0,0,0,8.51978,8.15788l.1663,5.38566c.10234,3.17523-.55007,8.18231,2.55849,9.40355l12.79247,5.06814c3.0702,1.22124,6.31948-2.74779,8.75-4.885l4.14476-3.66371a56.93612,56.93612,0,0,0,12.05054,0l4.11915,3.66371c2.44335,2.186,5.667,6.1062,8.75,4.885l12.79249-5.0193c3.083-1.22123,2.44335-6.20389,2.55849-9.40354l.19189-5.39788a54.15077,54.15077,0,0,0,8.5454-8.12123l5.65422-.171c3.32608-.0977,8.571.52513,9.85024-2.44248l5.30886-12.21239C-976.494,985.48969-980.66434,982.38774-982.92861,980.043Z"/></clipPath><clipPath id="clip-path-13"><path class="cls-1" d="M-904.15772,954.27943A14.54221,14.54221,0,0,1-918.70317,939.734a14.54221,14.54221,0,0,1,14.54545-14.54545A14.54221,14.54221,0,0,1-889.61227,939.734,14.54221,14.54221,0,0,1-904.15772,954.27943Zm29.31974-11.11824-1.91889-1.9784a24.78014,24.78014,0,0,0,0-5.75814l1.91889-1.9662c1.1449-1.16628,3.19811-2.71116,2.55848-4.18275l-2.62885-6.10618c-.63962-1.47159-3.24928-1.16628-4.91869-1.22127l-2.83354-.09769a27.06233,27.06233,0,0,0-4.2471-4.06673l-.08955-2.705c-.05117-1.58761.275-4.085-1.27924-4.69565l-6.39625-2.53408c-1.53509-.61062-3.16614,1.3739-4.38141,2.44247l-2.066,1.83188a28.45963,28.45963,0,0,0-6.038,0l-2.0532-1.83188c-1.21528-1.08689-2.83993-3.05309-4.38142-2.44247l-6.39623,2.50964c-1.54149.61062-1.21528,3.10807-1.27925,4.69568l-.10234,2.69894a27.07138,27.07138,0,0,0-4.26628,4.06062l-2.82714.08547c-1.663.04884-4.27908-.26255-4.91871,1.22124l-2.65443,6.10621c-.63963,1.46548,1.43915,3.01646,2.55849,4.17664l1.91887,1.9723a24.77649,24.77649,0,0,0,0,5.76425l-1.91887,1.96619c-1.13853,1.16018-3.19812,2.705-2.55849,4.17664l2.62885,6.10619c.63962,1.4716,3.25568,1.16629,4.9251,1.22124l2.82074.0916a27.06058,27.06058,0,0,0,4.25989,4.07893l.08315,2.69284c.05117,1.58761-.275,4.09115,1.27925,4.70177l6.39623,2.53407c1.5351.61062,3.15974-1.37389,4.375-2.44248l2.07238-1.83186a28.46664,28.46664,0,0,0,6.02526,0l2.05958,1.83186c1.22167,1.093,2.83351,3.0531,4.375,2.44248l6.39625-2.50965c1.5415-.61062,1.22167-3.10194,1.27924-4.70177l.096-2.69894a27.07584,27.07584,0,0,0,4.2727-4.06062l2.8271-.08548c1.663-.04885,4.28551.26256,4.92513-1.22124l2.65443-6.1062C-871.6207,945.88456-873.70585,944.33358-874.838,943.16119Z"/></clipPath></defs><title>p-share app icons</title><path class="cls-1" d="M-818.39656,930.27942a7.27111,7.27111,0,0,1-7.27273-7.27272,7.27111,7.27111,0,0,1,7.27273-7.27273,7.2711,7.2711,0,0,1,7.27273,7.27273A7.2711,7.2711,0,0,1-818.39656,930.27942Zm14.65987-5.55911-.95945-.9892a12.389,12.389,0,0,0,0-2.87907l.95945-.9831c.57245-.58314,1.59906-1.35558,1.27924-2.09138l-1.31442-3.05309c-.31982-.73579-1.62464-.58314-2.45935-.61063l-1.41677-.04885a13.53112,13.53112,0,0,0-2.12355-2.03336l-.04477-1.35253c-.02559-.7938.13751-2.04251-.63962-2.34782l-3.19813-1.267c-.76754-.30531-1.58307.68695-2.1907,1.22124l-1.033.91594a14.2292,14.2292,0,0,0-3.019,0l-1.0266-.91594c-.60764-.54345-1.42-1.52655-2.19071-1.22124l-3.19811,1.25482c-.77075.30531-.60764,1.554-.63963,2.34784l-.05117,1.34947a13.53635,13.53635,0,0,0-2.13314,2.03031l-1.41357.04274c-.83151.02442-2.13954-.13128-2.45935.61062l-1.32722,3.0531c-.31981.73274.71958,1.50823,1.27925,2.08832l.95943.98615a12.38875,12.38875,0,0,0,0,2.88212l-.95943.9831c-.56927.58009-1.59906,1.35252-1.27925,2.08832l1.31443,3.0531c.31981.73579,1.62784.58314,2.46255.61062l1.41037.04579a13.53005,13.53005,0,0,0,2.12994,2.03947l.04158,1.34642c.02558.79381-.13752,2.04558.63962,2.35089l3.19812,1.267c.76755.30531,1.57987-.687,2.18751-1.22124l1.03619-.91593a14.234,14.234,0,0,0,3.01263,0l1.02979.91593c.61084.54651,1.41676,1.52655,2.18751,1.22124l3.19812-1.25482c.77075-.30531.61084-1.551.63962-2.35089l.048-1.34947A13.537,13.537,0,0,0-807.664,930.509l1.41356-.04274c.83152-.02443,2.14275.13128,2.46256-.61062l1.32721-3.0531C-802.128,926.082-803.17062,925.3065-803.73669,924.72031Z"/><g class="cls-3"><rect class="cls-1" x="-859.12383" y="-63.1751" width="2081.45449" height="1117.09088"/></g><path class="cls-2" d="M-512.38992-98.85846a2.67831,2.67831,0,0,0,2.6374,2.64531h149.35269a2.675,2.675,0,0,0,2.63741-2.64316V-267.64046a2.67639,2.67639,0,0,0-2.63741-2.64309H-509.75252a2.67638,2.67638,0,0,0-2.6374,2.64309v15.9041h5.4012a14.10984,14.10984,0,0,1,14.08042,14.11117v2.52074a14.1099,14.1099,0,0,1-14.08042,14.11116h-5.4012v22.37344h5.4012a14.10984,14.10984,0,0,1,14.08042,14.1111v2.52077a14.10987,14.10987,0,0,1-14.08042,14.11114h-5.4012v22.37344h5.4012a14.10987,14.10987,0,0,1,14.08042,14.11114v2.52078a14.10988,14.10988,0,0,1-14.08042,14.11115h-5.4012Zm-14.75959-25.28068h20.15865a4.73427,4.73427,0,0,0,4.72419-4.73449v-2.52077a4.73426,4.73426,0,0,0-4.72419-4.73449h-20.15865a4.73426,4.73426,0,0,0-4.72418,4.73449v2.52077A4.73427,4.73427,0,0,0-527.14951-124.13914Zm0-53.11435h20.15865a4.73427,4.73427,0,0,0,4.72419-4.73449v-2.52077a4.73426,4.73426,0,0,0-4.72419-4.73448h-20.15865a4.73425,4.73425,0,0,0-4.72418,4.73448v2.52077A4.73427,4.73427,0,0,0-527.14951-177.25349Zm0-53.1165h20.15865a4.73425,4.73425,0,0,0,4.72419-4.73446v-2.52074a4.73434,4.73434,0,0,0-4.72419-4.73458h-20.15865a4.73434,4.73434,0,0,0-4.72418,4.73458v2.52074A4.73425,4.73425,0,0,0-527.14951-230.37ZM-348.40619-98.85846A12.0201,12.0201,0,0,1-360.402-86.83864H-509.75466A12.01827,12.01827,0,0,1-521.7483-98.85846v-15.90187h-5.40121a14.10988,14.10988,0,0,1-14.08041-14.11115v-2.52078a14.11172,14.11172,0,0,1,14.08041-14.1133h5.40121v-22.37128h-5.40121A14.10987,14.10987,0,0,1-541.22992-181.988v-2.52077A14.11166,14.11166,0,0,1-527.14951-198.622h5.40121v-22.3713h-5.40121a14.1099,14.1099,0,0,1-14.08041-14.11116v-2.52074a14.11212,14.11212,0,0,1,14.08256-14.11331h5.4012v-15.90411a12.01829,12.01829,0,0,1,11.99364-12.01977h149.35269a12.01828,12.01828,0,0,1,11.99364,12.01977Zm-81.87874-89.46636a15.869,15.869,0,0,0,11.45352-15.22071A15.85679,15.85679,0,0,0-434.67053-219.384a15.85627,15.85627,0,0,0-15.83689,15.83844,15.86779,15.86779,0,0,0,11.45152,15.22071Zm14.03135,2.21238c10.0249,4.45454,17.10432,15.14965,17.10432,27.60364v15.96833a4.77708,4.77708,0,0,1-4.57378,4.95874h-61.89277a4.77711,4.77711,0,0,1-4.57379-4.95874V-158.5088c0-12.45395,7.07933-23.149,17.10333-27.6036a25.28216,25.28216,0,0,1-6.95472-17.43538,25.39912,25.39912,0,0,1,25.37046-25.37153,25.39817,25.39817,0,0,1,25.37264,25.37153A25.28087,25.28087,0,0,1-416.25358-186.11244Zm-14.98508,7.70511a25.50169,25.50169,0,0,1-3.43187.23113,25.49962,25.49962,0,0,1-3.43179-.23113h-4.588c-10.1193,0-18.35169,8.92754-18.35169,19.89853v11.00959h52.7452V-158.5088c0-10.971-8.23453-19.89853-18.35381-19.89853Z"/><g class="cls-4"><rect class="cls-2" x="-734.05366" y="-1265.20591" width="15329.48691" height="8227.14602"/></g><path class="cls-2" d="M-245.21441-203.48465a1.389,1.389,0,0,0,1.36776,1.37186h77.45456a1.38726,1.38726,0,0,0,1.36776-1.37075v-87.53174a1.388,1.388,0,0,0-1.36776-1.37071h-77.45456a1.388,1.388,0,0,0-1.36776,1.37071v8.24789h2.80108a7.31739,7.31739,0,0,1,7.30212,7.31808v1.30726a7.31742,7.31742,0,0,1-7.30212,7.31807h-2.80108v11.60291h2.80108a7.31738,7.31738,0,0,1,7.30212,7.318v1.30728a7.3174,7.3174,0,0,1-7.30212,7.31806h-2.80108v11.6029h2.80108a7.3174,7.3174,0,0,1,7.30212,7.31806v1.30728a7.3174,7.3174,0,0,1-7.30212,7.31807h-2.80108Zm-7.65435-13.11061h10.45431a2.45519,2.45519,0,0,0,2.45-2.45531v-1.30728a2.45519,2.45519,0,0,0-2.45-2.45531h-10.45431a2.45519,2.45519,0,0,0-2.45,2.45531v1.30728A2.45519,2.45519,0,0,0-252.86876-216.59526Zm0-27.54518h10.45431a2.4552,2.4552,0,0,0,2.45-2.45532V-247.903a2.45519,2.45519,0,0,0-2.45-2.45531h-10.45431a2.45519,2.45519,0,0,0-2.45,2.45531v1.30728A2.4552,2.4552,0,0,0-252.86876-244.14044Zm0-27.54631h10.45431a2.45519,2.45519,0,0,0,2.45-2.4553v-1.30726a2.45523,2.45523,0,0,0-2.45-2.45536h-10.45431a2.45523,2.45523,0,0,0-2.45,2.45536v1.30726A2.45519,2.45519,0,0,0-252.86876-271.68675Zm92.69659,68.2021a6.23365,6.23365,0,0,1-6.221,6.2335h-77.45455a6.23269,6.23269,0,0,1-6.21992-6.2335v-8.24674h-2.80108a7.3174,7.3174,0,0,1-7.30212-7.31807v-1.30728a7.31835,7.31835,0,0,1,7.30212-7.31917h2.80108V-239.2777h-2.80108a7.3174,7.3174,0,0,1-7.30212-7.31806V-247.903a7.31834,7.31834,0,0,1,7.30212-7.31915h2.80108V-266.824h-2.80108a7.31742,7.31742,0,0,1-7.30212-7.31807v-1.30726a7.31857,7.31857,0,0,1,7.30324-7.31919h2.80107v-8.24789a6.23271,6.23271,0,0,1,6.21992-6.23348h77.45456a6.2327,6.2327,0,0,1,6.21992,6.23348Zm-42.46245-46.39741a8.2297,8.2297,0,0,0,5.93981-7.89348,8.22335,8.22335,0,0,0-8.21419-8.21384,8.22309,8.22309,0,0,0-8.213,8.21384,8.22905,8.22905,0,0,0,5.93878,7.89348Zm7.27668,1.14735a15.5377,15.5377,0,0,1,8.87033,14.31529v8.2812a2.4774,2.4774,0,0,1-2.372,2.57161h-32.0977a2.47741,2.47741,0,0,1-2.372-2.57161v-8.2812a15.53806,15.53806,0,0,1,8.86981-14.31527,13.11139,13.11139,0,0,1-3.60672-9.042A13.172,13.172,0,0,1-204.909-270.93443a13.17154,13.17154,0,0,1,13.15829,13.15772A13.1107,13.1107,0,0,1-195.35794-248.73471Zm-7.77129,3.99588a13.22437,13.22437,0,0,1-1.77977.11987,13.22311,13.22311,0,0,1-1.77973-.11987h-2.37935c-5.24789,0-9.51722,4.62984-9.51722,10.31941v5.70959h27.35375v-5.70959c0-5.68957-4.27045-10.31941-9.51832-10.31941Z"/><g class="cls-5"><rect class="cls-2" x="-360.16959" y="-808.35439" width="7949.89755" height="4266.61168"/></g><path class="cls-2" d="M-87.90262-259.09108a.63979.63979,0,0,0,.63.63191h35.67712a.639.639,0,0,0,.63-.63139v-40.31888a.63933.63933,0,0,0-.63-.63138H-87.2726a.63933.63933,0,0,0-.63.63138v3.79914h1.29023a3.37054,3.37054,0,0,1,3.36351,3.37086v.60215a3.37055,3.37055,0,0,1-3.36351,3.37085h-1.29023v5.34453h1.29023a3.37053,3.37053,0,0,1,3.36351,3.37083v.60216a3.37054,3.37054,0,0,1-3.36351,3.37085h-1.29023v5.34453h1.29023a3.37054,3.37054,0,0,1,3.36351,3.37084v.60216a3.37054,3.37054,0,0,1-3.36351,3.37085h-1.29023Zm-3.52574-6.039h4.81546a1.13092,1.13092,0,0,0,1.12851-1.131v-.60216a1.13092,1.13092,0,0,0-1.12851-1.131h-4.81546a1.13092,1.13092,0,0,0-1.12851,1.131v.60216A1.13092,1.13092,0,0,0-91.42836-265.13008Zm0-12.68787h4.81546a1.13092,1.13092,0,0,0,1.12851-1.131v-.60216a1.13091,1.13091,0,0,0-1.12851-1.131h-4.81546a1.13091,1.13091,0,0,0-1.12851,1.131v.60216A1.13092,1.13092,0,0,0-91.42836-277.81795Zm0-12.68838h4.81546a1.13092,1.13092,0,0,0,1.12851-1.131v-.60215a1.13094,1.13094,0,0,0-1.12851-1.131h-4.81546a1.13094,1.13094,0,0,0-1.12851,1.131v.60215A1.13092,1.13092,0,0,0-91.42836-290.50633Zm42.6979,31.41525A2.87134,2.87134,0,0,1-51.596-256.2198H-87.27311a2.87091,2.87091,0,0,1-2.865-2.87128v-3.79861h-1.29023a3.37055,3.37055,0,0,1-3.36351-3.37085v-.60216a3.371,3.371,0,0,1,3.36351-3.37136h1.29023v-5.344h-1.29023a3.37055,3.37055,0,0,1-3.36351-3.37085v-.60216a3.371,3.371,0,0,1,3.36351-3.37134h1.29023v-5.344h-1.29023a3.37056,3.37056,0,0,1-3.36351-3.37085v-.60215a3.37109,3.37109,0,0,1,3.364-3.37137h1.29023v-3.79914a2.87091,2.87091,0,0,1,2.865-2.87127h35.67712a2.87091,2.87091,0,0,1,2.865,2.87127Zm-19.55905-21.37157a3.79076,3.79076,0,0,0,2.736-3.6359,3.78784,3.78784,0,0,0-3.78362-3.78346,3.78772,3.78772,0,0,0-3.78309,3.78346,3.79048,3.79048,0,0,0,2.73552,3.6359Zm3.35178.52849a7.157,7.157,0,0,1,4.08585,6.59391v3.81449a1.14113,1.14113,0,0,1-1.09257,1.18453H-76.7293a1.14114,1.14114,0,0,1-1.09257-1.18453v-3.81449a7.15712,7.15712,0,0,1,4.08561-6.5939,6.03939,6.03939,0,0,1-1.66133-4.16494,6.0673,6.0673,0,0,1,6.06045-6.06071,6.06707,6.06707,0,0,1,6.061,6.06071A6.03908,6.03908,0,0,1-64.93773-279.93416Zm-3.57961,1.84058a6.09087,6.09087,0,0,1-.8198.05521,6.09058,6.09058,0,0,1-.81978-.05521h-1.096a4.58516,4.58516,0,0,0-4.38383,4.75333v2.63H-63.037v-2.63a4.58556,4.58556,0,0,0-4.38433-4.75333Z"/><g class="cls-6"><rect class="cls-2" x="-140.85328" y="-537.70622" width="3661.88232" height="1965.28695"/></g><path class="cls-2" d="M7.49145-285.87291a.29761.29761,0,0,0,.29307.29394h16.596a.29725.29725,0,0,0,.29307-.29371v-18.75519a.2974.2974,0,0,0-.29307-.2937H7.78452a.2974.2974,0,0,0-.29307.2937v1.76725h.60018a1.56788,1.56788,0,0,1,1.56461,1.568v.2801a1.56788,1.56788,0,0,1-1.56461,1.568H7.49145v2.48613h.60018a1.56788,1.56788,0,0,1,1.56461,1.568v.28011a1.56788,1.56788,0,0,1-1.56461,1.568H7.49145v2.48613h.60018a1.56788,1.56788,0,0,1,1.56461,1.568v.28011a1.56788,1.56788,0,0,1-1.56461,1.568H7.49145Zm-1.64007-2.80918h2.24a.52607.52607,0,0,0,.52495-.52609v-.28011a.52606.52606,0,0,0-.52495-.52609h-2.24a.52606.52606,0,0,0-.52495.52609v.28011A.52607.52607,0,0,0,5.85138-288.68209Zm0-5.902h2.24a.52607.52607,0,0,0,.52495-.5261v-.28011a.52607.52607,0,0,0-.52495-.52609h-2.24a.52607.52607,0,0,0-.52495.52609v.28011A.52607.52607,0,0,0,5.85138-294.58412Zm0-5.90228h2.24a.52606.52606,0,0,0,.52495-.52609v-.2801a.52608.52608,0,0,0-.52495-.52611h-2.24a.52608.52608,0,0,0-.52495.52611v.2801A.52606.52606,0,0,0,5.85138-300.4864Zm19.86185,14.61349a1.33566,1.33566,0,0,1-1.333,1.33563H7.78428a1.33545,1.33545,0,0,1-1.33272-1.33563v-1.767H5.85138a1.56788,1.56788,0,0,1-1.56461-1.568v-.28011a1.56808,1.56808,0,0,1,1.56461-1.56826h.60018v-2.48589H5.85138a1.56788,1.56788,0,0,1-1.56461-1.568v-.28011a1.56808,1.56808,0,0,1,1.56461-1.56825h.60018v-2.48589H5.85138a1.56788,1.56788,0,0,1-1.56461-1.568v-.2801a1.56814,1.56814,0,0,1,1.56485-1.56827h.60017v-1.76725a1.33547,1.33547,0,0,1,1.33273-1.33563h16.596a1.33547,1.33547,0,0,1,1.33273,1.33563Zm-9.09832-9.94145a1.76337,1.76337,0,0,0,1.27271-1.69132,1.762,1.762,0,0,0-1.76-1.76,1.76194,1.76194,0,0,0-1.75979,1.76,1.76324,1.76324,0,0,0,1.27249,1.69132Zm1.55916.24583a3.32923,3.32923,0,0,1,1.90062,3.0673v1.7744a.53083.53083,0,0,1-.50824.551H12.689a.53083.53083,0,0,1-.50824-.551v-1.7744a3.3293,3.3293,0,0,1,1.90051-3.06729,2.80936,2.80936,0,0,1-.7728-1.93741,2.82233,2.82233,0,0,1,2.81915-2.81927,2.82223,2.82223,0,0,1,2.81939,2.81927A2.8092,2.8092,0,0,1,18.17407-295.56853Zm-1.66514.85619a2.83266,2.83266,0,0,1-.38134.02568,2.83255,2.83255,0,0,1-.38134-.02568h-.50982a2.13288,2.13288,0,0,0-2.03923,2.21111v1.22338h5.861v-1.22338a2.13307,2.13307,0,0,0-2.03947-2.21111Z"/><g class="cls-7"><rect class="cls-2" x="-17.13969" y="-415.47676" width="1703.40366" height="914.19568"/></g><path class="cls-2" d="M26.988,18.6752H20.99459a.55652.55652,0,0,0-.55653.55654v2.35212H11.56194V19.23174a.55652.55652,0,0,0-.55653-.55654H5.012a.55653.55653,0,0,0-.55654.55654V26.988a.55653.55653,0,0,0,.55654.55654H26.988a.55653.55653,0,0,0,.55654-.55654V19.23174A.55653.55653,0,0,0,26.988,18.6752Zm-.55654,7.75627H5.56853V19.78828h4.88034V22.1404a.55653.55653,0,0,0,.55654.55654h9.98918a.55653.55653,0,0,0,.55654-.55654V19.78828h4.88034Z"/><path class="cls-2" d="M15.606,18.33207a.55718.55718,0,0,0,.08542.0699c.01331.00891.02776.015.04163.02262a.32645.32645,0,0,0,.11008.04583c.016.00474.03132.0109.04787.0142a.54573.54573,0,0,0,.21794,0c.01653-.00328.03183-.00946.0478-.01417a.326.326,0,0,0,.11-.0458c.01394-.00764.02844-.01374.04181-.02268a.55861.55861,0,0,0,.08539-.0699l3.87766-3.87765a.55648.55648,0,1,0-.787-.787l-2.92811,2.92811V5.012a.55654.55654,0,0,0-1.11308,0V16.59555l-2.92811-2.92811a.55648.55648,0,1,0-.787.787Z"/><path class="cls-1" d="M-1346.78648-98.85846a2.67831,2.67831,0,0,0,2.6374,2.64531h149.35269a2.675,2.675,0,0,0,2.63741-2.64316V-267.64046a2.67639,2.67639,0,0,0-2.63741-2.64309h-149.35269a2.67638,2.67638,0,0,0-2.6374,2.64309v15.9041h5.40121a14.10983,14.10983,0,0,1,14.08041,14.11117v2.52074a14.1099,14.1099,0,0,1-14.08041,14.11116h-5.40121v22.37344h5.40121a14.10983,14.10983,0,0,1,14.08041,14.1111v2.52077a14.10986,14.10986,0,0,1-14.08041,14.11114h-5.40121v22.37344h5.40121a14.10987,14.10987,0,0,1,14.08041,14.11114v2.52078a14.10988,14.10988,0,0,1-14.08041,14.11115h-5.40121Zm-14.75959-25.28068h20.15865a4.73427,4.73427,0,0,0,4.72419-4.73449v-2.52077a4.73426,4.73426,0,0,0-4.72419-4.73449h-20.15865a4.73426,4.73426,0,0,0-4.72418,4.73449v2.52077A4.73427,4.73427,0,0,0-1361.54607-124.13914Zm0-53.11435h20.15865a4.73427,4.73427,0,0,0,4.72419-4.73449v-2.52077a4.73426,4.73426,0,0,0-4.72419-4.73448h-20.15865a4.73425,4.73425,0,0,0-4.72418,4.73448v2.52077A4.73427,4.73427,0,0,0-1361.54607-177.25349Zm0-53.1165h20.15865a4.73425,4.73425,0,0,0,4.72419-4.73446v-2.52074a4.73434,4.73434,0,0,0-4.72419-4.73458h-20.15865a4.73434,4.73434,0,0,0-4.72418,4.73458v2.52074A4.73425,4.73425,0,0,0-1361.54607-230.37Zm178.74332,131.51153a12.0201,12.0201,0,0,1-11.99578,12.01982h-149.35269a12.01827,12.01827,0,0,1-11.99364-12.01982v-15.90187h-5.40121a14.10989,14.10989,0,0,1-14.08041-14.11115v-2.52078a14.11172,14.11172,0,0,1,14.08041-14.1133h5.40121v-22.37128h-5.40121a14.10987,14.10987,0,0,1-14.08041-14.11114v-2.52077a14.11167,14.11167,0,0,1,14.08041-14.11324h5.40121v-22.3713h-5.40121a14.10991,14.10991,0,0,1-14.08041-14.11116v-2.52074a14.11213,14.11213,0,0,1,14.08256-14.11331h5.4012v-15.90411a12.01829,12.01829,0,0,1,11.99364-12.01977h149.35269a12.01828,12.01828,0,0,1,11.99364,12.01977Zm-81.87874-89.46636a15.869,15.869,0,0,0,11.45352-15.22071,15.85679,15.85679,0,0,0-15.83912-15.83844,15.85627,15.85627,0,0,0-15.83689,15.83844,15.86779,15.86779,0,0,0,11.45152,15.22071Zm14.03135,2.21238c10.02491,4.45454,17.10432,15.14965,17.10432,27.60364v15.96833a4.77708,4.77708,0,0,1-4.57378,4.95874h-61.89277a4.77711,4.77711,0,0,1-4.57379-4.95874V-158.5088c0-12.45395,7.07933-23.149,17.10333-27.6036a25.28216,25.28216,0,0,1-6.95472-17.43538,25.39913,25.39913,0,0,1,25.37046-25.37153,25.39817,25.39817,0,0,1,25.37264,25.37153A25.28087,25.28087,0,0,1-1250.65014-186.11244Zm-14.98508,7.70511a25.50169,25.50169,0,0,1-3.43187.23113,25.49936,25.49936,0,0,1-3.43178-.23113h-4.588c-10.1193,0-18.3517,8.92754-18.3517,19.89853v11.00959h52.74521V-158.5088c0-10.971-8.23454-19.89853-18.35382-19.89853Z"/><g class="cls-8"><rect class="cls-1" x="-1568.45022" y="-1265.20591" width="15329.48691" height="8227.14602"/></g><path class="cls-1" d="M-1079.611-203.48465a1.389,1.389,0,0,0,1.36776,1.37186h77.45456a1.38726,1.38726,0,0,0,1.36776-1.37075v-87.53174a1.388,1.388,0,0,0-1.36776-1.37071h-77.45456a1.388,1.388,0,0,0-1.36776,1.37071v8.24789h2.80108a7.3174,7.3174,0,0,1,7.30213,7.31808v1.30726a7.31743,7.31743,0,0,1-7.30213,7.31807h-2.80108v11.60291h2.80108a7.31739,7.31739,0,0,1,7.30213,7.318v1.30728a7.3174,7.3174,0,0,1-7.30213,7.31806h-2.80108v11.6029h2.80108a7.31741,7.31741,0,0,1,7.30213,7.31806v1.30728a7.31741,7.31741,0,0,1-7.30213,7.31807h-2.80108Zm-7.65434-13.11061h10.45431a2.4552,2.4552,0,0,0,2.45-2.45531v-1.30728a2.4552,2.4552,0,0,0-2.45-2.45531h-10.45431a2.45519,2.45519,0,0,0-2.45,2.45531v1.30728A2.45519,2.45519,0,0,0-1087.26531-216.59526Zm0-27.54518h10.45431a2.45521,2.45521,0,0,0,2.45-2.45532V-247.903a2.4552,2.4552,0,0,0-2.45-2.45531h-10.45431a2.45519,2.45519,0,0,0-2.45,2.45531v1.30728A2.4552,2.4552,0,0,0-1087.26531-244.14044Zm0-27.54631h10.45431a2.4552,2.4552,0,0,0,2.45-2.4553v-1.30726a2.45524,2.45524,0,0,0-2.45-2.45536h-10.45431a2.45523,2.45523,0,0,0-2.45,2.45536v1.30726A2.45519,2.45519,0,0,0-1087.26531-271.68675Zm92.69658,68.2021a6.23365,6.23365,0,0,1-6.221,6.2335h-77.45456a6.2327,6.2327,0,0,1-6.21992-6.2335v-8.24674h-2.80107a7.31741,7.31741,0,0,1-7.30213-7.31807v-1.30728a7.31836,7.31836,0,0,1,7.30213-7.31917h2.80107V-239.2777h-2.80107a7.3174,7.3174,0,0,1-7.30213-7.31806V-247.903a7.31834,7.31834,0,0,1,7.30213-7.31915h2.80107V-266.824h-2.80107a7.31742,7.31742,0,0,1-7.30213-7.31807v-1.30726a7.31857,7.31857,0,0,1,7.30324-7.31919h2.80107v-8.24789a6.23271,6.23271,0,0,1,6.21992-6.23348h77.45456a6.2327,6.2327,0,0,1,6.21992,6.23348Zm-42.46245-46.39741a8.2297,8.2297,0,0,0,5.93981-7.89348,8.22335,8.22335,0,0,0-8.21419-8.21384,8.22309,8.22309,0,0,0-8.213,8.21384,8.22905,8.22905,0,0,0,5.93878,7.89348Zm7.27668,1.14735a15.5377,15.5377,0,0,1,8.87033,14.31529v8.2812a2.47739,2.47739,0,0,1-2.372,2.57161h-32.0977a2.47741,2.47741,0,0,1-2.372-2.57161v-8.2812a15.538,15.538,0,0,1,8.86982-14.31527,13.11135,13.11135,0,0,1-3.60673-9.042,13.172,13.172,0,0,1,13.15716-13.15772,13.17154,13.17154,0,0,1,13.15829,13.15772A13.1107,13.1107,0,0,1-1029.7545-248.73471Zm-7.77129,3.99588a13.22426,13.22426,0,0,1-1.77977.11987,13.22322,13.22322,0,0,1-1.77973-.11987h-2.37935c-5.24789,0-9.51722,4.62984-9.51722,10.31941v5.70959h27.35375v-5.70959c0-5.68957-4.27044-10.31941-9.51832-10.31941Z"/><g class="cls-9"><rect class="cls-1" x="-1194.56615" y="-808.35439" width="7949.89755" height="4266.61168"/></g><path class="cls-1" d="M-922.29918-259.09108a.63979.63979,0,0,0,.63.63191H-885.992a.639.639,0,0,0,.63-.63139v-40.31888a.63933.63933,0,0,0-.63-.63138h-35.67713a.63934.63934,0,0,0-.63.63138v3.79914h1.29024a3.37054,3.37054,0,0,1,3.3635,3.37086v.60215a3.37055,3.37055,0,0,1-3.3635,3.37085h-1.29024v5.34453h1.29024a3.37052,3.37052,0,0,1,3.3635,3.37083v.60216a3.37054,3.37054,0,0,1-3.3635,3.37085h-1.29024v5.34453h1.29024a3.37053,3.37053,0,0,1,3.3635,3.37084v.60216a3.37054,3.37054,0,0,1-3.3635,3.37085h-1.29024Zm-3.52574-6.039h4.81546a1.13091,1.13091,0,0,0,1.12851-1.131v-.60216a1.13091,1.13091,0,0,0-1.12851-1.131h-4.81546a1.13091,1.13091,0,0,0-1.1285,1.131v.60216A1.13091,1.13091,0,0,0-925.82492-265.13008Zm0-12.68787h4.81546a1.13091,1.13091,0,0,0,1.12851-1.131v-.60216a1.1309,1.1309,0,0,0-1.12851-1.131h-4.81546a1.1309,1.1309,0,0,0-1.1285,1.131v.60216A1.13091,1.13091,0,0,0-925.82492-277.81795Zm0-12.68838h4.81546a1.13091,1.13091,0,0,0,1.12851-1.131v-.60215a1.13093,1.13093,0,0,0-1.12851-1.131h-4.81546a1.13093,1.13093,0,0,0-1.1285,1.131v.60215A1.13091,1.13091,0,0,0-925.82492-290.50633Zm42.69791,31.41525a2.87135,2.87135,0,0,1-2.86554,2.87128h-35.67712a2.87091,2.87091,0,0,1-2.865-2.87128v-3.79861h-1.29023a3.37055,3.37055,0,0,1-3.36351-3.37085v-.60216a3.371,3.371,0,0,1,3.36351-3.37136h1.29023v-5.344h-1.29023a3.37055,3.37055,0,0,1-3.36351-3.37085v-.60216a3.371,3.371,0,0,1,3.36351-3.37134h1.29023v-5.344h-1.29023a3.37056,3.37056,0,0,1-3.36351-3.37085v-.60215a3.37109,3.37109,0,0,1,3.364-3.37137h1.29023v-3.79914a2.87091,2.87091,0,0,1,2.865-2.87127H-885.992a2.87092,2.87092,0,0,1,2.865,2.87127Zm-19.55906-21.37157a3.79077,3.79077,0,0,0,2.736-3.6359,3.78785,3.78785,0,0,0-3.78363-3.78346,3.78773,3.78773,0,0,0-3.78309,3.78346,3.79048,3.79048,0,0,0,2.73552,3.6359Zm3.35179.52849a7.157,7.157,0,0,1,4.08585,6.59391v3.81449a1.14114,1.14114,0,0,1-1.09258,1.18453h-14.78484a1.14115,1.14115,0,0,1-1.09258-1.18453v-3.81449a7.15714,7.15714,0,0,1,4.08561-6.5939,6.03939,6.03939,0,0,1-1.66133-4.16494,6.0673,6.0673,0,0,1,6.06045-6.06071,6.06707,6.06707,0,0,1,6.061,6.06071A6.03911,6.03911,0,0,1-899.33428-279.93416Zm-3.57962,1.84058a6.09087,6.09087,0,0,1-.8198.05521,6.09058,6.09058,0,0,1-.81978-.05521h-1.096a4.58516,4.58516,0,0,0-4.38382,4.75333v2.63h12.59968v-2.63a4.58556,4.58556,0,0,0-4.38433-4.75333Z"/><g class="cls-10"><rect class="cls-1" x="-975.24984" y="-537.70622" width="3661.88232" height="1965.28695"/></g><path class="cls-1" d="M-826.9051-285.87291a.2976.2976,0,0,0,.29306.29394h16.596a.29724.29724,0,0,0,.29306-.29371v-18.75519a.2974.2974,0,0,0-.29306-.2937h-16.596a.2974.2974,0,0,0-.29306.2937v1.76725h.60017a1.56787,1.56787,0,0,1,1.56461,1.568v.2801a1.56788,1.56788,0,0,1-1.56461,1.568h-.60017v2.48613h.60017a1.56787,1.56787,0,0,1,1.56461,1.568v.28011a1.56788,1.56788,0,0,1-1.56461,1.568h-.60017v2.48613h.60017a1.56787,1.56787,0,0,1,1.56461,1.568v.28011a1.56788,1.56788,0,0,1-1.56461,1.568h-.60017Zm-1.64008-2.80918h2.24a.52607.52607,0,0,0,.52494-.52609v-.28011a.52606.52606,0,0,0-.52494-.52609h-2.24a.52606.52606,0,0,0-.52495.52609v.28011A.52607.52607,0,0,0-828.54518-288.68209Zm0-5.902h2.24a.52607.52607,0,0,0,.52494-.5261v-.28011a.52607.52607,0,0,0-.52494-.52609h-2.24a.52607.52607,0,0,0-.52495.52609v.28011A.52607.52607,0,0,0-828.54518-294.58412Zm0-5.90228h2.24a.52606.52606,0,0,0,.52494-.52609v-.2801a.52608.52608,0,0,0-.52494-.52611h-2.24a.52608.52608,0,0,0-.52495.52611v.2801A.52606.52606,0,0,0-828.54518-300.4864Zm19.86185,14.61349a1.33566,1.33566,0,0,1-1.333,1.33563h-16.596a1.33546,1.33546,0,0,1-1.33272-1.33563v-1.767h-.60018a1.56788,1.56788,0,0,1-1.56461-1.568v-.28011a1.56808,1.56808,0,0,1,1.56461-1.56826h.60018v-2.48589h-.60018a1.56788,1.56788,0,0,1-1.56461-1.568v-.28011a1.56808,1.56808,0,0,1,1.56461-1.56825h.60018v-2.48589h-.60018a1.56788,1.56788,0,0,1-1.56461-1.568v-.2801a1.56814,1.56814,0,0,1,1.56485-1.56827h.60018v-1.76725a1.33547,1.33547,0,0,1,1.33272-1.33563h16.596a1.33546,1.33546,0,0,1,1.33272,1.33563Zm-9.09832-9.94145a1.76337,1.76337,0,0,0,1.27271-1.69132,1.762,1.762,0,0,0-1.76-1.76,1.76194,1.76194,0,0,0-1.75979,1.76,1.76324,1.76324,0,0,0,1.27249,1.69132Zm1.55916.24583a3.32923,3.32923,0,0,1,1.90062,3.0673v1.7744a.53082.53082,0,0,1-.50823.551h-6.87749a.53083.53083,0,0,1-.50824-.551v-1.7744a3.3293,3.3293,0,0,1,1.90051-3.06729,2.80936,2.80936,0,0,1-.7728-1.93741,2.82233,2.82233,0,0,1,2.81915-2.81927,2.82223,2.82223,0,0,1,2.81939,2.81927A2.8092,2.8092,0,0,1-816.22249-295.56853Zm-1.66513.85619a2.83292,2.83292,0,0,1-.38135.02568,2.83255,2.83255,0,0,1-.38134-.02568h-.50982a2.13288,2.13288,0,0,0-2.03923,2.21111v1.22338h5.861v-1.22338a2.13307,2.13307,0,0,0-2.03946-2.21111Z"/><g class="cls-11"><rect class="cls-1" x="-851.53625" y="-415.47676" width="1703.40366" height="914.19568"/></g><path class="cls-1" d="M-771.51878-297.77351a.17384.17384,0,0,0,.17119.1717h9.69436a.17363.17363,0,0,0,.17119-.17156V-308.729a.17372.17372,0,0,0-.17119-.17156h-9.69436a.17372.17372,0,0,0-.17119.17156v1.03232h.35058a.91586.91586,0,0,1,.91395.916v.16361a.91587.91587,0,0,1-.91395.91595h-.35058v1.45224h.35058a.91586.91586,0,0,1,.91395.91594v.16362a.91586.91586,0,0,1-.91395.91594h-.35058v1.45224h.35058a.91587.91587,0,0,1,.91395.916v.16362a.91586.91586,0,0,1-.91395.91594h-.35058Zm-.958-1.641h1.30849a.3073.3073,0,0,0,.30664-.30731v-.16362a.30729.30729,0,0,0-.30664-.30731h-1.30849a.30729.30729,0,0,0-.30664.30731v.16362A.3073.3073,0,0,0-772.47682-299.41446Zm0-3.44761h1.30849a.3073.3073,0,0,0,.30664-.30731v-.16362a.30729.30729,0,0,0-.30664-.30731h-1.30849a.30729.30729,0,0,0-.30664.30731v.16362A.3073.3073,0,0,0-772.47682-302.86207Zm0-3.44775h1.30849a.30729.30729,0,0,0,.30664-.30731v-.16361a.3073.3073,0,0,0-.30664-.30732h-1.30849a.3073.3073,0,0,0-.30664.30732v.16361A.30729.30729,0,0,0-772.47682-306.30982Zm11.60208,8.53631a.7802.7802,0,0,1-.77863.78019h-9.69436a.7801.7801,0,0,1-.7785-.78019v-1.03218h-.35059a.91586.91586,0,0,1-.91394-.91594v-.16362a.916.916,0,0,1,.91394-.91609h.35059v-1.4521h-.35059a.91586.91586,0,0,1-.91394-.91594v-.16362a.916.916,0,0,1,.91394-.91608h.35059v-1.4521h-.35059a.91586.91586,0,0,1-.91394-.91595v-.16361a.916.916,0,0,1,.91408-.91609h.35059v-1.03232a.7801.7801,0,0,1,.7785-.78019h9.69436a.78009.78009,0,0,1,.77849.78019Zm-5.31468-5.80719a1.03,1.03,0,0,0,.74344-.988,1.02925,1.02925,0,0,0-1.0281-1.02806,1.02921,1.02921,0,0,0-1.028,1.02806,1.03,1.03,0,0,0,.74331.988Zm.91077.14361a1.94473,1.94473,0,0,1,1.11022,1.79172v1.0365a.31007.31007,0,0,1-.29688.32186h-4.01741a.31008.31008,0,0,1-.29688-.32186v-1.0365a1.94477,1.94477,0,0,1,1.11017-1.79172,1.641,1.641,0,0,1-.45143-1.13172,1.64864,1.64864,0,0,1,1.64678-1.64684,1.64857,1.64857,0,0,1,1.64691,1.64684A1.641,1.641,0,0,1-765.27865-303.43709Zm-.97267.50013a1.65571,1.65571,0,0,1-.22276.015,1.6556,1.6556,0,0,1-.22276-.015h-.2978a1.24589,1.24589,0,0,0-1.19119,1.29159v.71463h3.42364v-.71463a1.246,1.246,0,0,0-1.19133-1.29159Z"/><g class="cls-12"><rect class="cls-1" x="-785.90679" y="-373.48015" width="995.02425" height="534.01721"/></g><path class="cls-1" d="M-1272.21461,1098.27943a58.16884,58.16884,0,0,1-58.18182-58.18181,58.16887,58.16887,0,0,1,58.18182-58.18182,58.16884,58.16884,0,0,1,58.18181,58.18182A58.16881,58.16881,0,0,1-1272.21461,1098.27943Zm117.27894-44.47292-7.67556-7.91363a99.11838,99.11838,0,0,0,0-23.03256l7.67556-7.86479c4.57961-4.66513,12.79246-10.84463,10.234-16.731l-10.51542-24.42473c-2.55849-5.88637-12.99712-4.66514-19.67476-4.88506l-11.33417-.39076a108.24668,108.24668,0,0,0-16.98839-16.26694l-.35817-10.82017c-.20468-6.35044,1.10009-16.34014-5.117-18.78261l-25.585-10.13632c-6.1404-2.44247-12.66457,5.49563-17.52565,9.76989l-8.264,7.32752a113.84118,113.84118,0,0,0-24.15212,0l-8.21278-7.32752c-4.86113-4.34757-11.35971-12.21236-17.52567-9.76989l-25.58494,10.03858c-6.166,2.44247-4.86113,12.43228-5.117,18.78271l-.40937,10.79577a108.28443,108.28443,0,0,0-17.06514,16.2425l-11.30855.34186c-6.65209.19538-17.11632-1.05018-19.67482,4.885l-10.61775,24.42484c-2.55849,5.86194,5.75661,12.06586,10.234,16.70657l7.67548,7.88921a99.10471,99.10471,0,0,0,0,23.057l-7.67548,7.86476c-4.55412,4.64072-12.79247,10.82018-10.234,16.70656l10.51541,24.42479c2.5585,5.88637,13.02274,4.66514,19.70041,4.885l11.283.36637a108.243,108.243,0,0,0,17.03957,16.31575l.33261,10.77133c.20468,6.35045-1.10016,16.36462,5.117,18.80709l25.58493,10.13628c6.14039,2.44248,12.639-5.49557,17.5001-9.76991l8.28953-7.32743a113.87072,113.87072,0,0,0,24.10106,0l8.23831,7.32743c4.88669,4.372,11.334,12.21239,17.5,9.76991l25.585-10.03858c6.166-2.44248,4.88669-12.40779,5.117-18.80709l.38377-10.79575a108.30124,108.30124,0,0,0,17.0908-16.24248l11.30844-.34195c6.65216-.1954,17.142,1.05026,19.70048-4.885l10.61772-24.42478C-1142.06653,1064.7-1150.40713,1058.49606-1154.93567,1053.80651Z"/><g class="cls-13"><rect class="cls-1" x="-1598.0328" y="-6849.35704" width="16651.63659" height="8936.72739"/></g><path class="cls-1" d="M-1041.56808,1002.27943a29.08442,29.08442,0,0,1-29.09091-29.09091,29.08444,29.08444,0,0,1,29.09091-29.09091,29.08443,29.08443,0,0,1,29.09091,29.09091A29.08442,29.08442,0,0,1-1041.56808,1002.27943Zm58.63947-22.23646-3.83778-3.95682a49.55919,49.55919,0,0,0,0-11.51628l3.83778-3.93239c2.2898-2.33257,6.39623-5.42232,5.117-8.3655l-5.25771-12.21236c-1.27924-2.94319-6.49856-2.33257-9.83738-2.44253l-5.66708-.19538a54.12337,54.12337,0,0,0-8.4942-8.13347l-.17908-5.41009c-.10234-3.17522.55-8.17007-2.55849-9.3913l-12.79249-5.06816c-3.0702-1.22124-6.33229,2.74781-8.76283,4.88494l-4.132,3.66376a56.92059,56.92059,0,0,0-12.07606,0l-4.10639-3.66376c-2.43057-2.17378-5.67986-6.10618-8.76284-4.88494l-12.79246,5.01929c-3.083,1.22123-2.43057,6.21614-2.5585,9.39135l-.20468,5.39789a54.142,54.142,0,0,0-8.53257,8.12124l-5.65428.17094c-3.326.09769-8.55816-.52509-9.83741,2.44247l-5.30887,12.21242c-1.27925,2.931,2.87831,6.03293,5.117,8.35328l3.83774,3.94461a49.5529,49.5529,0,0,0,0,11.52849l-3.83774,3.93238c-2.27706,2.32036-6.39624,5.41009-5.117,8.35328l5.25771,12.2124c1.27924,2.94318,6.51136,2.33256,9.8502,2.44247l5.64148.18319a54.12083,54.12083,0,0,0,8.51978,8.15788l.1663,5.38566c.10234,3.17523-.55007,8.18231,2.55849,9.40355l12.79247,5.06814c3.0702,1.22124,6.31948-2.74779,8.75-4.885l4.14476-3.66371a56.93612,56.93612,0,0,0,12.05054,0l4.11915,3.66371c2.44335,2.186,5.667,6.1062,8.75,4.885l12.79249-5.0193c3.083-1.22123,2.44335-6.20389,2.55849-9.40354l.19189-5.39788a54.15077,54.15077,0,0,0,8.5454-8.12123l5.65422-.171c3.32608-.0977,8.571.52513,9.85024-2.44248l5.30886-12.21239C-976.494,985.48969-980.66434,982.38774-982.92861,980.043Z"/><g class="cls-14"><rect class="cls-1" x="-1204.47717" y="-2971.53876" width="8325.81819" height="4468.36364"/></g><path class="cls-1" d="M-904.15772,954.27943A14.54221,14.54221,0,0,1-918.70317,939.734a14.54221,14.54221,0,0,1,14.54545-14.54545A14.54221,14.54221,0,0,1-889.61227,939.734,14.54221,14.54221,0,0,1-904.15772,954.27943Zm29.31974-11.11824-1.91889-1.9784a24.78014,24.78014,0,0,0,0-5.75814l1.91889-1.9662c1.1449-1.16628,3.19811-2.71116,2.55848-4.18275l-2.62885-6.10618c-.63962-1.47159-3.24928-1.16628-4.91869-1.22127l-2.83354-.09769a27.06233,27.06233,0,0,0-4.2471-4.06673l-.08955-2.705c-.05117-1.58761.275-4.085-1.27924-4.69565l-6.39625-2.53408c-1.53509-.61062-3.16614,1.3739-4.38141,2.44247l-2.066,1.83188a28.45963,28.45963,0,0,0-6.038,0l-2.0532-1.83188c-1.21528-1.08689-2.83993-3.05309-4.38142-2.44247l-6.39623,2.50964c-1.54149.61062-1.21528,3.10807-1.27925,4.69568l-.10234,2.69894a27.07138,27.07138,0,0,0-4.26628,4.06062l-2.82714.08547c-1.663.04884-4.27908-.26255-4.91871,1.22124l-2.65443,6.10621c-.63963,1.46548,1.43915,3.01646,2.55849,4.17664l1.91887,1.9723a24.77649,24.77649,0,0,0,0,5.76425l-1.91887,1.96619c-1.13853,1.16018-3.19812,2.705-2.55849,4.17664l2.62885,6.10619c.63962,1.4716,3.25568,1.16629,4.9251,1.22124l2.82074.0916a27.06058,27.06058,0,0,0,4.25989,4.07893l.08315,2.69284c.05117,1.58761-.275,4.09115,1.27925,4.70177l6.39623,2.53407c1.5351.61062,3.15974-1.37389,4.375-2.44248l2.07238-1.83186a28.46664,28.46664,0,0,0,6.02526,0l2.05958,1.83186c1.22167,1.093,2.83351,3.0531,4.375,2.44248l6.39625-2.50965c1.5415-.61062,1.22167-3.10194,1.27924-4.70177l.096-2.69894a27.07584,27.07584,0,0,0,4.2727-4.06062l2.8271-.08548c1.663-.04885,4.28551.26256,4.92513-1.22124l2.65443-6.1062C-871.6207,945.88456-873.70585,944.33358-874.838,943.16119Z"/><g class="cls-15"><rect class="cls-1" x="-985.61226" y="-1032.62964" width="4162.90904" height="2234.18179"/></g></svg>