<svg id="Layer_1" data-name="Layer 1" xmlns="http://www.w3.org/2000/svg" xmlns:xlink="http://www.w3.org/1999/xlink" viewBox="0 0 32 32"><defs><style>.cls-1{fill:#606060;}.cls-2{clip-path:url(#clip-path);}.cls-3{clip-path:url(#clip-path-2);}.cls-4{clip-path:url(#clip-path-3);}.cls-5{clip-path:url(#clip-path-4);}.cls-6{fill:#646464;}.cls-7{clip-path:url(#clip-path-5);}.cls-8{clip-path:url(#clip-path-6);}.cls-9{clip-path:url(#clip-path-7);}</style><clipPath id="clip-path"><path class="cls-1" d="M16,318.25732a7.27273,7.27273,0,1,1,7.27273-7.27273A7.27111,7.27111,0,0,1,16,318.25732Zm14.65987-5.55912-.95945-.9892a12.389,12.389,0,0,0,0-2.87907l.95945-.9831c.57245-.58314,1.59905-1.35558,1.27924-2.09137l-1.31443-3.05309c-.31981-.7358-1.62464-.58314-2.45934-.61064l-1.41677-.04884a13.53119,13.53119,0,0,0-2.12355-2.03337l-.04477-1.35252c-.02559-.7938.13751-2.04252-.63962-2.34782l-3.19813-1.267c-.76755-.30531-1.58307.68695-2.1907,1.22123l-1.033.91594a14.23043,14.23043,0,0,0-3.019,0l-1.0266-.91594c-.60764-.54344-1.42-1.52654-2.19071-1.22123L8.08435,296.297c-.77074.30531-.60764,1.554-.63962,2.34784l-.05117,1.34947a13.535,13.535,0,0,0-2.13314,2.03031l-1.41357.04273c-.83151.02442-2.13954-.13127-2.45935.61062L.06028,305.731c-.31981.73274.71958,1.50823,1.27925,2.08832l.95943.98615a12.38875,12.38875,0,0,0,0,2.88212l-.95943.9831c-.56927.58009-1.59906,1.35252-1.27925,2.08832l1.31443,3.05309c.31981.7358,1.62784.58315,2.46255.61062l1.41037.0458A13.5305,13.5305,0,0,0,7.37757,320.508l.04158,1.34642c.02558.7938-.13752,2.04557.63962,2.35088l3.19812,1.267c.76754.30531,1.57987-.687,2.18751-1.22124l1.03619-.91593a14.234,14.234,0,0,0,3.01263,0l1.02979.91593c.61084.5465,1.41676,1.52655,2.18751,1.22124l3.19812-1.25483c.77075-.30531.61084-1.551.63962-2.35088l.048-1.34947a13.5375,13.5375,0,0,0,2.13635-2.03031l1.41356-.04274c.83152-.02443,2.14275.13128,2.46256-.61062l1.32721-3.0531C32.26851,314.05989,31.22594,313.2844,30.65987,312.6982Z"/></clipPath><clipPath id="clip-path-2"><path class="cls-1" d="M-512.38992-710.88056a2.67829,2.67829,0,0,0,2.6374,2.6453h149.35269a2.675,2.675,0,0,0,2.63741-2.64315V-879.66256a2.67638,2.67638,0,0,0-2.63741-2.64309H-509.75252a2.67637,2.67637,0,0,0-2.6374,2.64309v15.9041h5.4012A14.10984,14.10984,0,0,1-492.9083-849.6473v2.52074a14.1099,14.1099,0,0,1-14.08042,14.11117h-5.4012v22.37344h5.4012a14.10984,14.10984,0,0,1,14.08042,14.11109v2.52078a14.10987,14.10987,0,0,1-14.08042,14.11114h-5.4012v22.37344h5.4012a14.10987,14.10987,0,0,1,14.08042,14.11114v2.52077a14.10987,14.10987,0,0,1-14.08042,14.11115h-5.4012Zm-14.75959-25.28068h20.15865a4.73427,4.73427,0,0,0,4.72419-4.73449v-2.52077a4.73426,4.73426,0,0,0-4.72419-4.73449h-20.15865a4.73426,4.73426,0,0,0-4.72418,4.73449v2.52077A4.73427,4.73427,0,0,0-527.14951-736.16124Zm0-53.11435h20.15865a4.73427,4.73427,0,0,0,4.72419-4.73449v-2.52078a4.73426,4.73426,0,0,0-4.72419-4.73448h-20.15865a4.73426,4.73426,0,0,0-4.72418,4.73448v2.52078A4.73427,4.73427,0,0,0-527.14951-789.27559Zm0-53.1165h20.15865a4.73425,4.73425,0,0,0,4.72419-4.73447v-2.52074a4.73435,4.73435,0,0,0-4.72419-4.73458h-20.15865a4.73435,4.73435,0,0,0-4.72418,4.73458v2.52074A4.73425,4.73425,0,0,0-527.14951-842.39209Zm178.74332,131.51153A12.02009,12.02009,0,0,1-360.402-698.86075H-509.75466a12.01826,12.01826,0,0,1-11.99364-12.01981v-15.90188h-5.40121a14.10987,14.10987,0,0,1-14.08041-14.11115v-2.52077a14.11172,14.11172,0,0,1,14.08041-14.1133h5.40121v-22.37128h-5.40121a14.10987,14.10987,0,0,1-14.08041-14.11114v-2.52078a14.11167,14.11167,0,0,1,14.08041-14.11324h5.40121v-22.37129h-5.40121a14.1099,14.1099,0,0,1-14.08041-14.11117v-2.52074a14.11213,14.11213,0,0,1,14.08256-14.11331h5.4012v-15.9041a12.01829,12.01829,0,0,1,11.99364-12.01977h149.35269a12.01828,12.01828,0,0,1,11.99364,12.01977Zm-81.87874-89.46636a15.869,15.869,0,0,0,11.45352-15.22072,15.85678,15.85678,0,0,0-15.83912-15.83843,15.85627,15.85627,0,0,0-15.83689,15.83843,15.86781,15.86781,0,0,0,11.45152,15.22072Zm14.03135,2.21238c10.0249,4.45453,17.10432,15.14965,17.10432,27.60363v15.96833a4.77708,4.77708,0,0,1-4.57378,4.95874h-61.89277a4.7771,4.7771,0,0,1-4.57379-4.95874v-15.96833c0-12.454,7.07933-23.149,17.10333-27.60359a25.28218,25.28218,0,0,1-6.95472-17.43538,25.39912,25.39912,0,0,1,25.37046-25.37153,25.39817,25.39817,0,0,1,25.37264,25.37153A25.28089,25.28089,0,0,1-416.25358-798.13454Zm-14.98508,7.7051a25.50005,25.50005,0,0,1-3.43187.23114,25.498,25.498,0,0,1-3.43179-.23114h-4.588c-10.1193,0-18.35169,8.92755-18.35169,19.89853v11.0096h52.7452v-11.0096c0-10.971-8.23453-19.89853-18.35381-19.89853Z"/></clipPath><clipPath id="clip-path-3"><path class="cls-1" d="M-245.21441-815.50676a1.389,1.389,0,0,0,1.36776,1.37187h77.45456a1.38726,1.38726,0,0,0,1.36776-1.37075v-87.53174a1.388,1.388,0,0,0-1.36776-1.37071h-77.45456a1.388,1.388,0,0,0-1.36776,1.37071v8.24789h2.80108a7.31738,7.31738,0,0,1,7.30212,7.31807v1.30726a7.31742,7.31742,0,0,1-7.30212,7.31808h-2.80108v11.6029h2.80108a7.31739,7.31739,0,0,1,7.30212,7.318v1.30728a7.3174,7.3174,0,0,1-7.30212,7.31806h-2.80108v11.6029h2.80108a7.3174,7.3174,0,0,1,7.30212,7.31806v1.30728a7.31741,7.31741,0,0,1-7.30212,7.31807h-2.80108Zm-7.65435-13.1106h10.45431a2.45519,2.45519,0,0,0,2.45-2.45531v-1.30728a2.45519,2.45519,0,0,0-2.45-2.45531h-10.45431a2.45519,2.45519,0,0,0-2.45,2.45531v1.30728A2.45519,2.45519,0,0,0-252.86876-828.61736Zm0-27.54519h10.45431a2.4552,2.4552,0,0,0,2.45-2.45531v-1.30728a2.45519,2.45519,0,0,0-2.45-2.45531h-10.45431a2.45519,2.45519,0,0,0-2.45,2.45531v1.30728A2.4552,2.4552,0,0,0-252.86876-856.16255Zm0-27.5463h10.45431a2.45519,2.45519,0,0,0,2.45-2.45531v-1.30726a2.45523,2.45523,0,0,0-2.45-2.45536h-10.45431a2.45523,2.45523,0,0,0-2.45,2.45536v1.30726A2.45519,2.45519,0,0,0-252.86876-883.70885Zm92.69659,68.20209a6.23364,6.23364,0,0,1-6.221,6.2335h-77.45455a6.23269,6.23269,0,0,1-6.21992-6.2335v-8.24673h-2.80108a7.31741,7.31741,0,0,1-7.30212-7.31807v-1.30728a7.31836,7.31836,0,0,1,7.30212-7.31918h2.80108V-851.2998h-2.80108a7.3174,7.3174,0,0,1-7.30212-7.31806v-1.30728a7.31834,7.31834,0,0,1,7.30212-7.31915h2.80108v-11.60179h-2.80108a7.31742,7.31742,0,0,1-7.30212-7.31808v-1.30726a7.31857,7.31857,0,0,1,7.30324-7.31918h2.80107v-8.2479a6.2327,6.2327,0,0,1,6.21992-6.23347h77.45456a6.2327,6.2327,0,0,1,6.21992,6.23347Zm-42.46245-46.3974a8.2297,8.2297,0,0,0,5.93981-7.89349,8.22335,8.22335,0,0,0-8.21419-8.21384,8.22309,8.22309,0,0,0-8.213,8.21384,8.22906,8.22906,0,0,0,5.93878,7.89349Zm7.27668,1.14735a15.5377,15.5377,0,0,1,8.87033,14.31529v8.2812a2.4774,2.4774,0,0,1-2.372,2.57161h-32.0977a2.47741,2.47741,0,0,1-2.372-2.57161v-8.2812a15.53806,15.53806,0,0,1,8.86981-14.31527,13.11141,13.11141,0,0,1-3.60672-9.042A13.172,13.172,0,0,1-204.909-882.95653a13.17154,13.17154,0,0,1,13.15829,13.15772A13.11071,13.11071,0,0,1-195.35794-860.75681Zm-7.77129,3.99588a13.226,13.226,0,0,1-1.77977.11986,13.22475,13.22475,0,0,1-1.77973-.11986h-2.37935c-5.24789,0-9.51722,4.62983-9.51722,10.31941v5.70959h27.35375v-5.70959c0-5.68958-4.27045-10.31941-9.51832-10.31941Z"/></clipPath><clipPath id="clip-path-4"><path class="cls-1" d="M-87.90262-871.11318a.63978.63978,0,0,0,.63.6319h35.67712a.639.639,0,0,0,.63-.63139v-40.31888a.63933.63933,0,0,0-.63-.63137H-87.2726a.63933.63933,0,0,0-.63.63137v3.79915h1.29023a3.37054,3.37054,0,0,1,3.36351,3.37085v.60215a3.37054,3.37054,0,0,1-3.36351,3.37085h-1.29023v5.34453h1.29023a3.37054,3.37054,0,0,1,3.36351,3.37084v.60216a3.37053,3.37053,0,0,1-3.36351,3.37084h-1.29023v5.34453h1.29023a3.37055,3.37055,0,0,1,3.36351,3.37085v.60216a3.37054,3.37054,0,0,1-3.36351,3.37084h-1.29023Zm-3.52574-6.039h4.81546a1.13092,1.13092,0,0,0,1.12851-1.131v-.60215a1.13092,1.13092,0,0,0-1.12851-1.131h-4.81546a1.13092,1.13092,0,0,0-1.12851,1.131v.60215A1.13092,1.13092,0,0,0-91.42836-877.15219Zm0-12.68787h4.81546a1.13092,1.13092,0,0,0,1.12851-1.131v-.60216a1.13092,1.13092,0,0,0-1.12851-1.131h-4.81546a1.13092,1.13092,0,0,0-1.12851,1.131v.60216A1.13092,1.13092,0,0,0-91.42836-889.84006Zm0-12.68838h4.81546a1.13091,1.13091,0,0,0,1.12851-1.131v-.60215a1.13094,1.13094,0,0,0-1.12851-1.131h-4.81546a1.13094,1.13094,0,0,0-1.12851,1.131v.60215A1.13091,1.13091,0,0,0-91.42836-902.52844Zm42.6979,31.41526a2.87134,2.87134,0,0,1-2.86553,2.87127H-87.27311a2.8709,2.8709,0,0,1-2.865-2.87127v-3.79862h-1.29023a3.37054,3.37054,0,0,1-3.36351-3.37084v-.60216a3.371,3.371,0,0,1,3.36351-3.37136h1.29023v-5.344h-1.29023a3.37054,3.37054,0,0,1-3.36351-3.37084v-.60216a3.371,3.371,0,0,1,3.36351-3.37135h1.29023v-5.344h-1.29023a3.37055,3.37055,0,0,1-3.36351-3.37085v-.60215a3.37108,3.37108,0,0,1,3.364-3.37136h1.29023v-3.79915a2.87091,2.87091,0,0,1,2.865-2.87126h35.67712a2.8709,2.8709,0,0,1,2.865,2.87126Zm-19.55905-21.37158a3.79076,3.79076,0,0,0,2.736-3.6359,3.78783,3.78783,0,0,0-3.78362-3.78345,3.78771,3.78771,0,0,0-3.78309,3.78345,3.79048,3.79048,0,0,0,2.73552,3.6359Zm3.35178.52849a7.157,7.157,0,0,1,4.08585,6.59391v3.81449a1.14114,1.14114,0,0,1-1.09257,1.18454H-76.7293a1.14114,1.14114,0,0,1-1.09257-1.18454v-3.81449a7.15713,7.15713,0,0,1,4.08561-6.5939,6.03935,6.03935,0,0,1-1.66133-4.16493,6.0673,6.0673,0,0,1,6.06045-6.06071,6.06707,6.06707,0,0,1,6.061,6.06071A6.039,6.039,0,0,1-64.93773-891.95627Zm-3.57961,1.84059a6.09251,6.09251,0,0,1-.8198.05521,6.09221,6.09221,0,0,1-.81978-.05521h-1.096a4.58515,4.58515,0,0,0-4.38383,4.75332v2.63H-63.037v-2.63a4.58556,4.58556,0,0,0-4.38433-4.75332Z"/></clipPath><clipPath id="clip-path-5"><path class="cls-1" d="M-437.81806,486.25733a58.16884,58.16884,0,0,1-58.18181-58.18182,58.16887,58.16887,0,0,1,58.18181-58.18182,58.16884,58.16884,0,0,1,58.18182,58.18182A58.16882,58.16882,0,0,1-437.81806,486.25733Zm117.279-44.47292-7.67556-7.91363a99.11838,99.11838,0,0,0,0-23.03256l7.67556-7.86479c4.57961-4.66513,12.79246-10.84463,10.23395-16.731l-10.51542-24.42473c-2.55849-5.88638-12.99712-4.66514-19.67477-4.88507l-11.33416-.39075A108.24668,108.24668,0,0,0-368.8179,340.275l-.35818-10.82018c-.20467-6.35043,1.1001-16.34013-5.117-18.7826l-25.585-10.13632c-6.14039-2.44247-12.66456,5.49563-17.52564,9.76988l-8.264,7.32753a113.84118,113.84118,0,0,0-24.15212,0l-8.21278-7.32753c-4.86113-4.34756-11.35971-12.21235-17.52568-9.76988l-25.58493,10.03857c-6.166,2.44247-4.86113,12.43229-5.117,18.78272l-.40937,10.79576a108.28541,108.28541,0,0,0-17.06515,16.2425l-11.30854.34186c-6.65209.19538-17.11633-1.05018-19.67482,4.885l-10.61775,24.42484c-2.55849,5.86194,5.75661,12.06586,10.234,16.70656l7.67547,7.88922a99.10572,99.10572,0,0,0,0,23.057l-7.67547,7.86477c-4.55412,4.64071-12.79247,10.82018-10.234,16.70656l10.51541,24.42479c2.55849,5.88637,13.02274,4.66513,19.70041,4.885l11.283.36638A108.243,108.243,0,0,0-506.79749,504.263l.3326,10.77133c.20469,6.35045-1.10015,16.36461,5.117,18.80708l25.58493,10.13629c6.14039,2.44248,12.639-5.49558,17.5001-9.76991l8.28953-7.32743a113.87072,113.87072,0,0,0,24.10106,0l8.23831,7.32743c4.88669,4.372,11.334,12.21239,17.5,9.76991l25.585-10.03859c6.166-2.44247,4.8867-12.40778,5.117-18.80708l.38377-10.79576a108.30115,108.30115,0,0,0,17.0908-16.24247l11.30844-.34195c6.65216-.1954,17.142,1.05026,19.70048-4.885l10.61772-24.42478C-307.67,452.67786-316.01057,446.474-320.53911,441.78441Z"/></clipPath><clipPath id="clip-path-6"><path class="cls-1" d="M-207.17153,390.25732a29.08442,29.08442,0,0,1-29.0909-29.0909,29.08443,29.08443,0,0,1,29.0909-29.09091,29.08442,29.08442,0,0,1,29.09091,29.09091A29.08441,29.08441,0,0,1-207.17153,390.25732Zm58.63948-22.23646-3.83778-3.95681a49.55919,49.55919,0,0,0,0-11.51628l3.83778-3.9324c2.2898-2.33256,6.39622-5.42231,5.117-8.36549l-5.25771-12.21237c-1.27924-2.94318-6.49856-2.33257-9.83738-2.44253l-5.66708-.19538a54.12331,54.12331,0,0,0-8.4942-8.13346l-.17909-5.41009c-.10234-3.17522.55-8.17007-2.55848-9.39131l-12.7925-5.06816c-3.07019-1.22123-6.33228,2.74782-8.76282,4.885l-4.132,3.66376a56.92059,56.92059,0,0,0-12.07606,0l-4.10639-3.66376c-2.43057-2.17379-5.67986-6.10618-8.76284-4.885l-12.79247,5.01929c-3.083,1.22124-2.43056,6.21614-2.55849,9.39136l-.20468,5.39788a54.14251,54.14251,0,0,0-8.53258,8.12125l-5.65427.17093c-3.326.09769-8.55816-.52509-9.83741,2.44248l-5.30887,12.21242c-1.27925,2.931,2.8783,6.03293,5.117,8.35328l3.83773,3.94461a49.5529,49.5529,0,0,0,0,11.52849l-3.83773,3.93238c-2.27706,2.32036-6.39624,5.41009-5.117,8.35328l5.2577,12.21239c1.27925,2.94319,6.51137,2.33257,9.85021,2.44248l5.64147.18319a54.12173,54.12173,0,0,0,8.51979,8.15787l.1663,5.38567c.10234,3.17522-.55008,8.1823,2.55849,9.40354l12.79247,5.06814c3.07019,1.22124,6.31948-2.74778,8.75-4.885l4.14476-3.66372a56.9347,56.9347,0,0,0,12.05053,0l4.11916,3.66372c2.44334,2.186,5.667,6.10619,8.75,4.885l12.79249-5.01929c3.083-1.22124,2.44335-6.20389,2.55849-9.40354l.19189-5.39788a54.15081,54.15081,0,0,0,8.5454-8.12124l5.65421-.171c3.32609-.0977,8.571.52513,9.85025-2.44248l5.30886-12.21239C-142.09748,373.46759-146.26778,370.36564-148.532,368.02086Z"/></clipPath><clipPath id="clip-path-7"><path class="cls-1" d="M-69.76116,342.25732a14.54221,14.54221,0,0,1-14.54546-14.54545,14.54222,14.54222,0,0,1,14.54546-14.54546,14.54221,14.54221,0,0,1,14.54545,14.54546A14.5422,14.5422,0,0,1-69.76116,342.25732Zm29.31973-11.11823-1.91889-1.97841a24.779,24.779,0,0,0,0-5.75814l1.91889-1.96619c1.14491-1.16629,3.19812-2.71116,2.55849-4.18275l-2.62885-6.10618c-.63963-1.4716-3.24928-1.16629-4.91869-1.22127l-2.83355-.09769a27.06181,27.06181,0,0,0-4.24709-4.06673l-.08955-2.70505c-.05117-1.58761.275-4.085-1.27924-4.69565l-6.39625-2.53408c-1.5351-.61062-3.16614,1.37391-4.38141,2.44247l-2.066,1.83188a28.461,28.461,0,0,0-6.038,0l-2.05319-1.83188c-1.21528-1.08689-2.83993-3.05309-4.38142-2.44247l-6.39623,2.50965c-1.54149.61061-1.21529,3.10807-1.27925,4.69567l-.10234,2.699a27.07143,27.07143,0,0,0-4.26629,4.06062l-2.82713.08547c-1.663.04884-4.27908-.26255-4.91871,1.22123l-2.65443,6.10621c-.63963,1.46549,1.43915,3.01647,2.55849,4.17664l1.91887,1.97231a24.77641,24.77641,0,0,0,0,5.76424l-1.91887,1.96619c-1.13853,1.16018-3.19812,2.705-2.55849,4.17664l2.62885,6.1062c.63962,1.47159,3.25568,1.16628,4.9251,1.22124l2.82074.09159a27.06064,27.06064,0,0,0,4.25989,4.07894l.08315,2.69283c.05117,1.58762-.275,4.09116,1.27925,4.70177l6.39623,2.53408c1.5351.61062,3.15974-1.3739,4.375-2.44248L-72.8,352.41308a28.468,28.468,0,0,0,6.02526,0l2.05958,1.83186c1.22167,1.093,2.83351,3.0531,4.375,2.44248l6.39625-2.50965c1.54149-.61062,1.22167-3.10195,1.27924-4.70177l.09594-2.69894a27.075,27.075,0,0,0,4.2727-4.06062l2.82711-.08549c1.663-.04885,4.2855.26257,4.92512-1.22124l2.65443-6.10619C-37.22414,333.86245-39.30929,332.31148-40.44143,331.13909Z"/></clipPath></defs><title>p-share app icons</title><path class="cls-1" d="M16,318.25732a7.27273,7.27273,0,1,1,7.27273-7.27273A7.27111,7.27111,0,0,1,16,318.25732Zm14.65987-5.55912-.95945-.9892a12.389,12.389,0,0,0,0-2.87907l.95945-.9831c.57245-.58314,1.59905-1.35558,1.27924-2.09137l-1.31443-3.05309c-.31981-.7358-1.62464-.58314-2.45934-.61064l-1.41677-.04884a13.53119,13.53119,0,0,0-2.12355-2.03337l-.04477-1.35252c-.02559-.7938.13751-2.04252-.63962-2.34782l-3.19813-1.267c-.76755-.30531-1.58307.68695-2.1907,1.22123l-1.033.91594a14.23043,14.23043,0,0,0-3.019,0l-1.0266-.91594c-.60764-.54344-1.42-1.52654-2.19071-1.22123L8.08435,296.297c-.77074.30531-.60764,1.554-.63962,2.34784l-.05117,1.34947a13.535,13.535,0,0,0-2.13314,2.03031l-1.41357.04273c-.83151.02442-2.13954-.13127-2.45935.61062L.06028,305.731c-.31981.73274.71958,1.50823,1.27925,2.08832l.95943.98615a12.38875,12.38875,0,0,0,0,2.88212l-.95943.9831c-.56927.58009-1.59906,1.35252-1.27925,2.08832l1.31443,3.05309c.31981.7358,1.62784.58315,2.46255.61062l1.41037.0458A13.5305,13.5305,0,0,0,7.37757,320.508l.04158,1.34642c.02558.7938-.13752,2.04557.63962,2.35088l3.19812,1.267c.76754.30531,1.57987-.687,2.18751-1.22124l1.03619-.91593a14.234,14.234,0,0,0,3.01263,0l1.02979.91593c.61084.5465,1.41676,1.52655,2.18751,1.22124l3.19812-1.25483c.77075-.30531.61084-1.551.63962-2.35088l.048-1.34947a13.5375,13.5375,0,0,0,2.13635-2.03031l1.41356-.04274c.83152-.02443,2.14275.13128,2.46256-.61062l1.32721-3.0531C32.26851,314.05989,31.22594,313.2844,30.65987,312.6982Z"/><g class="cls-2"><rect class="cls-1" x="-24.72727" y="-675.1972" width="2081.45449" height="1117.09088"/></g><path class="cls-1" d="M-512.38992-710.88056a2.67829,2.67829,0,0,0,2.6374,2.6453h149.35269a2.675,2.675,0,0,0,2.63741-2.64315V-879.66256a2.67638,2.67638,0,0,0-2.63741-2.64309H-509.75252a2.67637,2.67637,0,0,0-2.6374,2.64309v15.9041h5.4012A14.10984,14.10984,0,0,1-492.9083-849.6473v2.52074a14.1099,14.1099,0,0,1-14.08042,14.11117h-5.4012v22.37344h5.4012a14.10984,14.10984,0,0,1,14.08042,14.11109v2.52078a14.10987,14.10987,0,0,1-14.08042,14.11114h-5.4012v22.37344h5.4012a14.10987,14.10987,0,0,1,14.08042,14.11114v2.52077a14.10987,14.10987,0,0,1-14.08042,14.11115h-5.4012Zm-14.75959-25.28068h20.15865a4.73427,4.73427,0,0,0,4.72419-4.73449v-2.52077a4.73426,4.73426,0,0,0-4.72419-4.73449h-20.15865a4.73426,4.73426,0,0,0-4.72418,4.73449v2.52077A4.73427,4.73427,0,0,0-527.14951-736.16124Zm0-53.11435h20.15865a4.73427,4.73427,0,0,0,4.72419-4.73449v-2.52078a4.73426,4.73426,0,0,0-4.72419-4.73448h-20.15865a4.73426,4.73426,0,0,0-4.72418,4.73448v2.52078A4.73427,4.73427,0,0,0-527.14951-789.27559Zm0-53.1165h20.15865a4.73425,4.73425,0,0,0,4.72419-4.73447v-2.52074a4.73435,4.73435,0,0,0-4.72419-4.73458h-20.15865a4.73435,4.73435,0,0,0-4.72418,4.73458v2.52074A4.73425,4.73425,0,0,0-527.14951-842.39209Zm178.74332,131.51153A12.02009,12.02009,0,0,1-360.402-698.86075H-509.75466a12.01826,12.01826,0,0,1-11.99364-12.01981v-15.90188h-5.40121a14.10987,14.10987,0,0,1-14.08041-14.11115v-2.52077a14.11172,14.11172,0,0,1,14.08041-14.1133h5.40121v-22.37128h-5.40121a14.10987,14.10987,0,0,1-14.08041-14.11114v-2.52078a14.11167,14.11167,0,0,1,14.08041-14.11324h5.40121v-22.37129h-5.40121a14.1099,14.1099,0,0,1-14.08041-14.11117v-2.52074a14.11213,14.11213,0,0,1,14.08256-14.11331h5.4012v-15.9041a12.01829,12.01829,0,0,1,11.99364-12.01977h149.35269a12.01828,12.01828,0,0,1,11.99364,12.01977Zm-81.87874-89.46636a15.869,15.869,0,0,0,11.45352-15.22072,15.85678,15.85678,0,0,0-15.83912-15.83843,15.85627,15.85627,0,0,0-15.83689,15.83843,15.86781,15.86781,0,0,0,11.45152,15.22072Zm14.03135,2.21238c10.0249,4.45453,17.10432,15.14965,17.10432,27.60363v15.96833a4.77708,4.77708,0,0,1-4.57378,4.95874h-61.89277a4.7771,4.7771,0,0,1-4.57379-4.95874v-15.96833c0-12.454,7.07933-23.149,17.10333-27.60359a25.28218,25.28218,0,0,1-6.95472-17.43538,25.39912,25.39912,0,0,1,25.37046-25.37153,25.39817,25.39817,0,0,1,25.37264,25.37153A25.28089,25.28089,0,0,1-416.25358-798.13454Zm-14.98508,7.7051a25.50005,25.50005,0,0,1-3.43187.23114,25.498,25.498,0,0,1-3.43179-.23114h-4.588c-10.1193,0-18.35169,8.92755-18.35169,19.89853v11.0096h52.7452v-11.0096c0-10.971-8.23453-19.89853-18.35381-19.89853Z"/><g class="cls-3"><rect class="cls-1" x="-734.05366" y="-1877.22801" width="15329.48691" height="8227.14602"/></g><path class="cls-1" d="M-245.21441-815.50676a1.389,1.389,0,0,0,1.36776,1.37187h77.45456a1.38726,1.38726,0,0,0,1.36776-1.37075v-87.53174a1.388,1.388,0,0,0-1.36776-1.37071h-77.45456a1.388,1.388,0,0,0-1.36776,1.37071v8.24789h2.80108a7.31738,7.31738,0,0,1,7.30212,7.31807v1.30726a7.31742,7.31742,0,0,1-7.30212,7.31808h-2.80108v11.6029h2.80108a7.31739,7.31739,0,0,1,7.30212,7.318v1.30728a7.3174,7.3174,0,0,1-7.30212,7.31806h-2.80108v11.6029h2.80108a7.3174,7.3174,0,0,1,7.30212,7.31806v1.30728a7.31741,7.31741,0,0,1-7.30212,7.31807h-2.80108Zm-7.65435-13.1106h10.45431a2.45519,2.45519,0,0,0,2.45-2.45531v-1.30728a2.45519,2.45519,0,0,0-2.45-2.45531h-10.45431a2.45519,2.45519,0,0,0-2.45,2.45531v1.30728A2.45519,2.45519,0,0,0-252.86876-828.61736Zm0-27.54519h10.45431a2.4552,2.4552,0,0,0,2.45-2.45531v-1.30728a2.45519,2.45519,0,0,0-2.45-2.45531h-10.45431a2.45519,2.45519,0,0,0-2.45,2.45531v1.30728A2.4552,2.4552,0,0,0-252.86876-856.16255Zm0-27.5463h10.45431a2.45519,2.45519,0,0,0,2.45-2.45531v-1.30726a2.45523,2.45523,0,0,0-2.45-2.45536h-10.45431a2.45523,2.45523,0,0,0-2.45,2.45536v1.30726A2.45519,2.45519,0,0,0-252.86876-883.70885Zm92.69659,68.20209a6.23364,6.23364,0,0,1-6.221,6.2335h-77.45455a6.23269,6.23269,0,0,1-6.21992-6.2335v-8.24673h-2.80108a7.31741,7.31741,0,0,1-7.30212-7.31807v-1.30728a7.31836,7.31836,0,0,1,7.30212-7.31918h2.80108V-851.2998h-2.80108a7.3174,7.3174,0,0,1-7.30212-7.31806v-1.30728a7.31834,7.31834,0,0,1,7.30212-7.31915h2.80108v-11.60179h-2.80108a7.31742,7.31742,0,0,1-7.30212-7.31808v-1.30726a7.31857,7.31857,0,0,1,7.30324-7.31918h2.80107v-8.2479a6.2327,6.2327,0,0,1,6.21992-6.23347h77.45456a6.2327,6.2327,0,0,1,6.21992,6.23347Zm-42.46245-46.3974a8.2297,8.2297,0,0,0,5.93981-7.89349,8.22335,8.22335,0,0,0-8.21419-8.21384,8.22309,8.22309,0,0,0-8.213,8.21384,8.22906,8.22906,0,0,0,5.93878,7.89349Zm7.27668,1.14735a15.5377,15.5377,0,0,1,8.87033,14.31529v8.2812a2.4774,2.4774,0,0,1-2.372,2.57161h-32.0977a2.47741,2.47741,0,0,1-2.372-2.57161v-8.2812a15.53806,15.53806,0,0,1,8.86981-14.31527,13.11141,13.11141,0,0,1-3.60672-9.042A13.172,13.172,0,0,1-204.909-882.95653a13.17154,13.17154,0,0,1,13.15829,13.15772A13.11071,13.11071,0,0,1-195.35794-860.75681Zm-7.77129,3.99588a13.226,13.226,0,0,1-1.77977.11986,13.22475,13.22475,0,0,1-1.77973-.11986h-2.37935c-5.24789,0-9.51722,4.62983-9.51722,10.31941v5.70959h27.35375v-5.70959c0-5.68958-4.27045-10.31941-9.51832-10.31941Z"/><g class="cls-4"><rect class="cls-1" x="-360.16959" y="-1420.37649" width="7949.89755" height="4266.61168"/></g><path class="cls-1" d="M-87.90262-871.11318a.63978.63978,0,0,0,.63.6319h35.67712a.639.639,0,0,0,.63-.63139v-40.31888a.63933.63933,0,0,0-.63-.63137H-87.2726a.63933.63933,0,0,0-.63.63137v3.79915h1.29023a3.37054,3.37054,0,0,1,3.36351,3.37085v.60215a3.37054,3.37054,0,0,1-3.36351,3.37085h-1.29023v5.34453h1.29023a3.37054,3.37054,0,0,1,3.36351,3.37084v.60216a3.37053,3.37053,0,0,1-3.36351,3.37084h-1.29023v5.34453h1.29023a3.37055,3.37055,0,0,1,3.36351,3.37085v.60216a3.37054,3.37054,0,0,1-3.36351,3.37084h-1.29023Zm-3.52574-6.039h4.81546a1.13092,1.13092,0,0,0,1.12851-1.131v-.60215a1.13092,1.13092,0,0,0-1.12851-1.131h-4.81546a1.13092,1.13092,0,0,0-1.12851,1.131v.60215A1.13092,1.13092,0,0,0-91.42836-877.15219Zm0-12.68787h4.81546a1.13092,1.13092,0,0,0,1.12851-1.131v-.60216a1.13092,1.13092,0,0,0-1.12851-1.131h-4.81546a1.13092,1.13092,0,0,0-1.12851,1.131v.60216A1.13092,1.13092,0,0,0-91.42836-889.84006Zm0-12.68838h4.81546a1.13091,1.13091,0,0,0,1.12851-1.131v-.60215a1.13094,1.13094,0,0,0-1.12851-1.131h-4.81546a1.13094,1.13094,0,0,0-1.12851,1.131v.60215A1.13091,1.13091,0,0,0-91.42836-902.52844Zm42.6979,31.41526a2.87134,2.87134,0,0,1-2.86553,2.87127H-87.27311a2.8709,2.8709,0,0,1-2.865-2.87127v-3.79862h-1.29023a3.37054,3.37054,0,0,1-3.36351-3.37084v-.60216a3.371,3.371,0,0,1,3.36351-3.37136h1.29023v-5.344h-1.29023a3.37054,3.37054,0,0,1-3.36351-3.37084v-.60216a3.371,3.371,0,0,1,3.36351-3.37135h1.29023v-5.344h-1.29023a3.37055,3.37055,0,0,1-3.36351-3.37085v-.60215a3.37108,3.37108,0,0,1,3.364-3.37136h1.29023v-3.79915a2.87091,2.87091,0,0,1,2.865-2.87126h35.67712a2.8709,2.8709,0,0,1,2.865,2.87126Zm-19.55905-21.37158a3.79076,3.79076,0,0,0,2.736-3.6359,3.78783,3.78783,0,0,0-3.78362-3.78345,3.78771,3.78771,0,0,0-3.78309,3.78345,3.79048,3.79048,0,0,0,2.73552,3.6359Zm3.35178.52849a7.157,7.157,0,0,1,4.08585,6.59391v3.81449a1.14114,1.14114,0,0,1-1.09257,1.18454H-76.7293a1.14114,1.14114,0,0,1-1.09257-1.18454v-3.81449a7.15713,7.15713,0,0,1,4.08561-6.5939,6.03935,6.03935,0,0,1-1.66133-4.16493,6.0673,6.0673,0,0,1,6.06045-6.06071,6.06707,6.06707,0,0,1,6.061,6.06071A6.039,6.039,0,0,1-64.93773-891.95627Zm-3.57961,1.84059a6.09251,6.09251,0,0,1-.8198.05521,6.09221,6.09221,0,0,1-.81978-.05521h-1.096a4.58515,4.58515,0,0,0-4.38383,4.75332v2.63H-63.037v-2.63a4.58556,4.58556,0,0,0-4.38433-4.75332Z"/><g class="cls-5"><rect class="cls-1" x="-140.85328" y="-1149.72832" width="3661.88232" height="1965.28695"/></g><path class="cls-6" d="M19.26016,15.41016A5.44877,5.44877,0,1,0,13.09879,15.32a6.52213,6.52213,0,0,0-4.98923,6.45807v3.22839a1.53815,1.53815,0,0,0,1.5061,1.56506H22.38434a1.53815,1.53815,0,0,0,1.5061-1.56506V21.77808A6.55015,6.55015,0,0,0,19.26016,15.41016Zm-7.33871-4.53394a4.32282,4.32282,0,1,1,4.62127,4.31128h-.59725A4.32751,4.32751,0,0,1,11.92145,10.87622Zm10.844,14.13025a.41427.41427,0,0,1-.3811.44006H9.61566a.41427.41427,0,0,1-.3811-.44006V21.77808a5.3031,5.3031,0,0,1,5.11072-5.46558h1.56158c.11163.00687.22388.01147.33722.01147s.22559-.0046.33725-.01147h1.07291a5.30333,5.30333,0,0,1,5.1112,5.46558Z"/><path class="cls-1" d="M-437.81806,486.25733a58.16884,58.16884,0,0,1-58.18181-58.18182,58.16887,58.16887,0,0,1,58.18181-58.18182,58.16884,58.16884,0,0,1,58.18182,58.18182A58.16882,58.16882,0,0,1-437.81806,486.25733Zm117.279-44.47292-7.67556-7.91363a99.11838,99.11838,0,0,0,0-23.03256l7.67556-7.86479c4.57961-4.66513,12.79246-10.84463,10.23395-16.731l-10.51542-24.42473c-2.55849-5.88638-12.99712-4.66514-19.67477-4.88507l-11.33416-.39075A108.24668,108.24668,0,0,0-368.8179,340.275l-.35818-10.82018c-.20467-6.35043,1.1001-16.34013-5.117-18.7826l-25.585-10.13632c-6.14039-2.44247-12.66456,5.49563-17.52564,9.76988l-8.264,7.32753a113.84118,113.84118,0,0,0-24.15212,0l-8.21278-7.32753c-4.86113-4.34756-11.35971-12.21235-17.52568-9.76988l-25.58493,10.03857c-6.166,2.44247-4.86113,12.43229-5.117,18.78272l-.40937,10.79576a108.28541,108.28541,0,0,0-17.06515,16.2425l-11.30854.34186c-6.65209.19538-17.11633-1.05018-19.67482,4.885l-10.61775,24.42484c-2.55849,5.86194,5.75661,12.06586,10.234,16.70656l7.67547,7.88922a99.10572,99.10572,0,0,0,0,23.057l-7.67547,7.86477c-4.55412,4.64071-12.79247,10.82018-10.234,16.70656l10.51541,24.42479c2.55849,5.88637,13.02274,4.66513,19.70041,4.885l11.283.36638A108.243,108.243,0,0,0-506.79749,504.263l.3326,10.77133c.20469,6.35045-1.10015,16.36461,5.117,18.80708l25.58493,10.13629c6.14039,2.44248,12.639-5.49558,17.5001-9.76991l8.28953-7.32743a113.87072,113.87072,0,0,0,24.10106,0l8.23831,7.32743c4.88669,4.372,11.334,12.21239,17.5,9.76991l25.585-10.03859c6.166-2.44247,4.8867-12.40778,5.117-18.80708l.38377-10.79576a108.30115,108.30115,0,0,0,17.0908-16.24247l11.30844-.34195c6.65216-.1954,17.142,1.05026,19.70048-4.885l10.61772-24.42478C-307.67,452.67786-316.01057,446.474-320.53911,441.78441Z"/><g class="cls-7"><rect class="cls-1" x="-763.63624" y="-7461.37914" width="16651.63659" height="8936.72739"/></g><path class="cls-1" d="M-207.17153,390.25732a29.08442,29.08442,0,0,1-29.0909-29.0909,29.08443,29.08443,0,0,1,29.0909-29.09091,29.08442,29.08442,0,0,1,29.09091,29.09091A29.08441,29.08441,0,0,1-207.17153,390.25732Zm58.63948-22.23646-3.83778-3.95681a49.55919,49.55919,0,0,0,0-11.51628l3.83778-3.9324c2.2898-2.33256,6.39622-5.42231,5.117-8.36549l-5.25771-12.21237c-1.27924-2.94318-6.49856-2.33257-9.83738-2.44253l-5.66708-.19538a54.12331,54.12331,0,0,0-8.4942-8.13346l-.17909-5.41009c-.10234-3.17522.55-8.17007-2.55848-9.39131l-12.7925-5.06816c-3.07019-1.22123-6.33228,2.74782-8.76282,4.885l-4.132,3.66376a56.92059,56.92059,0,0,0-12.07606,0l-4.10639-3.66376c-2.43057-2.17379-5.67986-6.10618-8.76284-4.885l-12.79247,5.01929c-3.083,1.22124-2.43056,6.21614-2.55849,9.39136l-.20468,5.39788a54.14251,54.14251,0,0,0-8.53258,8.12125l-5.65427.17093c-3.326.09769-8.55816-.52509-9.83741,2.44248l-5.30887,12.21242c-1.27925,2.931,2.8783,6.03293,5.117,8.35328l3.83773,3.94461a49.5529,49.5529,0,0,0,0,11.52849l-3.83773,3.93238c-2.27706,2.32036-6.39624,5.41009-5.117,8.35328l5.2577,12.21239c1.27925,2.94319,6.51137,2.33257,9.85021,2.44248l5.64147.18319a54.12173,54.12173,0,0,0,8.51979,8.15787l.1663,5.38567c.10234,3.17522-.55008,8.1823,2.55849,9.40354l12.79247,5.06814c3.07019,1.22124,6.31948-2.74778,8.75-4.885l4.14476-3.66372a56.9347,56.9347,0,0,0,12.05053,0l4.11916,3.66372c2.44334,2.186,5.667,6.10619,8.75,4.885l12.79249-5.01929c3.083-1.22124,2.44335-6.20389,2.55849-9.40354l.19189-5.39788a54.15081,54.15081,0,0,0,8.5454-8.12124l5.65421-.171c3.32609-.0977,8.571.52513,9.85025-2.44248l5.30886-12.21239C-142.09748,373.46759-146.26778,370.36564-148.532,368.02086Z"/><g class="cls-8"><rect class="cls-1" x="-370.08062" y="-3583.56086" width="8325.81819" height="4468.36364"/></g><path class="cls-1" d="M-69.76116,342.25732a14.54221,14.54221,0,0,1-14.54546-14.54545,14.54222,14.54222,0,0,1,14.54546-14.54546,14.54221,14.54221,0,0,1,14.54545,14.54546A14.5422,14.5422,0,0,1-69.76116,342.25732Zm29.31973-11.11823-1.91889-1.97841a24.779,24.779,0,0,0,0-5.75814l1.91889-1.96619c1.14491-1.16629,3.19812-2.71116,2.55849-4.18275l-2.62885-6.10618c-.63963-1.4716-3.24928-1.16629-4.91869-1.22127l-2.83355-.09769a27.06181,27.06181,0,0,0-4.24709-4.06673l-.08955-2.70505c-.05117-1.58761.275-4.085-1.27924-4.69565l-6.39625-2.53408c-1.5351-.61062-3.16614,1.37391-4.38141,2.44247l-2.066,1.83188a28.461,28.461,0,0,0-6.038,0l-2.05319-1.83188c-1.21528-1.08689-2.83993-3.05309-4.38142-2.44247l-6.39623,2.50965c-1.54149.61061-1.21529,3.10807-1.27925,4.69567l-.10234,2.699a27.07143,27.07143,0,0,0-4.26629,4.06062l-2.82713.08547c-1.663.04884-4.27908-.26255-4.91871,1.22123l-2.65443,6.10621c-.63963,1.46549,1.43915,3.01647,2.55849,4.17664l1.91887,1.97231a24.77641,24.77641,0,0,0,0,5.76424l-1.91887,1.96619c-1.13853,1.16018-3.19812,2.705-2.55849,4.17664l2.62885,6.1062c.63962,1.47159,3.25568,1.16628,4.9251,1.22124l2.82074.09159a27.06064,27.06064,0,0,0,4.25989,4.07894l.08315,2.69283c.05117,1.58762-.275,4.09116,1.27925,4.70177l6.39623,2.53408c1.5351.61062,3.15974-1.3739,4.375-2.44248L-72.8,352.41308a28.468,28.468,0,0,0,6.02526,0l2.05958,1.83186c1.22167,1.093,2.83351,3.0531,4.375,2.44248l6.39625-2.50965c1.54149-.61062,1.22167-3.10195,1.27924-4.70177l.09594-2.69894a27.075,27.075,0,0,0,4.2727-4.06062l2.82711-.08549c1.663-.04885,4.2855.26257,4.92512-1.22124l2.65443-6.10619C-37.22414,333.86245-39.30929,332.31148-40.44143,331.13909Z"/><g class="cls-9"><rect class="cls-1" x="-151.21571" y="-1644.65175" width="4162.90904" height="2234.18179"/></g></svg>