<svg id="Layer_1" data-name="Layer 1" xmlns="http://www.w3.org/2000/svg" viewBox="0 0 283.4646 283.4646"><defs><style>.cls-1{fill:#3e76bb;}.cls-2,.cls-3{fill:#010101;}.cls-2{opacity:0.1;}.cls-3{opacity:0.05;}.cls-4{fill:#231f20;}.cls-5{fill:none;}.cls-6{fill:#bcbec0;}</style></defs><title>P-Share-logo</title><path class="cls-1" d="M141.7323,60.0483,102.0208,82.9757v91.6686l20.7948-12.1V140.8366l18.9167,10.9215,39.7115-22.9275V82.9757Zm18.9166,56.7764-18.9166,10.9215-18.9167-10.9215V94.9817L141.7323,84.06l18.9166,10.9216Z"/><polygon class="cls-2" points="181.444 128.831 141.732 151.758 141.897 106.001 181.444 82.976 181.444 128.831"/><polygon class="cls-3" points="141.897 106.001 102.021 82.976 141.732 60.048 181.444 82.976 141.897 106.001"/><path class="cls-4" d="M66.2642,222.9817h3.65a15.4246,15.4246,0,0,1,3.1573.2569,3.573,3.573,0,0,1,1.6772.7988,3.7271,3.7271,0,0,1,.8189,1.1348,5.0044,5.0044,0,0,1,.3847,2.0429,4.7456,4.7456,0,0,1-.3945,2.0323,3.1846,3.1846,0,0,1-.8286,1.1045,3.6118,3.6118,0,0,1-1.4112.73,9.794,9.794,0,0,1-2.7426.3155H67.981V237.2H66.2642Zm1.7168,1.4209v5.6143h1.8052a14.6911,14.6911,0,0,0,2.4468-.1582,3.3123,3.3123,0,0,0,.666-.1777,1.8482,1.8482,0,0,0,.4785-.2754,1.7314,1.7314,0,0,0,.5327-.6817,3.5935,3.5935,0,0,0,.2369-1.4795,3.9128,3.9128,0,0,0-.2564-1.5683,1.7694,1.7694,0,0,0-.5918-.74,2.9756,2.9756,0,0,0-.3652-.2168,2.2584,2.2584,0,0,0-.4439-.1582,7.7609,7.7609,0,0,0-1.7861-.1582Z"/><path class="cls-5" d="M87.7037,238.7093,91.61,221.2757l1.2334.2265-3.9267,17.4434Z"/><path class="cls-4" d="M105.5811,234.23a1.8669,1.8669,0,0,0,.543.7,4.1894,4.1894,0,0,0,.9766.6025,6.1236,6.1236,0,0,0,1.2924.4141,7.1481,7.1481,0,0,0,1.46.1474,3.9221,3.9221,0,0,0,2.3384-.5918,2.5165,2.5165,0,0,0,.9175-2.15,3.3757,3.3757,0,0,0-.148-1.07,1.79,1.79,0,0,0-.4736-.7451,2.8509,2.8509,0,0,0-.8535-.5283,8.4178,8.4178,0,0,0-1.3467-.4092l-.2564-.0595q-.2175-.0485-.8486-.2071-.6314-.1568-1.0855-.2959a5.9266,5.9266,0,0,1-1.7167-.8086,3.2637,3.2637,0,0,1-.9864-1.209,3.768,3.768,0,0,1-.3159-1.5937,4.2008,4.2008,0,0,1,.2564-1.5088,3.1521,3.1521,0,0,1,.74-1.1445,4.0368,4.0368,0,0,1,1.52-.8682,7.9023,7.9023,0,0,1,2.3281-.2764,8.4637,8.4637,0,0,1,1.7862.1524,4.7975,4.7975,0,0,1,1.2431.459,5.68,5.68,0,0,1,.7793.5078,3.3176,3.3176,0,0,1,.4639.43l-.5723,1.5a3.19,3.19,0,0,0-.4443-.4942,3.5122,3.5122,0,0,0-.7-.4931,5.2272,5.2272,0,0,0-1.0659-.3994,6.3531,6.3531,0,0,0-1.5884-.1631,5.9415,5.9415,0,0,0-1.6724.1826,1.8411,1.8411,0,0,0-.9418.6465,2.2185,2.2185,0,0,0-.4146,1.4306,1.759,1.759,0,0,0,.8584,1.6182,3.7332,3.7332,0,0,0,.9175.4189q.5427.1729,1.4009.37.9968.2475,1.5341.3945a7.9939,7.9939,0,0,1,1.0215.3555,5.0513,5.0513,0,0,1,1.0015.5429,2.9938,2.9938,0,0,1,.7251.73,4.2087,4.2087,0,0,1,.6313,2.4571,3.8475,3.8475,0,0,1-1.6967,3.5029,6.47,6.47,0,0,1-3.503.8086,7.8656,7.8656,0,0,1-3.0683-.5528,4.0249,4.0249,0,0,1-1.041-.6162,2.5874,2.5874,0,0,1-.646-.7744Z"/><path class="cls-4" d="M127.83,237.2V222.9817h1.7168v6.1573h7.8042v-6.1573h1.7168V237.2h-1.7168v-6.709H129.547V237.2Z"/><path class="cls-4" d="M151.2432,237.2l5.3672-14.2178h1.9829L163.9312,237.2h-1.7363l-1.3418-3.6211h-6.5317L152.9893,237.2Zm9.1265-4.9531-2.7627-8.1592-2.812,8.1592Z"/><path class="cls-4" d="M176.1261,222.9817h4.39q1.0063,0,1.7466.04a4.9041,4.9041,0,0,1,2.6933.789A3.5522,3.5522,0,0,1,186.19,226.86a6.0674,6.0674,0,0,1-.2612,1.9238,2.586,2.586,0,0,1-.8535,1.2334,3.2866,3.2866,0,0,1-1.125.5322,7.7058,7.7058,0,0,1-1.5786.2471,6.2113,6.2113,0,0,1,.9868.957,8.2553,8.2553,0,0,1,.5029.7l2.7432,4.5488-1.5.6016-1.2925-2.17q-1.4106-2.379-2.19-3.4932a7.6277,7.6277,0,0,0-.79-.9765h-2.9892V237.2h-1.7168Zm8.2036,5.1065a5.9078,5.9078,0,0,0,.1035-1.2188,4.33,4.33,0,0,0-.1382-1.1992,1.4767,1.4767,0,0,0-.4731-.7441,2.1369,2.1369,0,0,0-1.066-.4346,12.6547,12.6547,0,0,0-1.8842-.1084h-3.0288v5.17h3.3837q.4146,0,.6021-.01a4.703,4.703,0,0,0,1.2725-.1778,2.0773,2.0773,0,0,0,.8388-.4834A1.68,1.68,0,0,0,184.33,228.0882Z"/><path class="cls-4" d="M199.4005,237.2V222.9817h8.4853l-.2178,1.4014h-6.5507V229.07h6.0185v1.3614h-6.0185v5.3574h6.57l.2275,1.4111Z"/><path class="cls-6" d="M88.4259,238.5735a.5152.5152,0,0,1-.1084-.0117.5.5,0,0,1-.38-.5967L91.53,221.7444a.5.5,0,0,1,.9765.2168l-3.5932,16.2207A.5.5,0,0,1,88.4259,238.5735Z"/></svg>