<svg xmlns="http://www.w3.org/2000/svg" viewBox="0 0 167 239" preserveAspectRatio="xMidYMid meet">
<path class="cls-2" d="M 83,0 0,48 v 96 c 83,47 0,0 83,48 l 83,-48 V 48 Z M 123,119 83,142 43,119 V 73 L 83,50 123,73 Z"
    id="path3799-3" />
<polygon class="cls-1" points="249,179 209,202 209,249 249,272 289,249 289,202 " id="polygon3797" transform="translate(-166,-129)" />
<path class="cls-2 p-stem" d="M 0,238 43,213 V 167 L 0,143 Z" id="path3799" />
<polygon class="cls-3" points="250,226 333,177 333,274 250,322 " id="polygon3801" transform="translate(-166,-129)" />
<polygon class="cls-4" points="250,129 333,177 250,226 166,177 " id="polygon3803" transform="translate(-166,-129)" />
</svg>
