<svg id="Layer_1" data-name="Layer 1" xmlns="http://www.w3.org/2000/svg" xmlns:xlink="http://www.w3.org/1999/xlink" viewBox="0 0 32 32"><defs><style>.cls-1{fill:#606060;}.cls-2{fill:none;}.cls-3{clip-path:url(#clip-path);}.cls-4{clip-path:url(#clip-path-2);}.cls-5{clip-path:url(#clip-path-3);}.cls-6{clip-path:url(#clip-path-4);}.cls-7{isolation:isolate;}.cls-8{clip-path:url(#clip-path-5);}.cls-9{clip-path:url(#clip-path-6);}.cls-10{fill:#f5a623;}</style><clipPath id="clip-path"><path class="cls-1" d="M-512.38992-1636.45359a2.67829,2.67829,0,0,0,2.6374,2.64531h149.35269a2.675,2.675,0,0,0,2.63741-2.64315v-168.78415a2.67638,2.67638,0,0,0-2.63741-2.64309H-509.75252a2.67637,2.67637,0,0,0-2.6374,2.64309v15.9041h5.4012a14.10984,14.10984,0,0,1,14.08042,14.11116v2.52074a14.1099,14.1099,0,0,1-14.08042,14.11117h-5.4012v22.37344h5.4012a14.10984,14.10984,0,0,1,14.08042,14.11109v2.52078a14.10987,14.10987,0,0,1-14.08042,14.11114h-5.4012v22.37343h5.4012a14.10988,14.10988,0,0,1,14.08042,14.11114v2.52078a14.10987,14.10987,0,0,1-14.08042,14.11115h-5.4012Zm-14.75959-25.28068h20.15865a4.73426,4.73426,0,0,0,4.72419-4.73448v-2.52078a4.73426,4.73426,0,0,0-4.72419-4.73449h-20.15865a4.73426,4.73426,0,0,0-4.72418,4.73449v2.52078A4.73426,4.73426,0,0,0-527.14951-1661.73427Zm0-53.11434h20.15865a4.73427,4.73427,0,0,0,4.72419-4.73449v-2.52078a4.73426,4.73426,0,0,0-4.72419-4.73448h-20.15865a4.73425,4.73425,0,0,0-4.72418,4.73448v2.52078A4.73427,4.73427,0,0,0-527.14951-1714.84861Zm0-53.1165h20.15865a4.73425,4.73425,0,0,0,4.72419-4.73447v-2.52074a4.73435,4.73435,0,0,0-4.72419-4.73458h-20.15865a4.73435,4.73435,0,0,0-4.72418,4.73458v2.52074A4.73425,4.73425,0,0,0-527.14951-1767.96511Zm178.74332,131.51152a12.02009,12.02009,0,0,1-11.99579,12.01982H-509.75466a12.01827,12.01827,0,0,1-11.99364-12.01982v-15.90187h-5.40121a14.10987,14.10987,0,0,1-14.08041-14.11115v-2.52078a14.11171,14.11171,0,0,1,14.08041-14.11329h5.40121V-1705.472h-5.40121a14.10987,14.10987,0,0,1-14.08041-14.11114v-2.52078a14.11167,14.11167,0,0,1,14.08041-14.11324h5.40121v-22.37129h-5.40121a14.10991,14.10991,0,0,1-14.08041-14.11117v-2.52074a14.11213,14.11213,0,0,1,14.08256-14.11331h5.4012v-15.9041a12.01829,12.01829,0,0,1,11.99364-12.01977h149.35269a12.01828,12.01828,0,0,1,11.99364,12.01977Zm-81.87874-89.46636a15.869,15.869,0,0,0,11.45352-15.22071,15.85678,15.85678,0,0,0-15.83912-15.83843,15.85627,15.85627,0,0,0-15.83689,15.83843,15.86778,15.86778,0,0,0,11.45152,15.22071Zm14.03135,2.21239c10.0249,4.45453,17.10432,15.14965,17.10432,27.60363v15.96833a4.77708,4.77708,0,0,1-4.57378,4.95874h-61.89277a4.7771,4.7771,0,0,1-4.57379-4.95874v-15.96833c0-12.454,7.07933-23.149,17.10333-27.60359a25.28219,25.28219,0,0,1-6.95472-17.43539,25.39912,25.39912,0,0,1,25.37046-25.37152,25.39816,25.39816,0,0,1,25.37264,25.37152A25.2809,25.2809,0,0,1-416.25358-1723.70756Zm-14.98508,7.7051a25.50005,25.50005,0,0,1-3.43187.23113,25.498,25.498,0,0,1-3.43179-.23113h-4.588c-10.1193,0-18.35169,8.92755-18.35169,19.89853v11.00959h52.7452v-11.00959c0-10.971-8.23453-19.89853-18.35381-19.89853Z"/></clipPath><clipPath id="clip-path-2"><path class="cls-1" d="M-245.21441-1741.07978a1.389,1.389,0,0,0,1.36776,1.37186h77.45456a1.38725,1.38725,0,0,0,1.36776-1.37074v-87.53174a1.388,1.388,0,0,0-1.36776-1.37071h-77.45456a1.388,1.388,0,0,0-1.36776,1.37071v8.24789h2.80108a7.31738,7.31738,0,0,1,7.30212,7.31807v1.30726a7.31742,7.31742,0,0,1-7.30212,7.31808h-2.80108v11.6029h2.80108a7.31739,7.31739,0,0,1,7.30212,7.318v1.30728a7.3174,7.3174,0,0,1-7.30212,7.31806h-2.80108v11.6029h2.80108a7.3174,7.3174,0,0,1,7.30212,7.31806v1.30728a7.3174,7.3174,0,0,1-7.30212,7.31806h-2.80108Zm-7.65435-13.1106h10.45431a2.45519,2.45519,0,0,0,2.45-2.45531v-1.30728a2.45519,2.45519,0,0,0-2.45-2.45531h-10.45431a2.45519,2.45519,0,0,0-2.45,2.45531v1.30728A2.45519,2.45519,0,0,0-252.86876-1754.19038Zm0-27.54519h10.45431a2.4552,2.4552,0,0,0,2.45-2.45531v-1.30728a2.45519,2.45519,0,0,0-2.45-2.45531h-10.45431a2.45519,2.45519,0,0,0-2.45,2.45531v1.30728A2.4552,2.4552,0,0,0-252.86876-1781.73557Zm0-27.5463h10.45431a2.45519,2.45519,0,0,0,2.45-2.45531v-1.30726a2.45523,2.45523,0,0,0-2.45-2.45536h-10.45431a2.45523,2.45523,0,0,0-2.45,2.45536v1.30726A2.45519,2.45519,0,0,0-252.86876-1809.28187Zm92.69659,68.20209a6.23364,6.23364,0,0,1-6.221,6.2335h-77.45455a6.23269,6.23269,0,0,1-6.21992-6.2335v-8.24674h-2.80108a7.3174,7.3174,0,0,1-7.30212-7.31806v-1.30728a7.31836,7.31836,0,0,1,7.30212-7.31918h2.80108v-11.60178h-2.80108a7.3174,7.3174,0,0,1-7.30212-7.31806v-1.30728a7.31834,7.31834,0,0,1,7.30212-7.31915h2.80108v-11.60179h-2.80108a7.31743,7.31743,0,0,1-7.30212-7.31808v-1.30726a7.31857,7.31857,0,0,1,7.30324-7.31918h2.80107v-8.2479a6.2327,6.2327,0,0,1,6.21992-6.23347h77.45456a6.2327,6.2327,0,0,1,6.21992,6.23347Zm-42.46245-46.3974a8.2297,8.2297,0,0,0,5.93981-7.89349,8.22335,8.22335,0,0,0-8.21419-8.21384,8.22309,8.22309,0,0,0-8.213,8.21384,8.22906,8.22906,0,0,0,5.93878,7.89349Zm7.27668,1.14734a15.53772,15.53772,0,0,1,8.87033,14.3153v8.2812a2.4774,2.4774,0,0,1-2.372,2.57161h-32.0977a2.47741,2.47741,0,0,1-2.372-2.57161v-8.2812a15.53806,15.53806,0,0,1,8.86981-14.31527,13.11141,13.11141,0,0,1-3.60672-9.042,13.172,13.172,0,0,1,13.15716-13.15772,13.17154,13.17154,0,0,1,13.15829,13.15772A13.11067,13.11067,0,0,1-195.35794-1786.32984Zm-7.77129,3.99589a13.226,13.226,0,0,1-1.77977.11986,13.22475,13.22475,0,0,1-1.77973-.11986h-2.37935c-5.24789,0-9.51722,4.62983-9.51722,10.31941v5.70959h27.35375v-5.70959c0-5.68958-4.27045-10.31941-9.51832-10.31941Z"/></clipPath><clipPath id="clip-path-3"><path class="cls-1" d="M-437.81806-439.31569a58.16884,58.16884,0,0,1-58.18181-58.18182,58.16887,58.16887,0,0,1,58.18181-58.18182,58.16884,58.16884,0,0,1,58.18182,58.18182A58.16882,58.16882,0,0,1-437.81806-439.31569Zm117.279-44.47292-7.67556-7.91363a99.11838,99.11838,0,0,0,0-23.03256l7.67556-7.86479c4.57961-4.66513,12.79246-10.84463,10.23395-16.731l-10.51542-24.42473c-2.55849-5.88638-12.99712-4.66514-19.67477-4.88507l-11.33416-.39076a108.24707,108.24707,0,0,0-16.98839-16.26693l-.35818-10.82018c-.20467-6.35043,1.1001-16.34013-5.117-18.7826l-25.585-10.13632c-6.14039-2.44247-12.66456,5.49562-17.52564,9.76988l-8.264,7.32753a113.84118,113.84118,0,0,0-24.15212,0l-8.21278-7.32753c-4.86113-4.34756-11.35971-12.21235-17.52568-9.76988l-25.58493,10.03857c-6.166,2.44247-4.86113,12.43229-5.117,18.78272l-.40937,10.79576a108.28541,108.28541,0,0,0-17.06515,16.2425l-11.30854.34186c-6.65209.19538-17.11633-1.05018-19.67482,4.885L-565.33583-539.526c-2.55849,5.86193,5.75661,12.06586,10.234,16.70656l7.67547,7.88922a99.10572,99.10572,0,0,0,0,23.057l-7.67547,7.86477c-4.55412,4.64071-12.79247,10.82018-10.234,16.70656l10.51541,24.42479c2.55849,5.88637,13.02274,4.66513,19.70041,4.885l11.283.36637A108.24305,108.24305,0,0,0-506.79749-421.31l.3326,10.77133c.20469,6.35045-1.10015,16.36461,5.117,18.80708l25.58493,10.13629c6.14039,2.44248,12.639-5.49558,17.5001-9.76991l8.28953-7.32744a113.86939,113.86939,0,0,0,24.10106,0l8.23831,7.32744c4.88669,4.372,11.334,12.21239,17.5,9.76991l25.585-10.03859c6.166-2.44247,4.8867-12.40778,5.117-18.80708l.38377-10.79576a108.30115,108.30115,0,0,0,17.0908-16.24247l11.30844-.34195c6.65216-.1954,17.142,1.05026,19.70048-4.885l10.61772-24.42478C-307.67-472.89516-316.01057-479.09906-320.53911-483.78861Z"/></clipPath><clipPath id="clip-path-4"><path class="cls-2" d="M12.5751,24.51219a.7744.7744,0,0,1-.74691.79925,4.81679,4.81679,0,0,1-2.76754-.88419.8192.8192,0,0,1-.3374-.71448.80511.80511,0,0,1,.40954-.66991.70634.70634,0,0,1,.74694.04458,3.382,3.382,0,0,0,1.94846.62164.77536.77536,0,0,1,.73609.79925Zm-3.89395-3.029a.84154.84154,0,0,1-.03234.60286.752.752,0,0,1-.41995.40068.6779.6779,0,0,1-.24028.04181.73634.73634,0,0,1-.7067-.53217,5.725,5.725,0,0,1-.0212-3.42115.723.723,0,0,1,.92578-.50177.803.803,0,0,1,.46642.99593,4.03812,4.03812,0,0,0,0,2.41Zm.1821-4.405a.67306.67306,0,0,1-.12736-.5461.72745.72745,0,0,1,.3375-.46729c.09729-.05981.20236-.11963.30743-.17593l1.94577-1.16117a.88074.88074,0,0,1,.80557-.04062.73014.73014,0,0,1,.44168.6105.71039.71039,0,0,1-.36387.65111l-1.99636,1.17876c-.10507.0563-.17512.09852-.24517.13723a.84952.84952,0,0,1-1.10519-.18649Zm6.812,1.3835-.60973-4.66207,3.44141-1.99593A.757.757,0,0,0,18.78,10.75782a.78248.78248,0,0,0-1.06235-.26883L14.2762,12.48492,10.43454,9.69357,22.8498,8.401Zm9.20871-11.401a.765.765,0,0,0-.73564-.368L8.33207,8.367a.76178.76178,0,0,0-.36781,1.37254l5.51728,4.0477.87541,6.78541a.7613.7613,0,0,0,1.383.34221L24.85082,7.88861A.762.762,0,0,0,24.88392,7.06067Z"/></clipPath><clipPath id="clip-path-5"><rect class="cls-2" x="5.93936" y="5.61828" width="20.12128" height="20.76345"/></clipPath><clipPath id="clip-path-6"><rect class="cls-2" x="7.00964" y="6.68856" width="17.98072" height="18.62289"/></clipPath></defs><title>p-share app icons</title><path class="cls-1" d="M-512.38992-1636.45359a2.67829,2.67829,0,0,0,2.6374,2.64531h149.35269a2.675,2.675,0,0,0,2.63741-2.64315v-168.78415a2.67638,2.67638,0,0,0-2.63741-2.64309H-509.75252a2.67637,2.67637,0,0,0-2.6374,2.64309v15.9041h5.4012a14.10984,14.10984,0,0,1,14.08042,14.11116v2.52074a14.1099,14.1099,0,0,1-14.08042,14.11117h-5.4012v22.37344h5.4012a14.10984,14.10984,0,0,1,14.08042,14.11109v2.52078a14.10987,14.10987,0,0,1-14.08042,14.11114h-5.4012v22.37343h5.4012a14.10988,14.10988,0,0,1,14.08042,14.11114v2.52078a14.10987,14.10987,0,0,1-14.08042,14.11115h-5.4012Zm-14.75959-25.28068h20.15865a4.73426,4.73426,0,0,0,4.72419-4.73448v-2.52078a4.73426,4.73426,0,0,0-4.72419-4.73449h-20.15865a4.73426,4.73426,0,0,0-4.72418,4.73449v2.52078A4.73426,4.73426,0,0,0-527.14951-1661.73427Zm0-53.11434h20.15865a4.73427,4.73427,0,0,0,4.72419-4.73449v-2.52078a4.73426,4.73426,0,0,0-4.72419-4.73448h-20.15865a4.73425,4.73425,0,0,0-4.72418,4.73448v2.52078A4.73427,4.73427,0,0,0-527.14951-1714.84861Zm0-53.1165h20.15865a4.73425,4.73425,0,0,0,4.72419-4.73447v-2.52074a4.73435,4.73435,0,0,0-4.72419-4.73458h-20.15865a4.73435,4.73435,0,0,0-4.72418,4.73458v2.52074A4.73425,4.73425,0,0,0-527.14951-1767.96511Zm178.74332,131.51152a12.02009,12.02009,0,0,1-11.99579,12.01982H-509.75466a12.01827,12.01827,0,0,1-11.99364-12.01982v-15.90187h-5.40121a14.10987,14.10987,0,0,1-14.08041-14.11115v-2.52078a14.11171,14.11171,0,0,1,14.08041-14.11329h5.40121V-1705.472h-5.40121a14.10987,14.10987,0,0,1-14.08041-14.11114v-2.52078a14.11167,14.11167,0,0,1,14.08041-14.11324h5.40121v-22.37129h-5.40121a14.10991,14.10991,0,0,1-14.08041-14.11117v-2.52074a14.11213,14.11213,0,0,1,14.08256-14.11331h5.4012v-15.9041a12.01829,12.01829,0,0,1,11.99364-12.01977h149.35269a12.01828,12.01828,0,0,1,11.99364,12.01977Zm-81.87874-89.46636a15.869,15.869,0,0,0,11.45352-15.22071,15.85678,15.85678,0,0,0-15.83912-15.83843,15.85627,15.85627,0,0,0-15.83689,15.83843,15.86778,15.86778,0,0,0,11.45152,15.22071Zm14.03135,2.21239c10.0249,4.45453,17.10432,15.14965,17.10432,27.60363v15.96833a4.77708,4.77708,0,0,1-4.57378,4.95874h-61.89277a4.7771,4.7771,0,0,1-4.57379-4.95874v-15.96833c0-12.454,7.07933-23.149,17.10333-27.60359a25.28219,25.28219,0,0,1-6.95472-17.43539,25.39912,25.39912,0,0,1,25.37046-25.37152,25.39816,25.39816,0,0,1,25.37264,25.37152A25.2809,25.2809,0,0,1-416.25358-1723.70756Zm-14.98508,7.7051a25.50005,25.50005,0,0,1-3.43187.23113,25.498,25.498,0,0,1-3.43179-.23113h-4.588c-10.1193,0-18.35169,8.92755-18.35169,19.89853v11.00959h52.7452v-11.00959c0-10.971-8.23453-19.89853-18.35381-19.89853Z"/><g class="cls-3"><rect class="cls-1" x="-734.05366" y="-2802.80104" width="15329.48691" height="8227.14602"/></g><path class="cls-1" d="M-245.21441-1741.07978a1.389,1.389,0,0,0,1.36776,1.37186h77.45456a1.38725,1.38725,0,0,0,1.36776-1.37074v-87.53174a1.388,1.388,0,0,0-1.36776-1.37071h-77.45456a1.388,1.388,0,0,0-1.36776,1.37071v8.24789h2.80108a7.31738,7.31738,0,0,1,7.30212,7.31807v1.30726a7.31742,7.31742,0,0,1-7.30212,7.31808h-2.80108v11.6029h2.80108a7.31739,7.31739,0,0,1,7.30212,7.318v1.30728a7.3174,7.3174,0,0,1-7.30212,7.31806h-2.80108v11.6029h2.80108a7.3174,7.3174,0,0,1,7.30212,7.31806v1.30728a7.3174,7.3174,0,0,1-7.30212,7.31806h-2.80108Zm-7.65435-13.1106h10.45431a2.45519,2.45519,0,0,0,2.45-2.45531v-1.30728a2.45519,2.45519,0,0,0-2.45-2.45531h-10.45431a2.45519,2.45519,0,0,0-2.45,2.45531v1.30728A2.45519,2.45519,0,0,0-252.86876-1754.19038Zm0-27.54519h10.45431a2.4552,2.4552,0,0,0,2.45-2.45531v-1.30728a2.45519,2.45519,0,0,0-2.45-2.45531h-10.45431a2.45519,2.45519,0,0,0-2.45,2.45531v1.30728A2.4552,2.4552,0,0,0-252.86876-1781.73557Zm0-27.5463h10.45431a2.45519,2.45519,0,0,0,2.45-2.45531v-1.30726a2.45523,2.45523,0,0,0-2.45-2.45536h-10.45431a2.45523,2.45523,0,0,0-2.45,2.45536v1.30726A2.45519,2.45519,0,0,0-252.86876-1809.28187Zm92.69659,68.20209a6.23364,6.23364,0,0,1-6.221,6.2335h-77.45455a6.23269,6.23269,0,0,1-6.21992-6.2335v-8.24674h-2.80108a7.3174,7.3174,0,0,1-7.30212-7.31806v-1.30728a7.31836,7.31836,0,0,1,7.30212-7.31918h2.80108v-11.60178h-2.80108a7.3174,7.3174,0,0,1-7.30212-7.31806v-1.30728a7.31834,7.31834,0,0,1,7.30212-7.31915h2.80108v-11.60179h-2.80108a7.31743,7.31743,0,0,1-7.30212-7.31808v-1.30726a7.31857,7.31857,0,0,1,7.30324-7.31918h2.80107v-8.2479a6.2327,6.2327,0,0,1,6.21992-6.23347h77.45456a6.2327,6.2327,0,0,1,6.21992,6.23347Zm-42.46245-46.3974a8.2297,8.2297,0,0,0,5.93981-7.89349,8.22335,8.22335,0,0,0-8.21419-8.21384,8.22309,8.22309,0,0,0-8.213,8.21384,8.22906,8.22906,0,0,0,5.93878,7.89349Zm7.27668,1.14734a15.53772,15.53772,0,0,1,8.87033,14.3153v8.2812a2.4774,2.4774,0,0,1-2.372,2.57161h-32.0977a2.47741,2.47741,0,0,1-2.372-2.57161v-8.2812a15.53806,15.53806,0,0,1,8.86981-14.31527,13.11141,13.11141,0,0,1-3.60672-9.042,13.172,13.172,0,0,1,13.15716-13.15772,13.17154,13.17154,0,0,1,13.15829,13.15772A13.11067,13.11067,0,0,1-195.35794-1786.32984Zm-7.77129,3.99589a13.226,13.226,0,0,1-1.77977.11986,13.22475,13.22475,0,0,1-1.77973-.11986h-2.37935c-5.24789,0-9.51722,4.62983-9.51722,10.31941v5.70959h27.35375v-5.70959c0-5.68958-4.27045-10.31941-9.51832-10.31941Z"/><g class="cls-4"><rect class="cls-1" x="-360.16959" y="-2345.94952" width="7949.89755" height="4266.61168"/></g><path class="cls-1" d="M-437.81806-439.31569a58.16884,58.16884,0,0,1-58.18181-58.18182,58.16887,58.16887,0,0,1,58.18181-58.18182,58.16884,58.16884,0,0,1,58.18182,58.18182A58.16882,58.16882,0,0,1-437.81806-439.31569Zm117.279-44.47292-7.67556-7.91363a99.11838,99.11838,0,0,0,0-23.03256l7.67556-7.86479c4.57961-4.66513,12.79246-10.84463,10.23395-16.731l-10.51542-24.42473c-2.55849-5.88638-12.99712-4.66514-19.67477-4.88507l-11.33416-.39076a108.24707,108.24707,0,0,0-16.98839-16.26693l-.35818-10.82018c-.20467-6.35043,1.1001-16.34013-5.117-18.7826l-25.585-10.13632c-6.14039-2.44247-12.66456,5.49562-17.52564,9.76988l-8.264,7.32753a113.84118,113.84118,0,0,0-24.15212,0l-8.21278-7.32753c-4.86113-4.34756-11.35971-12.21235-17.52568-9.76988l-25.58493,10.03857c-6.166,2.44247-4.86113,12.43229-5.117,18.78272l-.40937,10.79576a108.28541,108.28541,0,0,0-17.06515,16.2425l-11.30854.34186c-6.65209.19538-17.11633-1.05018-19.67482,4.885L-565.33583-539.526c-2.55849,5.86193,5.75661,12.06586,10.234,16.70656l7.67547,7.88922a99.10572,99.10572,0,0,0,0,23.057l-7.67547,7.86477c-4.55412,4.64071-12.79247,10.82018-10.234,16.70656l10.51541,24.42479c2.55849,5.88637,13.02274,4.66513,19.70041,4.885l11.283.36637A108.24305,108.24305,0,0,0-506.79749-421.31l.3326,10.77133c.20469,6.35045-1.10015,16.36461,5.117,18.80708l25.58493,10.13629c6.14039,2.44248,12.639-5.49558,17.5001-9.76991l8.28953-7.32744a113.86939,113.86939,0,0,0,24.10106,0l8.23831,7.32744c4.88669,4.372,11.334,12.21239,17.5,9.76991l25.585-10.03859c6.166-2.44247,4.8867-12.40778,5.117-18.80708l.38377-10.79576a108.30115,108.30115,0,0,0,17.0908-16.24247l11.30844-.34195c6.65216-.1954,17.142,1.05026,19.70048-4.885l10.61772-24.42478C-307.67-472.89516-316.01057-479.09906-320.53911-483.78861Z"/><g class="cls-5"><rect class="cls-1" x="-763.63624" y="-8386.95216" width="16651.63659" height="8936.72739"/></g><g class="cls-6"><g class="cls-7"><g class="cls-8"><g class="cls-9"><rect class="cls-10" x="5.93936" y="5.61828" width="20.12128" height="20.76345"/></g></g></g></g></svg>