<svg id="Layer_1" data-name="Layer 1" xmlns="http://www.w3.org/2000/svg" xmlns:xlink="http://www.w3.org/1999/xlink" viewBox="0 0 32 32"><defs><style>.cls-1,.cls-3{fill:#fff;}.cls-2{fill:#606060;}.cls-3{fill-rule:evenodd;}.cls-4{clip-path:url(#clip-path);}.cls-5{clip-path:url(#clip-path-2);}.cls-6{clip-path:url(#clip-path-3);}.cls-7{clip-path:url(#clip-path-4);}.cls-8{clip-path:url(#clip-path-5);}.cls-9{clip-path:url(#clip-path-6);}.cls-10{clip-path:url(#clip-path-7);}</style><clipPath id="clip-path"><path class="cls-1" d="M-512.38992,523.64256a2.67831,2.67831,0,0,0,2.6374,2.64531h149.35269a2.675,2.675,0,0,0,2.63741-2.64316V354.86056a2.67639,2.67639,0,0,0-2.63741-2.64309H-509.75252a2.67638,2.67638,0,0,0-2.6374,2.64309v15.9041h5.4012a14.10984,14.10984,0,0,1,14.08042,14.11117v2.52074a14.1099,14.1099,0,0,1-14.08042,14.11116h-5.4012v22.37344h5.4012a14.10984,14.10984,0,0,1,14.08042,14.1111v2.52078a14.10986,14.10986,0,0,1-14.08042,14.11113h-5.4012v22.37344h5.4012a14.10987,14.10987,0,0,1,14.08042,14.11114v2.52078a14.10988,14.10988,0,0,1-14.08042,14.11115h-5.4012Zm-14.75959-25.28068h20.15865a4.73427,4.73427,0,0,0,4.72419-4.73449v-2.52077a4.73426,4.73426,0,0,0-4.72419-4.73449h-20.15865a4.73426,4.73426,0,0,0-4.72418,4.73449v2.52077A4.73427,4.73427,0,0,0-527.14951,498.36188Zm0-53.11435h20.15865a4.73427,4.73427,0,0,0,4.72419-4.73448v-2.52078a4.73426,4.73426,0,0,0-4.72419-4.73448h-20.15865a4.73425,4.73425,0,0,0-4.72418,4.73448v2.52078A4.73427,4.73427,0,0,0-527.14951,445.24753Zm0-53.11649h20.15865a4.73426,4.73426,0,0,0,4.72419-4.73447v-2.52074a4.73434,4.73434,0,0,0-4.72419-4.73458h-20.15865a4.73434,4.73434,0,0,0-4.72418,4.73458v2.52074A4.73426,4.73426,0,0,0-527.14951,392.131Zm178.74332,131.51152A12.0201,12.0201,0,0,1-360.402,535.66238H-509.75466a12.01827,12.01827,0,0,1-11.99364-12.01982V507.74069h-5.40121a14.10988,14.10988,0,0,1-14.08041-14.11115v-2.52078a14.11172,14.11172,0,0,1,14.08041-14.1133h5.40121V454.62418h-5.40121a14.10986,14.10986,0,0,1-14.08041-14.11113v-2.52078A14.11166,14.11166,0,0,1-527.14951,423.879h5.40121v-22.3713h-5.40121a14.1099,14.1099,0,0,1-14.08041-14.11116v-2.52074a14.11212,14.11212,0,0,1,14.08256-14.11331h5.4012v-15.9041a12.0183,12.0183,0,0,1,11.99364-12.01978h149.35269a12.01828,12.01828,0,0,1,11.99364,12.01978Zm-81.87874-89.46636a15.869,15.869,0,0,0,11.45352-15.22071,15.85679,15.85679,0,0,0-15.83912-15.83844,15.85627,15.85627,0,0,0-15.83689,15.83844A15.86779,15.86779,0,0,0-439.0559,434.1762Zm14.03135,2.21238c10.0249,4.45454,17.10432,15.14965,17.10432,27.60364v15.96833a4.77708,4.77708,0,0,1-4.57378,4.95874h-61.89277a4.77711,4.77711,0,0,1-4.57379-4.95874V463.99222c0-12.45395,7.07933-23.149,17.10333-27.6036a25.28216,25.28216,0,0,1-6.95472-17.43538,25.39912,25.39912,0,0,1,25.37046-25.37153,25.39817,25.39817,0,0,1,25.37264,25.37153A25.28087,25.28087,0,0,1-416.25358,436.38858Zm-14.98508,7.70511a25.50169,25.50169,0,0,1-3.43187.23113,25.49962,25.49962,0,0,1-3.43179-.23113h-4.588c-10.1193,0-18.35169,8.92754-18.35169,19.89853v11.00959h52.7452V463.99222c0-10.971-8.23453-19.89853-18.35381-19.89853Z"/></clipPath><clipPath id="clip-path-2"><path class="cls-1" d="M-245.21441,419.01637a1.389,1.389,0,0,0,1.36776,1.37186h77.45456a1.38726,1.38726,0,0,0,1.36776-1.37074V331.48574a1.388,1.388,0,0,0-1.36776-1.37071h-77.45456a1.388,1.388,0,0,0-1.36776,1.37071v8.2479h2.80108a7.31738,7.31738,0,0,1,7.30212,7.31807V348.359a7.31742,7.31742,0,0,1-7.30212,7.31807h-2.80108V367.28h2.80108a7.31738,7.31738,0,0,1,7.30212,7.318v1.30728a7.3174,7.3174,0,0,1-7.30212,7.31806h-2.80108v11.6029h2.80108a7.3174,7.3174,0,0,1,7.30212,7.31807v1.30727a7.3174,7.3174,0,0,1-7.30212,7.31807h-2.80108Zm-7.65435-13.1106h10.45431a2.4552,2.4552,0,0,0,2.45-2.45532v-1.30727a2.45519,2.45519,0,0,0-2.45-2.45532h-10.45431a2.45519,2.45519,0,0,0-2.45,2.45532v1.30727A2.4552,2.4552,0,0,0-252.86876,405.90577Zm0-27.54519h10.45431a2.4552,2.4552,0,0,0,2.45-2.45532V374.598a2.45519,2.45519,0,0,0-2.45-2.45531h-10.45431a2.45519,2.45519,0,0,0-2.45,2.45531v1.30728A2.4552,2.4552,0,0,0-252.86876,378.36058Zm0-27.54631h10.45431a2.45519,2.45519,0,0,0,2.45-2.4553v-1.30726a2.45523,2.45523,0,0,0-2.45-2.45536h-10.45431a2.45523,2.45523,0,0,0-2.45,2.45536V348.359A2.45519,2.45519,0,0,0-252.86876,350.81427Zm92.69659,68.2021a6.23365,6.23365,0,0,1-6.221,6.2335h-77.45455a6.23269,6.23269,0,0,1-6.21992-6.2335v-8.24674h-2.80108a7.3174,7.3174,0,0,1-7.30212-7.31807v-1.30727a7.31836,7.31836,0,0,1,7.30212-7.31918h2.80108V383.22332h-2.80108a7.3174,7.3174,0,0,1-7.30212-7.31806V374.598a7.31834,7.31834,0,0,1,7.30212-7.31915h2.80108V355.677h-2.80108a7.31742,7.31742,0,0,1-7.30212-7.31807v-1.30726a7.31857,7.31857,0,0,1,7.30324-7.31919h2.80107v-8.24789a6.23271,6.23271,0,0,1,6.21992-6.23348h77.45456a6.23271,6.23271,0,0,1,6.21992,6.23348ZM-202.63462,372.619a8.2297,8.2297,0,0,0,5.93981-7.89348,8.22335,8.22335,0,0,0-8.21419-8.21384,8.22309,8.22309,0,0,0-8.213,8.21384,8.22905,8.22905,0,0,0,5.93878,7.89348Zm7.27668,1.14735a15.5377,15.5377,0,0,1,8.87033,14.31529v8.2812a2.47741,2.47741,0,0,1-2.372,2.57162h-32.0977a2.47742,2.47742,0,0,1-2.372-2.57162v-8.2812a15.53806,15.53806,0,0,1,8.86981-14.31527,13.11139,13.11139,0,0,1-3.60672-9.042A13.172,13.172,0,0,1-204.909,351.56659a13.17154,13.17154,0,0,1,13.15829,13.15772A13.1107,13.1107,0,0,1-195.35794,373.76631Zm-7.77129,3.99588a13.22437,13.22437,0,0,1-1.77977.11987,13.22311,13.22311,0,0,1-1.77973-.11987h-2.37935c-5.24789,0-9.51722,4.62984-9.51722,10.31941v5.70959h27.35375V388.0816c0-5.68957-4.27045-10.31941-9.51832-10.31941Z"/></clipPath><clipPath id="clip-path-3"><path class="cls-2" d="M-1346.78648,523.64256a2.67831,2.67831,0,0,0,2.6374,2.64531h149.35269a2.675,2.675,0,0,0,2.63741-2.64316V354.86056a2.67639,2.67639,0,0,0-2.63741-2.64309h-149.35269a2.67638,2.67638,0,0,0-2.6374,2.64309v15.9041h5.40121a14.10983,14.10983,0,0,1,14.08041,14.11117v2.52074a14.10989,14.10989,0,0,1-14.08041,14.11116h-5.40121v22.37344h5.40121a14.10983,14.10983,0,0,1,14.08041,14.1111v2.52078a14.10986,14.10986,0,0,1-14.08041,14.11113h-5.40121v22.37344h5.40121a14.10987,14.10987,0,0,1,14.08041,14.11114v2.52078a14.10988,14.10988,0,0,1-14.08041,14.11115h-5.40121Zm-14.75959-25.28068h20.15865a4.73427,4.73427,0,0,0,4.72419-4.73449v-2.52077a4.73426,4.73426,0,0,0-4.72419-4.73449h-20.15865a4.73426,4.73426,0,0,0-4.72418,4.73449v2.52077A4.73427,4.73427,0,0,0-1361.54607,498.36188Zm0-53.11435h20.15865a4.73427,4.73427,0,0,0,4.72419-4.73448v-2.52078a4.73426,4.73426,0,0,0-4.72419-4.73448h-20.15865a4.73425,4.73425,0,0,0-4.72418,4.73448v2.52078A4.73427,4.73427,0,0,0-1361.54607,445.24753Zm0-53.11649h20.15865a4.73426,4.73426,0,0,0,4.72419-4.73447v-2.52074a4.73434,4.73434,0,0,0-4.72419-4.73458h-20.15865a4.73434,4.73434,0,0,0-4.72418,4.73458v2.52074A4.73426,4.73426,0,0,0-1361.54607,392.131Zm178.74332,131.51152a12.0201,12.0201,0,0,1-11.99578,12.01982h-149.35269a12.01827,12.01827,0,0,1-11.99364-12.01982V507.74069h-5.40121a14.10989,14.10989,0,0,1-14.08041-14.11115v-2.52078a14.11172,14.11172,0,0,1,14.08041-14.1133h5.40121V454.62418h-5.40121a14.10987,14.10987,0,0,1-14.08041-14.11113v-2.52078a14.11167,14.11167,0,0,1,14.08041-14.11324h5.40121v-22.3713h-5.40121a14.10991,14.10991,0,0,1-14.08041-14.11116v-2.52074a14.11213,14.11213,0,0,1,14.08256-14.11331h5.4012v-15.9041a12.0183,12.0183,0,0,1,11.99364-12.01978h149.35269a12.01828,12.01828,0,0,1,11.99364,12.01978Zm-81.87874-89.46636a15.869,15.869,0,0,0,11.45352-15.22071,15.85679,15.85679,0,0,0-15.83912-15.83844,15.85627,15.85627,0,0,0-15.83689,15.83844,15.86779,15.86779,0,0,0,11.45152,15.22071Zm14.03135,2.21238c10.02491,4.45454,17.10432,15.14965,17.10432,27.60364v15.96833a4.77708,4.77708,0,0,1-4.57378,4.95874h-61.89277a4.77711,4.77711,0,0,1-4.57379-4.95874V463.99222c0-12.45395,7.07933-23.149,17.10333-27.6036a25.28216,25.28216,0,0,1-6.95472-17.43538,25.39913,25.39913,0,0,1,25.37046-25.37153,25.39817,25.39817,0,0,1,25.37264,25.37153A25.28087,25.28087,0,0,1-1250.65014,436.38858Zm-14.98508,7.70511a25.50169,25.50169,0,0,1-3.43187.23113,25.49936,25.49936,0,0,1-3.43178-.23113h-4.588c-10.1193,0-18.3517,8.92754-18.3517,19.89853v11.00959h52.74521V463.99222c0-10.971-8.23454-19.89853-18.35382-19.89853Z"/></clipPath><clipPath id="clip-path-4"><path class="cls-2" d="M-1079.611,419.01637a1.389,1.389,0,0,0,1.36776,1.37186h77.45456a1.38726,1.38726,0,0,0,1.36776-1.37074V331.48574a1.388,1.388,0,0,0-1.36776-1.37071h-77.45456a1.388,1.388,0,0,0-1.36776,1.37071v8.2479h2.80108a7.31739,7.31739,0,0,1,7.30213,7.31807V348.359a7.31743,7.31743,0,0,1-7.30213,7.31807h-2.80108V367.28h2.80108a7.31739,7.31739,0,0,1,7.30213,7.318v1.30728a7.3174,7.3174,0,0,1-7.30213,7.31806h-2.80108v11.6029h2.80108a7.31741,7.31741,0,0,1,7.30213,7.31807v1.30727a7.31741,7.31741,0,0,1-7.30213,7.31807h-2.80108Zm-7.65434-13.1106h10.45431a2.45521,2.45521,0,0,0,2.45-2.45532v-1.30727a2.4552,2.4552,0,0,0-2.45-2.45532h-10.45431a2.45519,2.45519,0,0,0-2.45,2.45532v1.30727A2.4552,2.4552,0,0,0-1087.26531,405.90577Zm0-27.54519h10.45431a2.45521,2.45521,0,0,0,2.45-2.45532V374.598a2.4552,2.4552,0,0,0-2.45-2.45531h-10.45431a2.45519,2.45519,0,0,0-2.45,2.45531v1.30728A2.4552,2.4552,0,0,0-1087.26531,378.36058Zm0-27.54631h10.45431a2.4552,2.4552,0,0,0,2.45-2.4553v-1.30726a2.45524,2.45524,0,0,0-2.45-2.45536h-10.45431a2.45523,2.45523,0,0,0-2.45,2.45536V348.359A2.45519,2.45519,0,0,0-1087.26531,350.81427Zm92.69658,68.2021a6.23365,6.23365,0,0,1-6.221,6.2335h-77.45456a6.2327,6.2327,0,0,1-6.21992-6.2335v-8.24674h-2.80107a7.31741,7.31741,0,0,1-7.30213-7.31807v-1.30727a7.31836,7.31836,0,0,1,7.30213-7.31918h2.80107V383.22332h-2.80107a7.3174,7.3174,0,0,1-7.30213-7.31806V374.598a7.31834,7.31834,0,0,1,7.30213-7.31915h2.80107V355.677h-2.80107a7.31742,7.31742,0,0,1-7.30213-7.31807v-1.30726a7.31857,7.31857,0,0,1,7.30324-7.31919h2.80107v-8.24789a6.23271,6.23271,0,0,1,6.21992-6.23348h77.45456a6.23271,6.23271,0,0,1,6.21992,6.23348Zm-42.46245-46.39741a8.2297,8.2297,0,0,0,5.93981-7.89348,8.22335,8.22335,0,0,0-8.21419-8.21384,8.22309,8.22309,0,0,0-8.213,8.21384,8.22905,8.22905,0,0,0,5.93878,7.89348Zm7.27668,1.14735a15.5377,15.5377,0,0,1,8.87033,14.31529v8.2812a2.4774,2.4774,0,0,1-2.372,2.57162h-32.0977a2.47742,2.47742,0,0,1-2.372-2.57162v-8.2812a15.538,15.538,0,0,1,8.86982-14.31527,13.11135,13.11135,0,0,1-3.60673-9.042,13.172,13.172,0,0,1,13.15716-13.15772,13.17154,13.17154,0,0,1,13.15829,13.15772A13.1107,13.1107,0,0,1-1029.7545,373.76631Zm-7.77129,3.99588a13.22426,13.22426,0,0,1-1.77977.11987,13.22322,13.22322,0,0,1-1.77973-.11987h-2.37935c-5.24789,0-9.51722,4.62984-9.51722,10.31941v5.70959h27.35375V388.0816c0-5.68957-4.27044-10.31941-9.51832-10.31941Z"/></clipPath><clipPath id="clip-path-5"><path class="cls-2" d="M-1272.21461,1720.78046a58.16885,58.16885,0,0,1-58.18182-58.18182,58.16887,58.16887,0,0,1,58.18182-58.18182,58.16884,58.16884,0,0,1,58.18181,58.18182A58.16882,58.16882,0,0,1-1272.21461,1720.78046Zm117.27894-44.47293-7.67556-7.91363a99.11838,99.11838,0,0,0,0-23.03256l7.67556-7.86479c4.57961-4.66513,12.79246-10.84463,10.234-16.731l-10.51542-24.42473c-2.55849-5.88637-12.99712-4.66514-19.67476-4.88506l-11.33417-.39076a108.24662,108.24662,0,0,0-16.98839-16.26693l-.35817-10.82018c-.20468-6.35043,1.10009-16.34014-5.117-18.78261l-25.585-10.13632c-6.1404-2.44247-12.66457,5.49563-17.52565,9.76989l-8.264,7.32753a113.83986,113.83986,0,0,0-24.15212,0l-8.21278-7.32753c-4.86113-4.34757-11.35971-12.21236-17.52567-9.76989l-25.58494,10.03858c-6.166,2.44247-4.86113,12.43228-5.117,18.78271l-.40937,10.79577a108.28443,108.28443,0,0,0-17.06514,16.2425l-11.30855.34186c-6.65209.19538-17.11632-1.05018-19.67482,4.885l-10.61775,24.42484c-2.55849,5.86194,5.75661,12.06586,10.234,16.70657l7.67548,7.88921a99.10471,99.10471,0,0,0,0,23.057l-7.67548,7.86477c-4.55412,4.64071-12.79247,10.82017-10.234,16.70656l10.51541,24.42478c2.5585,5.88637,13.02274,4.66514,19.70041,4.885l11.283.36637a108.243,108.243,0,0,0,17.03957,16.31575l.33261,10.77133c.20468,6.35046-1.10016,16.36462,5.117,18.80709l25.58493,10.13629c6.14039,2.44247,12.639-5.49558,17.5001-9.76992l8.28953-7.32743a113.87072,113.87072,0,0,0,24.10106,0l8.23831,7.32743c4.88669,4.372,11.334,12.21239,17.5,9.76992l25.585-10.03859c6.166-2.44248,4.88669-12.40779,5.117-18.80709l.38377-10.79575a108.30078,108.30078,0,0,0,17.0908-16.24248l11.30844-.34195c6.65216-.1954,17.142,1.05026,19.70048-4.885l10.61772-24.42478C-1142.06653,1687.201-1150.40713,1680.99709-1154.93567,1676.30753Z"/></clipPath><clipPath id="clip-path-6"><path class="cls-2" d="M-1041.56808,1624.78045a29.08442,29.08442,0,0,1-29.09091-29.09091,29.08444,29.08444,0,0,1,29.09091-29.09091,29.08443,29.08443,0,0,1,29.09091,29.09091A29.08442,29.08442,0,0,1-1041.56808,1624.78045Zm58.63947-22.23646-3.83778-3.95682a49.55919,49.55919,0,0,0,0-11.51628l3.83778-3.93239c2.2898-2.33257,6.39623-5.42232,5.117-8.3655l-5.25771-12.21236c-1.27924-2.94319-6.49856-2.33257-9.83738-2.44253l-5.66708-.19538a54.12337,54.12337,0,0,0-8.4942-8.13347l-.17908-5.41009c-.10234-3.17521.55-8.17007-2.55849-9.3913l-12.79249-5.06816c-3.0702-1.22124-6.33229,2.74781-8.76283,4.88494l-4.132,3.66377a56.91927,56.91927,0,0,0-12.07606,0l-4.10639-3.66377c-2.43057-2.17378-5.67986-6.10618-8.76284-4.88494l-12.79246,5.01929c-3.083,1.22123-2.43057,6.21614-2.5585,9.39135l-.20468,5.39789a54.14156,54.14156,0,0,0-8.53257,8.12125l-5.65428.17093c-3.326.09769-8.55816-.52509-9.83741,2.44247l-5.30887,12.21242c-1.27925,2.931,2.87831,6.03293,5.117,8.35329l3.83774,3.9446a49.5529,49.5529,0,0,0,0,11.52849l-3.83774,3.93238c-2.27706,2.32036-6.39624,5.41009-5.117,8.35328l5.25771,12.2124c1.27924,2.94318,6.51136,2.33257,9.8502,2.44248l5.64148.18318a54.12083,54.12083,0,0,0,8.51978,8.15788l.1663,5.38566c.10234,3.17523-.55007,8.18231,2.55849,9.40355l12.79247,5.06814c3.0702,1.22124,6.31948-2.74779,8.75-4.885l4.14476-3.66371a56.93612,56.93612,0,0,0,12.05054,0l4.11915,3.66371c2.44335,2.186,5.667,6.1062,8.75,4.885l12.79249-5.01929c3.083-1.22124,2.44335-6.2039,2.55849-9.40355l.19189-5.39788a54.15077,54.15077,0,0,0,8.5454-8.12123l5.65422-.171c3.32608-.0977,8.571.52513,9.85024-2.44248l5.30886-12.21239C-976.494,1607.99071-980.66434,1604.88876-982.92861,1602.544Z"/></clipPath><clipPath id="clip-path-7"><path class="cls-2" d="M-904.15772,1576.78045a14.54221,14.54221,0,0,1-14.54545-14.54546,14.54221,14.54221,0,0,1,14.54545-14.54545,14.54221,14.54221,0,0,1,14.54545,14.54545A14.5422,14.5422,0,0,1-904.15772,1576.78045Zm29.31974-11.11823-1.91889-1.97841a24.78014,24.78014,0,0,0,0-5.75814l1.91889-1.9662c1.1449-1.16628,3.19811-2.71116,2.55848-4.18275l-2.62885-6.10618c-.63962-1.47159-3.24928-1.16628-4.91869-1.22126l-2.83354-.09769a27.06194,27.06194,0,0,0-4.2471-4.06674l-.08955-2.705c-.05117-1.58761.275-4.085-1.27924-4.69565l-6.39625-2.53408c-1.53509-.61062-3.16614,1.3739-4.38141,2.44247l-2.066,1.83188a28.45963,28.45963,0,0,0-6.038,0l-2.0532-1.83188c-1.21528-1.08689-2.83993-3.05309-4.38142-2.44247l-6.39623,2.50964c-1.54149.61062-1.21528,3.10807-1.27925,4.69568l-.10234,2.69894a27.07138,27.07138,0,0,0-4.26628,4.06062l-2.82714.08547c-1.663.04885-4.27908-.26254-4.91871,1.22124l-2.65443,6.10621c-.63963,1.46548,1.43915,3.01646,2.55849,4.17664l1.91887,1.9723a24.77649,24.77649,0,0,0,0,5.76425l-1.91887,1.96619c-1.13853,1.16018-3.19812,2.705-2.55849,4.17664l2.62885,6.1062c.63962,1.47159,3.25568,1.16628,4.9251,1.22123l2.82074.0916a27.06064,27.06064,0,0,0,4.25989,4.07894l.08315,2.69283c.05117,1.58761-.275,4.09115,1.27925,4.70177l6.39623,2.53407c1.5351.61062,3.15974-1.37389,4.375-2.44248l2.07238-1.83186a28.46664,28.46664,0,0,0,6.02526,0l2.05958,1.83186c1.22167,1.093,2.83351,3.0531,4.375,2.44248l6.39625-2.50965c1.5415-.61061,1.22167-3.10194,1.27924-4.70177l.096-2.69894a27.07623,27.07623,0,0,0,4.2727-4.06061l2.8271-.08549c1.663-.04885,4.28551.26256,4.92513-1.22124l2.65443-6.1062C-871.6207,1568.38558-873.70585,1566.8346-874.838,1565.66222Z"/></clipPath></defs><title>p-share app icons</title><path class="cls-3" d="M24.42118,8.24755H18.72062a.64135.64135,0,0,0,0,1.28247h5.70056a2.57087,2.57087,0,0,1,2.54255,2.59243v7.76012a2.5715,2.5715,0,0,1-2.54255,2.59358H19.26611L21.49446,20.914a.649.649,0,0,0,.16132-.89165.621.621,0,0,0-.87459-.16475l-3.896,2.73168c-.0059.004-.00983.00974-.01546.014a.6264.6264,0,0,0-.08571.07679c-.0118.01318-.02192.02693-.03288.04068a.74535.74535,0,0,0-.04975.07364c-.00871.01576-.01742.03094-.025.04728a.55638.55638,0,0,0-.0326.088c-.00506.01547-.0104.03008-.01433.04555a.65709.65709,0,0,0-.01546.12951l-.00169.01318.00169.01318a.63131.63131,0,0,0,.01546.12922c.00393.01576.00927.03009.01433.04556a.60127.60127,0,0,0,.0326.08825c.00759.016.0163.03123.025.0467a.61843.61843,0,0,0,.05059.07478c.0104.01347.02024.02693.03176.03925a.65189.65189,0,0,0,.08965.0808l.0118.0106,3.896,2.7314a.61644.61644,0,0,0,.35579.11318.62447.62447,0,0,0,.5188-.27821.64858.64858,0,0,0-.1616-.89137l-2.22807-1.56182h5.15536a3.84292,3.84292,0,0,0,3.80019-3.876v-7.761A3.84272,3.84272,0,0,0,24.42118,8.24755Z"/><path class="cls-3" d="M7.57882,23.75245h5.70056a.64135.64135,0,0,0,0-1.28247H7.57882a2.57087,2.57087,0,0,1-2.54255-2.59243V12.11743A2.5715,2.5715,0,0,1,7.57882,9.52385h5.15507L10.50554,11.086a.649.649,0,0,0-.16132.89165.621.621,0,0,0,.87459.16475l3.896-2.73168c.0059-.004.00983-.00974.01546-.014a.6264.6264,0,0,0,.08571-.07679c.0118-.01318.02192-.02693.03288-.04068a.74535.74535,0,0,0,.04975-.07364c.00871-.01576.01742-.03094.025-.04728a.55638.55638,0,0,0,.0326-.088c.00506-.01547.0104-.03008.01433-.04555a.65709.65709,0,0,0,.01546-.12951l.00169-.01318L15.386,8.86887a.63131.63131,0,0,0-.01546-.12922c-.00393-.01576-.00927-.03009-.01433-.04556a.60127.60127,0,0,0-.0326-.08825c-.00759-.016-.0163-.03123-.025-.0467a.61843.61843,0,0,0-.05059-.07478c-.0104-.01347-.02024-.02693-.03176-.03925a.65189.65189,0,0,0-.08965-.0808l-.0118-.0106-3.896-2.7314a.61644.61644,0,0,0-.35579-.11318.62447.62447,0,0,0-.5188.27821.64858.64858,0,0,0,.1616.89137l2.22807,1.56182H7.57853a3.84292,3.84292,0,0,0-3.80019,3.87605v7.761A3.84272,3.84272,0,0,0,7.57882,23.75245Z"/><path class="cls-1" d="M-512.38992,523.64256a2.67831,2.67831,0,0,0,2.6374,2.64531h149.35269a2.675,2.675,0,0,0,2.63741-2.64316V354.86056a2.67639,2.67639,0,0,0-2.63741-2.64309H-509.75252a2.67638,2.67638,0,0,0-2.6374,2.64309v15.9041h5.4012a14.10984,14.10984,0,0,1,14.08042,14.11117v2.52074a14.1099,14.1099,0,0,1-14.08042,14.11116h-5.4012v22.37344h5.4012a14.10984,14.10984,0,0,1,14.08042,14.1111v2.52078a14.10986,14.10986,0,0,1-14.08042,14.11113h-5.4012v22.37344h5.4012a14.10987,14.10987,0,0,1,14.08042,14.11114v2.52078a14.10988,14.10988,0,0,1-14.08042,14.11115h-5.4012Zm-14.75959-25.28068h20.15865a4.73427,4.73427,0,0,0,4.72419-4.73449v-2.52077a4.73426,4.73426,0,0,0-4.72419-4.73449h-20.15865a4.73426,4.73426,0,0,0-4.72418,4.73449v2.52077A4.73427,4.73427,0,0,0-527.14951,498.36188Zm0-53.11435h20.15865a4.73427,4.73427,0,0,0,4.72419-4.73448v-2.52078a4.73426,4.73426,0,0,0-4.72419-4.73448h-20.15865a4.73425,4.73425,0,0,0-4.72418,4.73448v2.52078A4.73427,4.73427,0,0,0-527.14951,445.24753Zm0-53.11649h20.15865a4.73426,4.73426,0,0,0,4.72419-4.73447v-2.52074a4.73434,4.73434,0,0,0-4.72419-4.73458h-20.15865a4.73434,4.73434,0,0,0-4.72418,4.73458v2.52074A4.73426,4.73426,0,0,0-527.14951,392.131Zm178.74332,131.51152A12.0201,12.0201,0,0,1-360.402,535.66238H-509.75466a12.01827,12.01827,0,0,1-11.99364-12.01982V507.74069h-5.40121a14.10988,14.10988,0,0,1-14.08041-14.11115v-2.52078a14.11172,14.11172,0,0,1,14.08041-14.1133h5.40121V454.62418h-5.40121a14.10986,14.10986,0,0,1-14.08041-14.11113v-2.52078A14.11166,14.11166,0,0,1-527.14951,423.879h5.40121v-22.3713h-5.40121a14.1099,14.1099,0,0,1-14.08041-14.11116v-2.52074a14.11212,14.11212,0,0,1,14.08256-14.11331h5.4012v-15.9041a12.0183,12.0183,0,0,1,11.99364-12.01978h149.35269a12.01828,12.01828,0,0,1,11.99364,12.01978Zm-81.87874-89.46636a15.869,15.869,0,0,0,11.45352-15.22071,15.85679,15.85679,0,0,0-15.83912-15.83844,15.85627,15.85627,0,0,0-15.83689,15.83844A15.86779,15.86779,0,0,0-439.0559,434.1762Zm14.03135,2.21238c10.0249,4.45454,17.10432,15.14965,17.10432,27.60364v15.96833a4.77708,4.77708,0,0,1-4.57378,4.95874h-61.89277a4.77711,4.77711,0,0,1-4.57379-4.95874V463.99222c0-12.45395,7.07933-23.149,17.10333-27.6036a25.28216,25.28216,0,0,1-6.95472-17.43538,25.39912,25.39912,0,0,1,25.37046-25.37153,25.39817,25.39817,0,0,1,25.37264,25.37153A25.28087,25.28087,0,0,1-416.25358,436.38858Zm-14.98508,7.70511a25.50169,25.50169,0,0,1-3.43187.23113,25.49962,25.49962,0,0,1-3.43179-.23113h-4.588c-10.1193,0-18.35169,8.92754-18.35169,19.89853v11.00959h52.7452V463.99222c0-10.971-8.23453-19.89853-18.35381-19.89853Z"/><g class="cls-4"><rect class="cls-1" x="-734.05366" y="-642.70489" width="15329.48691" height="8227.14602"/></g><path class="cls-1" d="M-245.21441,419.01637a1.389,1.389,0,0,0,1.36776,1.37186h77.45456a1.38726,1.38726,0,0,0,1.36776-1.37074V331.48574a1.388,1.388,0,0,0-1.36776-1.37071h-77.45456a1.388,1.388,0,0,0-1.36776,1.37071v8.2479h2.80108a7.31738,7.31738,0,0,1,7.30212,7.31807V348.359a7.31742,7.31742,0,0,1-7.30212,7.31807h-2.80108V367.28h2.80108a7.31738,7.31738,0,0,1,7.30212,7.318v1.30728a7.3174,7.3174,0,0,1-7.30212,7.31806h-2.80108v11.6029h2.80108a7.3174,7.3174,0,0,1,7.30212,7.31807v1.30727a7.3174,7.3174,0,0,1-7.30212,7.31807h-2.80108Zm-7.65435-13.1106h10.45431a2.4552,2.4552,0,0,0,2.45-2.45532v-1.30727a2.45519,2.45519,0,0,0-2.45-2.45532h-10.45431a2.45519,2.45519,0,0,0-2.45,2.45532v1.30727A2.4552,2.4552,0,0,0-252.86876,405.90577Zm0-27.54519h10.45431a2.4552,2.4552,0,0,0,2.45-2.45532V374.598a2.45519,2.45519,0,0,0-2.45-2.45531h-10.45431a2.45519,2.45519,0,0,0-2.45,2.45531v1.30728A2.4552,2.4552,0,0,0-252.86876,378.36058Zm0-27.54631h10.45431a2.45519,2.45519,0,0,0,2.45-2.4553v-1.30726a2.45523,2.45523,0,0,0-2.45-2.45536h-10.45431a2.45523,2.45523,0,0,0-2.45,2.45536V348.359A2.45519,2.45519,0,0,0-252.86876,350.81427Zm92.69659,68.2021a6.23365,6.23365,0,0,1-6.221,6.2335h-77.45455a6.23269,6.23269,0,0,1-6.21992-6.2335v-8.24674h-2.80108a7.3174,7.3174,0,0,1-7.30212-7.31807v-1.30727a7.31836,7.31836,0,0,1,7.30212-7.31918h2.80108V383.22332h-2.80108a7.3174,7.3174,0,0,1-7.30212-7.31806V374.598a7.31834,7.31834,0,0,1,7.30212-7.31915h2.80108V355.677h-2.80108a7.31742,7.31742,0,0,1-7.30212-7.31807v-1.30726a7.31857,7.31857,0,0,1,7.30324-7.31919h2.80107v-8.24789a6.23271,6.23271,0,0,1,6.21992-6.23348h77.45456a6.23271,6.23271,0,0,1,6.21992,6.23348ZM-202.63462,372.619a8.2297,8.2297,0,0,0,5.93981-7.89348,8.22335,8.22335,0,0,0-8.21419-8.21384,8.22309,8.22309,0,0,0-8.213,8.21384,8.22905,8.22905,0,0,0,5.93878,7.89348Zm7.27668,1.14735a15.5377,15.5377,0,0,1,8.87033,14.31529v8.2812a2.47741,2.47741,0,0,1-2.372,2.57162h-32.0977a2.47742,2.47742,0,0,1-2.372-2.57162v-8.2812a15.53806,15.53806,0,0,1,8.86981-14.31527,13.11139,13.11139,0,0,1-3.60672-9.042A13.172,13.172,0,0,1-204.909,351.56659a13.17154,13.17154,0,0,1,13.15829,13.15772A13.1107,13.1107,0,0,1-195.35794,373.76631Zm-7.77129,3.99588a13.22437,13.22437,0,0,1-1.77977.11987,13.22311,13.22311,0,0,1-1.77973-.11987h-2.37935c-5.24789,0-9.51722,4.62984-9.51722,10.31941v5.70959h27.35375V388.0816c0-5.68957-4.27045-10.31941-9.51832-10.31941Z"/><g class="cls-5"><rect class="cls-1" x="-360.16959" y="-185.85337" width="7949.89755" height="4266.61168"/></g><path class="cls-2" d="M-1346.78648,523.64256a2.67831,2.67831,0,0,0,2.6374,2.64531h149.35269a2.675,2.675,0,0,0,2.63741-2.64316V354.86056a2.67639,2.67639,0,0,0-2.63741-2.64309h-149.35269a2.67638,2.67638,0,0,0-2.6374,2.64309v15.9041h5.40121a14.10983,14.10983,0,0,1,14.08041,14.11117v2.52074a14.10989,14.10989,0,0,1-14.08041,14.11116h-5.40121v22.37344h5.40121a14.10983,14.10983,0,0,1,14.08041,14.1111v2.52078a14.10986,14.10986,0,0,1-14.08041,14.11113h-5.40121v22.37344h5.40121a14.10987,14.10987,0,0,1,14.08041,14.11114v2.52078a14.10988,14.10988,0,0,1-14.08041,14.11115h-5.40121Zm-14.75959-25.28068h20.15865a4.73427,4.73427,0,0,0,4.72419-4.73449v-2.52077a4.73426,4.73426,0,0,0-4.72419-4.73449h-20.15865a4.73426,4.73426,0,0,0-4.72418,4.73449v2.52077A4.73427,4.73427,0,0,0-1361.54607,498.36188Zm0-53.11435h20.15865a4.73427,4.73427,0,0,0,4.72419-4.73448v-2.52078a4.73426,4.73426,0,0,0-4.72419-4.73448h-20.15865a4.73425,4.73425,0,0,0-4.72418,4.73448v2.52078A4.73427,4.73427,0,0,0-1361.54607,445.24753Zm0-53.11649h20.15865a4.73426,4.73426,0,0,0,4.72419-4.73447v-2.52074a4.73434,4.73434,0,0,0-4.72419-4.73458h-20.15865a4.73434,4.73434,0,0,0-4.72418,4.73458v2.52074A4.73426,4.73426,0,0,0-1361.54607,392.131Zm178.74332,131.51152a12.0201,12.0201,0,0,1-11.99578,12.01982h-149.35269a12.01827,12.01827,0,0,1-11.99364-12.01982V507.74069h-5.40121a14.10989,14.10989,0,0,1-14.08041-14.11115v-2.52078a14.11172,14.11172,0,0,1,14.08041-14.1133h5.40121V454.62418h-5.40121a14.10987,14.10987,0,0,1-14.08041-14.11113v-2.52078a14.11167,14.11167,0,0,1,14.08041-14.11324h5.40121v-22.3713h-5.40121a14.10991,14.10991,0,0,1-14.08041-14.11116v-2.52074a14.11213,14.11213,0,0,1,14.08256-14.11331h5.4012v-15.9041a12.0183,12.0183,0,0,1,11.99364-12.01978h149.35269a12.01828,12.01828,0,0,1,11.99364,12.01978Zm-81.87874-89.46636a15.869,15.869,0,0,0,11.45352-15.22071,15.85679,15.85679,0,0,0-15.83912-15.83844,15.85627,15.85627,0,0,0-15.83689,15.83844,15.86779,15.86779,0,0,0,11.45152,15.22071Zm14.03135,2.21238c10.02491,4.45454,17.10432,15.14965,17.10432,27.60364v15.96833a4.77708,4.77708,0,0,1-4.57378,4.95874h-61.89277a4.77711,4.77711,0,0,1-4.57379-4.95874V463.99222c0-12.45395,7.07933-23.149,17.10333-27.6036a25.28216,25.28216,0,0,1-6.95472-17.43538,25.39913,25.39913,0,0,1,25.37046-25.37153,25.39817,25.39817,0,0,1,25.37264,25.37153A25.28087,25.28087,0,0,1-1250.65014,436.38858Zm-14.98508,7.70511a25.50169,25.50169,0,0,1-3.43187.23113,25.49936,25.49936,0,0,1-3.43178-.23113h-4.588c-10.1193,0-18.3517,8.92754-18.3517,19.89853v11.00959h52.74521V463.99222c0-10.971-8.23454-19.89853-18.35382-19.89853Z"/><g class="cls-6"><rect class="cls-2" x="-1568.45022" y="-642.70489" width="15329.48691" height="8227.14602"/></g><path class="cls-2" d="M-1079.611,419.01637a1.389,1.389,0,0,0,1.36776,1.37186h77.45456a1.38726,1.38726,0,0,0,1.36776-1.37074V331.48574a1.388,1.388,0,0,0-1.36776-1.37071h-77.45456a1.388,1.388,0,0,0-1.36776,1.37071v8.2479h2.80108a7.31739,7.31739,0,0,1,7.30213,7.31807V348.359a7.31743,7.31743,0,0,1-7.30213,7.31807h-2.80108V367.28h2.80108a7.31739,7.31739,0,0,1,7.30213,7.318v1.30728a7.3174,7.3174,0,0,1-7.30213,7.31806h-2.80108v11.6029h2.80108a7.31741,7.31741,0,0,1,7.30213,7.31807v1.30727a7.31741,7.31741,0,0,1-7.30213,7.31807h-2.80108Zm-7.65434-13.1106h10.45431a2.45521,2.45521,0,0,0,2.45-2.45532v-1.30727a2.4552,2.4552,0,0,0-2.45-2.45532h-10.45431a2.45519,2.45519,0,0,0-2.45,2.45532v1.30727A2.4552,2.4552,0,0,0-1087.26531,405.90577Zm0-27.54519h10.45431a2.45521,2.45521,0,0,0,2.45-2.45532V374.598a2.4552,2.4552,0,0,0-2.45-2.45531h-10.45431a2.45519,2.45519,0,0,0-2.45,2.45531v1.30728A2.4552,2.4552,0,0,0-1087.26531,378.36058Zm0-27.54631h10.45431a2.4552,2.4552,0,0,0,2.45-2.4553v-1.30726a2.45524,2.45524,0,0,0-2.45-2.45536h-10.45431a2.45523,2.45523,0,0,0-2.45,2.45536V348.359A2.45519,2.45519,0,0,0-1087.26531,350.81427Zm92.69658,68.2021a6.23365,6.23365,0,0,1-6.221,6.2335h-77.45456a6.2327,6.2327,0,0,1-6.21992-6.2335v-8.24674h-2.80107a7.31741,7.31741,0,0,1-7.30213-7.31807v-1.30727a7.31836,7.31836,0,0,1,7.30213-7.31918h2.80107V383.22332h-2.80107a7.3174,7.3174,0,0,1-7.30213-7.31806V374.598a7.31834,7.31834,0,0,1,7.30213-7.31915h2.80107V355.677h-2.80107a7.31742,7.31742,0,0,1-7.30213-7.31807v-1.30726a7.31857,7.31857,0,0,1,7.30324-7.31919h2.80107v-8.24789a6.23271,6.23271,0,0,1,6.21992-6.23348h77.45456a6.23271,6.23271,0,0,1,6.21992,6.23348Zm-42.46245-46.39741a8.2297,8.2297,0,0,0,5.93981-7.89348,8.22335,8.22335,0,0,0-8.21419-8.21384,8.22309,8.22309,0,0,0-8.213,8.21384,8.22905,8.22905,0,0,0,5.93878,7.89348Zm7.27668,1.14735a15.5377,15.5377,0,0,1,8.87033,14.31529v8.2812a2.4774,2.4774,0,0,1-2.372,2.57162h-32.0977a2.47742,2.47742,0,0,1-2.372-2.57162v-8.2812a15.538,15.538,0,0,1,8.86982-14.31527,13.11135,13.11135,0,0,1-3.60673-9.042,13.172,13.172,0,0,1,13.15716-13.15772,13.17154,13.17154,0,0,1,13.15829,13.15772A13.1107,13.1107,0,0,1-1029.7545,373.76631Zm-7.77129,3.99588a13.22426,13.22426,0,0,1-1.77977.11987,13.22322,13.22322,0,0,1-1.77973-.11987h-2.37935c-5.24789,0-9.51722,4.62984-9.51722,10.31941v5.70959h27.35375V388.0816c0-5.68957-4.27044-10.31941-9.51832-10.31941Z"/><g class="cls-7"><rect class="cls-2" x="-1194.56615" y="-185.85337" width="7949.89755" height="4266.61168"/></g><path class="cls-2" d="M-1272.21461,1720.78046a58.16885,58.16885,0,0,1-58.18182-58.18182,58.16887,58.16887,0,0,1,58.18182-58.18182,58.16884,58.16884,0,0,1,58.18181,58.18182A58.16882,58.16882,0,0,1-1272.21461,1720.78046Zm117.27894-44.47293-7.67556-7.91363a99.11838,99.11838,0,0,0,0-23.03256l7.67556-7.86479c4.57961-4.66513,12.79246-10.84463,10.234-16.731l-10.51542-24.42473c-2.55849-5.88637-12.99712-4.66514-19.67476-4.88506l-11.33417-.39076a108.24662,108.24662,0,0,0-16.98839-16.26693l-.35817-10.82018c-.20468-6.35043,1.10009-16.34014-5.117-18.78261l-25.585-10.13632c-6.1404-2.44247-12.66457,5.49563-17.52565,9.76989l-8.264,7.32753a113.83986,113.83986,0,0,0-24.15212,0l-8.21278-7.32753c-4.86113-4.34757-11.35971-12.21236-17.52567-9.76989l-25.58494,10.03858c-6.166,2.44247-4.86113,12.43228-5.117,18.78271l-.40937,10.79577a108.28443,108.28443,0,0,0-17.06514,16.2425l-11.30855.34186c-6.65209.19538-17.11632-1.05018-19.67482,4.885l-10.61775,24.42484c-2.55849,5.86194,5.75661,12.06586,10.234,16.70657l7.67548,7.88921a99.10471,99.10471,0,0,0,0,23.057l-7.67548,7.86477c-4.55412,4.64071-12.79247,10.82017-10.234,16.70656l10.51541,24.42478c2.5585,5.88637,13.02274,4.66514,19.70041,4.885l11.283.36637a108.243,108.243,0,0,0,17.03957,16.31575l.33261,10.77133c.20468,6.35046-1.10016,16.36462,5.117,18.80709l25.58493,10.13629c6.14039,2.44247,12.639-5.49558,17.5001-9.76992l8.28953-7.32743a113.87072,113.87072,0,0,0,24.10106,0l8.23831,7.32743c4.88669,4.372,11.334,12.21239,17.5,9.76992l25.585-10.03859c6.166-2.44248,4.88669-12.40779,5.117-18.80709l.38377-10.79575a108.30078,108.30078,0,0,0,17.0908-16.24248l11.30844-.34195c6.65216-.1954,17.142,1.05026,19.70048-4.885l10.61772-24.42478C-1142.06653,1687.201-1150.40713,1680.99709-1154.93567,1676.30753Z"/><g class="cls-8"><rect class="cls-2" x="-1598.0328" y="-6226.85602" width="16651.63659" height="8936.72739"/></g><path class="cls-2" d="M-1041.56808,1624.78045a29.08442,29.08442,0,0,1-29.09091-29.09091,29.08444,29.08444,0,0,1,29.09091-29.09091,29.08443,29.08443,0,0,1,29.09091,29.09091A29.08442,29.08442,0,0,1-1041.56808,1624.78045Zm58.63947-22.23646-3.83778-3.95682a49.55919,49.55919,0,0,0,0-11.51628l3.83778-3.93239c2.2898-2.33257,6.39623-5.42232,5.117-8.3655l-5.25771-12.21236c-1.27924-2.94319-6.49856-2.33257-9.83738-2.44253l-5.66708-.19538a54.12337,54.12337,0,0,0-8.4942-8.13347l-.17908-5.41009c-.10234-3.17521.55-8.17007-2.55849-9.3913l-12.79249-5.06816c-3.0702-1.22124-6.33229,2.74781-8.76283,4.88494l-4.132,3.66377a56.91927,56.91927,0,0,0-12.07606,0l-4.10639-3.66377c-2.43057-2.17378-5.67986-6.10618-8.76284-4.88494l-12.79246,5.01929c-3.083,1.22123-2.43057,6.21614-2.5585,9.39135l-.20468,5.39789a54.14156,54.14156,0,0,0-8.53257,8.12125l-5.65428.17093c-3.326.09769-8.55816-.52509-9.83741,2.44247l-5.30887,12.21242c-1.27925,2.931,2.87831,6.03293,5.117,8.35329l3.83774,3.9446a49.5529,49.5529,0,0,0,0,11.52849l-3.83774,3.93238c-2.27706,2.32036-6.39624,5.41009-5.117,8.35328l5.25771,12.2124c1.27924,2.94318,6.51136,2.33257,9.8502,2.44248l5.64148.18318a54.12083,54.12083,0,0,0,8.51978,8.15788l.1663,5.38566c.10234,3.17523-.55007,8.18231,2.55849,9.40355l12.79247,5.06814c3.0702,1.22124,6.31948-2.74779,8.75-4.885l4.14476-3.66371a56.93612,56.93612,0,0,0,12.05054,0l4.11915,3.66371c2.44335,2.186,5.667,6.1062,8.75,4.885l12.79249-5.01929c3.083-1.22124,2.44335-6.2039,2.55849-9.40355l.19189-5.39788a54.15077,54.15077,0,0,0,8.5454-8.12123l5.65422-.171c3.32608-.0977,8.571.52513,9.85024-2.44248l5.30886-12.21239C-976.494,1607.99071-980.66434,1604.88876-982.92861,1602.544Z"/><g class="cls-9"><rect class="cls-2" x="-1204.47717" y="-2349.03774" width="8325.81819" height="4468.36364"/></g><path class="cls-2" d="M-904.15772,1576.78045a14.54221,14.54221,0,0,1-14.54545-14.54546,14.54221,14.54221,0,0,1,14.54545-14.54545,14.54221,14.54221,0,0,1,14.54545,14.54545A14.5422,14.5422,0,0,1-904.15772,1576.78045Zm29.31974-11.11823-1.91889-1.97841a24.78014,24.78014,0,0,0,0-5.75814l1.91889-1.9662c1.1449-1.16628,3.19811-2.71116,2.55848-4.18275l-2.62885-6.10618c-.63962-1.47159-3.24928-1.16628-4.91869-1.22126l-2.83354-.09769a27.06194,27.06194,0,0,0-4.2471-4.06674l-.08955-2.705c-.05117-1.58761.275-4.085-1.27924-4.69565l-6.39625-2.53408c-1.53509-.61062-3.16614,1.3739-4.38141,2.44247l-2.066,1.83188a28.45963,28.45963,0,0,0-6.038,0l-2.0532-1.83188c-1.21528-1.08689-2.83993-3.05309-4.38142-2.44247l-6.39623,2.50964c-1.54149.61062-1.21528,3.10807-1.27925,4.69568l-.10234,2.69894a27.07138,27.07138,0,0,0-4.26628,4.06062l-2.82714.08547c-1.663.04885-4.27908-.26254-4.91871,1.22124l-2.65443,6.10621c-.63963,1.46548,1.43915,3.01646,2.55849,4.17664l1.91887,1.9723a24.77649,24.77649,0,0,0,0,5.76425l-1.91887,1.96619c-1.13853,1.16018-3.19812,2.705-2.55849,4.17664l2.62885,6.1062c.63962,1.47159,3.25568,1.16628,4.9251,1.22123l2.82074.0916a27.06064,27.06064,0,0,0,4.25989,4.07894l.08315,2.69283c.05117,1.58761-.275,4.09115,1.27925,4.70177l6.39623,2.53407c1.5351.61062,3.15974-1.37389,4.375-2.44248l2.07238-1.83186a28.46664,28.46664,0,0,0,6.02526,0l2.05958,1.83186c1.22167,1.093,2.83351,3.0531,4.375,2.44248l6.39625-2.50965c1.5415-.61061,1.22167-3.10194,1.27924-4.70177l.096-2.69894a27.07623,27.07623,0,0,0,4.2727-4.06061l2.8271-.08549c1.663-.04885,4.28551.26256,4.92513-1.22124l2.65443-6.1062C-871.6207,1568.38558-873.70585,1566.8346-874.838,1565.66222Z"/><g class="cls-10"><rect class="cls-2" x="-985.61226" y="-410.12862" width="4162.90904" height="2234.18179"/></g></svg>