<svg id="Layer_1" data-name="Layer 1" xmlns="http://www.w3.org/2000/svg" xmlns:xlink="http://www.w3.org/1999/xlink" viewBox="0 0 256 256"><defs><style>.cls-1{fill:#606060;}.cls-2{clip-path:url(#clip-path);}.cls-3{clip-path:url(#clip-path-2);}.cls-4{fill:#2775d3;}</style><clipPath id="clip-path"><path class="cls-1" d="M53.42814-3198.24323a2.67829,2.67829,0,0,0,2.6374,2.6453H205.41823a2.675,2.675,0,0,0,2.6374-2.64315v-168.78415a2.67637,2.67637,0,0,0-2.6374-2.64309H56.06554a2.67637,2.67637,0,0,0-2.6374,2.64309v15.9041h5.4012A14.10984,14.10984,0,0,1,72.90976-3337.01v2.52074a14.1099,14.1099,0,0,1-14.08042,14.11117h-5.4012v22.37344h5.4012a14.10984,14.10984,0,0,1,14.08042,14.11109v2.52078a14.10987,14.10987,0,0,1-14.08042,14.11114h-5.4012v22.37344h5.4012A14.10987,14.10987,0,0,1,72.90976-3230.777v2.52077a14.10987,14.10987,0,0,1-14.08042,14.11115h-5.4012Zm-14.75959-25.28068H58.8272a4.73427,4.73427,0,0,0,4.72418-4.73449v-2.52077a4.73426,4.73426,0,0,0-4.72418-4.73449H38.66855a4.73426,4.73426,0,0,0-4.72418,4.73449v2.52077A4.73427,4.73427,0,0,0,38.66855-3223.52391Zm0-53.11435H58.8272a4.73427,4.73427,0,0,0,4.72418-4.73449v-2.52078a4.73426,4.73426,0,0,0-4.72418-4.73448H38.66855a4.73426,4.73426,0,0,0-4.72418,4.73448v2.52078A4.73427,4.73427,0,0,0,38.66855-3276.63826Zm0-53.1165H58.8272a4.73425,4.73425,0,0,0,4.72418-4.73447V-3337.01a4.73435,4.73435,0,0,0-4.72418-4.73458H38.66855a4.73435,4.73435,0,0,0-4.72418,4.73458v2.52074A4.73425,4.73425,0,0,0,38.66855-3329.75476Zm178.74332,131.51153a12.0201,12.0201,0,0,1-11.99579,12.01981H56.06339a12.01826,12.01826,0,0,1-11.99363-12.01981v-15.90188H38.66855a14.10988,14.10988,0,0,1-14.08042-14.11115v-2.52077a14.11172,14.11172,0,0,1,14.08042-14.1133h5.40121v-22.37128H38.66855a14.10988,14.10988,0,0,1-14.08042-14.11114v-2.52078a14.11168,14.11168,0,0,1,14.08042-14.11324h5.40121v-22.37129H38.66855a14.10991,14.10991,0,0,1-14.08042-14.11117V-3337.01a14.11213,14.11213,0,0,1,14.08256-14.11331H44.0719v-15.9041a12.01829,12.01829,0,0,1,11.99364-12.01977H205.41823a12.01829,12.01829,0,0,1,11.99364,12.01977Zm-81.87875-89.46636a15.869,15.869,0,0,0,11.45352-15.22072,15.85677,15.85677,0,0,0-15.83911-15.83843,15.85627,15.85627,0,0,0-15.83689,15.83843,15.86781,15.86781,0,0,0,11.45151,15.22072Zm14.03136,2.21238c10.0249,4.45454,17.10432,15.14965,17.10432,27.60363v15.96834a4.77708,4.77708,0,0,1-4.57378,4.95874H100.20224a4.77711,4.77711,0,0,1-4.57378-4.95874v-15.96834c0-12.454,7.07933-23.149,17.10333-27.60359a25.28214,25.28214,0,0,1-6.95472-17.43538,25.39912,25.39912,0,0,1,25.37046-25.37153,25.39817,25.39817,0,0,1,25.37264,25.37153A25.28089,25.28089,0,0,1,149.56448-3285.49721Zm-14.98509,7.70511a25.50143,25.50143,0,0,1-3.43186.23113,25.49939,25.49939,0,0,1-3.43179-.23113h-4.588c-10.1193,0-18.3517,8.92754-18.3517,19.89852v11.0096h52.74521v-11.0096c0-10.971-8.23454-19.89852-18.35382-19.89852Z"/></clipPath><clipPath id="clip-path-2"><path class="cls-1" d="M320.60365-3302.86943a1.389,1.389,0,0,0,1.36776,1.37187H399.426a1.38726,1.38726,0,0,0,1.36777-1.37075V-3390.4a1.388,1.388,0,0,0-1.36777-1.37071H321.97141a1.388,1.388,0,0,0-1.36776,1.37071v8.24789h2.80107a7.31739,7.31739,0,0,1,7.30213,7.31808v1.30725a7.31742,7.31742,0,0,1-7.30213,7.31808h-2.80107v11.6029h2.80107a7.31739,7.31739,0,0,1,7.30213,7.318v1.30728a7.3174,7.3174,0,0,1-7.30213,7.31806h-2.80107v11.6029h2.80107a7.3174,7.3174,0,0,1,7.30213,7.31806v1.30728a7.31741,7.31741,0,0,1-7.30213,7.31807h-2.80107ZM312.9493-3315.98h10.45431a2.45519,2.45519,0,0,0,2.45-2.45531v-1.30728a2.45519,2.45519,0,0,0-2.45-2.45531H312.9493a2.4552,2.4552,0,0,0-2.45,2.45531v1.30728A2.4552,2.4552,0,0,0,312.9493-3315.98Zm0-27.54519h10.45431a2.4552,2.4552,0,0,0,2.45-2.45531v-1.30728a2.45519,2.45519,0,0,0-2.45-2.45531H312.9493a2.4552,2.4552,0,0,0-2.45,2.45531v1.30728A2.4552,2.4552,0,0,0,312.9493-3343.52522Zm0-27.5463h10.45431a2.45519,2.45519,0,0,0,2.45-2.45531v-1.30725a2.45524,2.45524,0,0,0-2.45-2.45537H312.9493a2.45524,2.45524,0,0,0-2.45,2.45537v1.30725A2.4552,2.4552,0,0,0,312.9493-3371.07152Zm92.69659,68.20209a6.23364,6.23364,0,0,1-6.221,6.2335H321.9703a6.23269,6.23269,0,0,1-6.21992-6.2335v-8.24673H312.9493a7.31742,7.31742,0,0,1-7.30213-7.31807v-1.30728a7.31837,7.31837,0,0,1,7.30213-7.31918h2.80108v-11.60178H312.9493a7.31741,7.31741,0,0,1-7.30213-7.31806v-1.30728a7.31834,7.31834,0,0,1,7.30213-7.31915h2.80108v-11.60179H312.9493a7.31743,7.31743,0,0,1-7.30213-7.31808v-1.30725a7.31858,7.31858,0,0,1,7.30324-7.31919h2.80108v-8.2479a6.2327,6.2327,0,0,1,6.21992-6.23347H399.426a6.2327,6.2327,0,0,1,6.21993,6.23347Zm-42.46246-46.3974a8.22971,8.22971,0,0,0,5.93982-7.89349,8.22335,8.22335,0,0,0-8.2142-8.21383,8.22308,8.22308,0,0,0-8.213,8.21383,8.22906,8.22906,0,0,0,5.93877,7.89349Zm7.27669,1.14735a15.5377,15.5377,0,0,1,8.87033,14.31529v8.2812a2.4774,2.4774,0,0,1-2.372,2.57161h-32.0977a2.47741,2.47741,0,0,1-2.372-2.57161v-8.2812a15.53806,15.53806,0,0,1,8.86981-14.31527,13.11137,13.11137,0,0,1-3.60673-9.042,13.172,13.172,0,0,1,13.15716-13.15772,13.17154,13.17154,0,0,1,13.1583,13.15772A13.11071,13.11071,0,0,1,370.46012-3348.11948Zm-7.77129,3.99588a13.22605,13.22605,0,0,1-1.77978.11986,13.22472,13.22472,0,0,1-1.77972-.11986H356.75c-5.24789,0-9.51723,4.62984-9.51723,10.31941v5.70959h27.35376v-5.70959c0-5.68957-4.27045-10.31941-9.51832-10.31941Z"/></clipPath></defs><title>p-share app icons</title><path class="cls-1" d="M53.42814-3198.24323a2.67829,2.67829,0,0,0,2.6374,2.6453H205.41823a2.675,2.675,0,0,0,2.6374-2.64315v-168.78415a2.67637,2.67637,0,0,0-2.6374-2.64309H56.06554a2.67637,2.67637,0,0,0-2.6374,2.64309v15.9041h5.4012A14.10984,14.10984,0,0,1,72.90976-3337.01v2.52074a14.1099,14.1099,0,0,1-14.08042,14.11117h-5.4012v22.37344h5.4012a14.10984,14.10984,0,0,1,14.08042,14.11109v2.52078a14.10987,14.10987,0,0,1-14.08042,14.11114h-5.4012v22.37344h5.4012A14.10987,14.10987,0,0,1,72.90976-3230.777v2.52077a14.10987,14.10987,0,0,1-14.08042,14.11115h-5.4012Zm-14.75959-25.28068H58.8272a4.73427,4.73427,0,0,0,4.72418-4.73449v-2.52077a4.73426,4.73426,0,0,0-4.72418-4.73449H38.66855a4.73426,4.73426,0,0,0-4.72418,4.73449v2.52077A4.73427,4.73427,0,0,0,38.66855-3223.52391Zm0-53.11435H58.8272a4.73427,4.73427,0,0,0,4.72418-4.73449v-2.52078a4.73426,4.73426,0,0,0-4.72418-4.73448H38.66855a4.73426,4.73426,0,0,0-4.72418,4.73448v2.52078A4.73427,4.73427,0,0,0,38.66855-3276.63826Zm0-53.1165H58.8272a4.73425,4.73425,0,0,0,4.72418-4.73447V-3337.01a4.73435,4.73435,0,0,0-4.72418-4.73458H38.66855a4.73435,4.73435,0,0,0-4.72418,4.73458v2.52074A4.73425,4.73425,0,0,0,38.66855-3329.75476Zm178.74332,131.51153a12.0201,12.0201,0,0,1-11.99579,12.01981H56.06339a12.01826,12.01826,0,0,1-11.99363-12.01981v-15.90188H38.66855a14.10988,14.10988,0,0,1-14.08042-14.11115v-2.52077a14.11172,14.11172,0,0,1,14.08042-14.1133h5.40121v-22.37128H38.66855a14.10988,14.10988,0,0,1-14.08042-14.11114v-2.52078a14.11168,14.11168,0,0,1,14.08042-14.11324h5.40121v-22.37129H38.66855a14.10991,14.10991,0,0,1-14.08042-14.11117V-3337.01a14.11213,14.11213,0,0,1,14.08256-14.11331H44.0719v-15.9041a12.01829,12.01829,0,0,1,11.99364-12.01977H205.41823a12.01829,12.01829,0,0,1,11.99364,12.01977Zm-81.87875-89.46636a15.869,15.869,0,0,0,11.45352-15.22072,15.85677,15.85677,0,0,0-15.83911-15.83843,15.85627,15.85627,0,0,0-15.83689,15.83843,15.86781,15.86781,0,0,0,11.45151,15.22072Zm14.03136,2.21238c10.0249,4.45454,17.10432,15.14965,17.10432,27.60363v15.96834a4.77708,4.77708,0,0,1-4.57378,4.95874H100.20224a4.77711,4.77711,0,0,1-4.57378-4.95874v-15.96834c0-12.454,7.07933-23.149,17.10333-27.60359a25.28214,25.28214,0,0,1-6.95472-17.43538,25.39912,25.39912,0,0,1,25.37046-25.37153,25.39817,25.39817,0,0,1,25.37264,25.37153A25.28089,25.28089,0,0,1,149.56448-3285.49721Zm-14.98509,7.70511a25.50143,25.50143,0,0,1-3.43186.23113,25.49939,25.49939,0,0,1-3.43179-.23113h-4.588c-10.1193,0-18.3517,8.92754-18.3517,19.89852v11.0096h52.74521v-11.0096c0-10.971-8.23454-19.89852-18.35382-19.89852Z"/><g class="cls-2"><rect class="cls-1" x="-168.2356" y="-4364.59068" width="15329.48691" height="8227.14602"/></g><path class="cls-1" d="M320.60365-3302.86943a1.389,1.389,0,0,0,1.36776,1.37187H399.426a1.38726,1.38726,0,0,0,1.36777-1.37075V-3390.4a1.388,1.388,0,0,0-1.36777-1.37071H321.97141a1.388,1.388,0,0,0-1.36776,1.37071v8.24789h2.80107a7.31739,7.31739,0,0,1,7.30213,7.31808v1.30725a7.31742,7.31742,0,0,1-7.30213,7.31808h-2.80107v11.6029h2.80107a7.31739,7.31739,0,0,1,7.30213,7.318v1.30728a7.3174,7.3174,0,0,1-7.30213,7.31806h-2.80107v11.6029h2.80107a7.3174,7.3174,0,0,1,7.30213,7.31806v1.30728a7.31741,7.31741,0,0,1-7.30213,7.31807h-2.80107ZM312.9493-3315.98h10.45431a2.45519,2.45519,0,0,0,2.45-2.45531v-1.30728a2.45519,2.45519,0,0,0-2.45-2.45531H312.9493a2.4552,2.4552,0,0,0-2.45,2.45531v1.30728A2.4552,2.4552,0,0,0,312.9493-3315.98Zm0-27.54519h10.45431a2.4552,2.4552,0,0,0,2.45-2.45531v-1.30728a2.45519,2.45519,0,0,0-2.45-2.45531H312.9493a2.4552,2.4552,0,0,0-2.45,2.45531v1.30728A2.4552,2.4552,0,0,0,312.9493-3343.52522Zm0-27.5463h10.45431a2.45519,2.45519,0,0,0,2.45-2.45531v-1.30725a2.45524,2.45524,0,0,0-2.45-2.45537H312.9493a2.45524,2.45524,0,0,0-2.45,2.45537v1.30725A2.4552,2.4552,0,0,0,312.9493-3371.07152Zm92.69659,68.20209a6.23364,6.23364,0,0,1-6.221,6.2335H321.9703a6.23269,6.23269,0,0,1-6.21992-6.2335v-8.24673H312.9493a7.31742,7.31742,0,0,1-7.30213-7.31807v-1.30728a7.31837,7.31837,0,0,1,7.30213-7.31918h2.80108v-11.60178H312.9493a7.31741,7.31741,0,0,1-7.30213-7.31806v-1.30728a7.31834,7.31834,0,0,1,7.30213-7.31915h2.80108v-11.60179H312.9493a7.31743,7.31743,0,0,1-7.30213-7.31808v-1.30725a7.31858,7.31858,0,0,1,7.30324-7.31919h2.80108v-8.2479a6.2327,6.2327,0,0,1,6.21992-6.23347H399.426a6.2327,6.2327,0,0,1,6.21993,6.23347Zm-42.46246-46.3974a8.22971,8.22971,0,0,0,5.93982-7.89349,8.22335,8.22335,0,0,0-8.2142-8.21383,8.22308,8.22308,0,0,0-8.213,8.21383,8.22906,8.22906,0,0,0,5.93877,7.89349Zm7.27669,1.14735a15.5377,15.5377,0,0,1,8.87033,14.31529v8.2812a2.4774,2.4774,0,0,1-2.372,2.57161h-32.0977a2.47741,2.47741,0,0,1-2.372-2.57161v-8.2812a15.53806,15.53806,0,0,1,8.86981-14.31527,13.11137,13.11137,0,0,1-3.60673-9.042,13.172,13.172,0,0,1,13.15716-13.15772,13.17154,13.17154,0,0,1,13.1583,13.15772A13.11071,13.11071,0,0,1,370.46012-3348.11948Zm-7.77129,3.99588a13.22605,13.22605,0,0,1-1.77978.11986,13.22472,13.22472,0,0,1-1.77972-.11986H356.75c-5.24789,0-9.51723,4.62984-9.51723,10.31941v5.70959h27.35376v-5.70959c0-5.68957-4.27045-10.31941-9.51832-10.31941Z"/><g class="cls-3"><rect class="cls-1" x="205.64846" y="-3907.73916" width="7949.89755" height="4266.61168"/></g><path class="cls-4" d="M125.47017,231.62043A103.62038,103.62038,0,1,1,229.09054,128.00006,103.73714,103.73714,0,0,1,125.47017,231.62043Zm0-190.66149a87.04112,87.04112,0,1,0,87.04111,87.04112A87.13629,87.13629,0,0,0,125.47017,40.95894Z"/><path class="cls-4" d="M110.18616,172.7592a8.28963,8.28963,0,0,1-5.861-14.15066l29.31323-29.30513L104.32514,99.99017a8.28874,8.28874,0,1,1,11.722-11.72205l41.03529,41.03529L116.04719,170.3306A8.26281,8.26281,0,0,1,110.18616,172.7592Z"/></svg>